<?xml version="1.0" encoding="UTF-8"?><svg id="_レイヤー_2" xmlns="http://www.w3.org/2000/svg" viewBox="0 0 346.61 181.21"><defs><style>.cls-1{fill:#fff;}.cls-2{fill:#999799;}.cls-3{fill:#c0bfbe;}.cls-4{fill:#231815;}.cls-5{fill:#51afb1;}</style></defs><g id="_レイヤー_1-2"><g><g><g><rect class="cls-2" x="102.32" width="15.99" height="40.71"/><rect class="cls-2" x="228.31" width="15.99" height="40.71"/></g><path class="cls-3" d="M14.65,33.69H331.96c8.09,0,14.65,6.57,14.65,14.65v118.22c0,8.09-6.57,14.65-14.65,14.65H14.65c-8.09,0-14.65-6.57-14.65-14.65V48.34c0-8.09,6.56-14.65,14.65-14.65Z"/><path class="cls-1" d="M14.65,170.51c-2.18,0-3.95-1.77-3.95-3.95V48.34c0-2.18,1.77-3.95,3.95-3.95H331.96c2.18,0,3.95,1.77,3.95,3.95v118.22c0,2.18-1.77,3.95-3.95,3.95H14.65Z"/><path class="cls-5" d="M10.7,130.93v35.64c0,2.18,1.77,3.95,3.95,3.95H331.96c2.18,0,3.95-1.77,3.95-3.95v-35.64H10.7Z"/><g><polygon class="cls-1" points="33.95 158.41 20.59 150.69 33.95 142.97 33.95 158.41"/><polygon class="cls-1" points="312.66 142.97 326.03 150.69 312.66 158.4 312.66 142.97"/></g></g><g><path class="cls-4" d="M47.44,102.53c-.34,.54-.81,.68-1.42,.4l-1.69-.67c-.74-.27-.88-.74-.41-1.42,3.45-4.8,6.69-10.2,9.52-16.14h-17.56c-.61,0-1.01-.2-1.22-.74-.27-.54,.07-.95,.95-.95h18.64c1.76-3.51,3.31-7.09,4.66-10.74,.27-.61,.68-.88,1.35-.67,3.38,.74,5.13,1.55,5.13,2.36,0,.61-1.08,1.08-3.24,1.42-1.22,2.97-2.09,5.27-2.84,6.55l-.54,1.08h26.95l3.04-3.78c.47-.54,.95-.61,1.49-.14,1.22,1.08,2.36,2.23,3.58,3.58,.34,.47,.41,.95,.07,1.49-.2,.41-.61,.54-1.15,.54h-13.31c-2.03,7.03-5.07,13.44-9.25,19.32,12.77,4.79,19.18,8.51,19.18,11.15,0,1.28-.61,1.89-1.76,1.89-.54,0-1.76-.54-3.51-1.76-4.53-3.04-9.79-5.88-15.81-8.58-6.42,6.62-16.82,10.34-31.14,11.01-.68,.07-1.08-.2-1.28-.74-.27-.54,.14-.95,.88-1.01,12.5-1.42,21.75-5.07,27.76-10.94-5.4-2.23-10.4-4.12-14.93-5.61-.81,1.22-1.55,2.3-2.16,3.11Zm14.59-35.67v-8.38c0-.68,.41-1.01,1.15-1.01,3.78,.13,5.61,.68,5.61,1.55,0,.54-.95,1.22-2.9,1.96v5.88h20.81l1.96-2.36c.41-.61,.95-.61,1.49-.07,2.7,2.57,4.05,4.25,4.05,5.13,0,.41-.34,.61-.95,.74l-2.16,.34c-1.82,1.89-3.99,3.99-6.42,6.01-.47,.47-.95,.47-1.49,.07-.41-.34-.41-.74,0-1.35,1.55-2.36,2.77-4.59,3.72-6.82H42.3c0,2.9-.41,5.47-1.22,7.57-1.01,2.57-2.3,3.85-3.85,3.85s-2.5-.74-2.5-2.3c0-.68,.54-1.55,1.55-2.7,2.23-2.37,3.44-5.61,3.85-9.86,.07-.74,.47-1.08,1.15-1.01,.47,0,.68,.34,.74,.88,.07,.27,.07,.47,.13,.81v.34c.07,.34,.07,.61,.07,.74h19.79Zm4.46,35.8c3.65-5,6.42-11.01,8.38-17.97h-16.89c-2.23,4.53-4.66,8.92-7.3,13.04,6.69,1.89,11.96,3.58,15.81,4.93Z"/><path class="cls-4" d="M105.21,82.2v.74c0,7.97-1.22,14.25-3.58,18.85-1.76,3.44-3.58,5.13-5.54,5.13-1.62,0-2.43-.81-2.43-2.3,0-.88,.68-1.89,2.09-3.17,3.85-3.58,6.42-10.07,7.63-19.45,.07-.74,.41-1.08,.95-.95,.61,.2,.88,.54,.88,1.15Zm34.38,16.42v2.16c0,4.39,.14,7.16,.68,8.31,.2,.47,.54,.81,.95,1.01,.68,.2,1.08,.47,.95,1.15-.34,1.55-1.28,2.57-2.77,2.97-1.42,.41-5.4,.61-11.96,.61-7.5,0-11.75-.41-12.83-1.22-.95-.74-1.42-2.09-1.42-4.12v-34.92c0-.67,.41-1.08,1.15-1.01,3.92,.2,5.88,.88,5.88,1.82,0,.61-.95,1.22-2.9,1.82v31.14c0,1.35,.34,2.09,1.08,2.43,.68,.27,3.31,.47,7.97,.47s7.36-.14,8.17-.54c1.42-.68,2.43-4.8,3.11-12.36,.07-.74,.47-1.15,1.08-.88,.61,.13,.88,.54,.88,1.15Zm-24.93-38.91c5.07,1.96,9.25,4.12,12.7,6.69,3.11,2.3,4.73,4.53,4.73,6.62,0,1.55-.81,2.36-2.36,2.36-.74,0-1.69-.74-2.7-2.23-2.63-4.19-7.02-8.17-13.1-11.89-.61-.34-.74-.74-.54-1.22,.27-.47,.74-.54,1.28-.34Zm24.79,20.27c4.73,4.05,8.44,8.11,11.21,12.23,2.16,3.24,3.31,5.88,3.31,7.97s-.88,3.11-2.57,3.11c-1.15,0-2.09-1.08-2.63-3.17-1.82-6.21-5.27-12.43-10.67-18.71-.41-.54-.41-1.01-.07-1.42,.41-.47,.88-.47,1.42,0Z"/><path class="cls-4" d="M171.75,84.09c.88,.88,1.35,2.03,1.35,3.31,0,.88-.2,1.76-.68,2.57-1.01,1.55-2.43,2.3-4.19,2.3-1.22,0-2.23-.41-3.11-1.15-1.15-1.01-1.76-2.3-1.76-3.72,0-1.69,.68-2.97,2.09-3.99,.88-.61,1.76-.88,2.77-.88,1.35,0,2.5,.54,3.51,1.55Z"/><path class="cls-4" d="M202.42,102.53c-.34,.54-.81,.68-1.42,.4l-1.69-.67c-.74-.27-.88-.74-.41-1.42,3.45-4.8,6.69-10.2,9.52-16.14h-17.56c-.61,0-1.01-.2-1.22-.74-.27-.54,.07-.95,.95-.95h18.64c1.76-3.51,3.31-7.09,4.66-10.74,.27-.61,.68-.88,1.35-.67,3.38,.74,5.13,1.55,5.13,2.36,0,.61-1.08,1.08-3.24,1.42-1.22,2.97-2.09,5.27-2.84,6.55l-.54,1.08h26.95l3.04-3.78c.47-.54,.95-.61,1.49-.14,1.22,1.08,2.36,2.23,3.58,3.58,.34,.47,.41,.95,.07,1.49-.2,.41-.61,.54-1.15,.54h-13.31c-2.03,7.03-5.07,13.44-9.25,19.32,12.77,4.79,19.18,8.51,19.18,11.15,0,1.28-.61,1.89-1.76,1.89-.54,0-1.76-.54-3.51-1.76-4.53-3.04-9.79-5.88-15.81-8.58-6.42,6.62-16.82,10.34-31.14,11.01-.68,.07-1.08-.2-1.28-.74-.27-.54,.13-.95,.88-1.01,12.5-1.42,21.75-5.07,27.76-10.94-5.4-2.23-10.4-4.12-14.93-5.61-.81,1.22-1.55,2.3-2.16,3.11Zm14.59-35.67v-8.38c0-.68,.41-1.01,1.15-1.01,3.78,.13,5.61,.68,5.61,1.55,0,.54-.95,1.22-2.9,1.96v5.88h20.81l1.96-2.36c.41-.61,.95-.61,1.49-.07,2.7,2.57,4.05,4.25,4.05,5.13,0,.41-.34,.61-.95,.74l-2.16,.34c-1.82,1.89-3.99,3.99-6.42,6.01-.47,.47-.95,.47-1.49,.07-.41-.34-.41-.74,0-1.35,1.55-2.36,2.77-4.59,3.72-6.82h-44.58c0,2.9-.41,5.47-1.22,7.57-1.01,2.57-2.3,3.85-3.85,3.85s-2.5-.74-2.5-2.3c0-.68,.54-1.55,1.55-2.7,2.23-2.37,3.44-5.61,3.85-9.86,.07-.74,.47-1.08,1.15-1.01,.47,0,.68,.34,.74,.88,.07,.27,.07,.47,.13,.81v.34c.07,.34,.07,.61,.07,.74h19.79Zm4.46,35.8c3.65-5,6.42-11.01,8.38-17.97h-16.89c-2.23,4.53-4.66,8.92-7.3,13.04,6.69,1.89,11.96,3.58,15.81,4.93Z"/><path class="cls-4" d="M312.63,80.64c.74,.2,.81,.74,.34,1.35-.61,.61-1.22,1.42-1.69,2.23-.34,.61-.81,.74-1.42,.47-11.15-5.47-20-12.77-26.48-21.75-2.7,3.85-5.13,6.89-7.23,9.19-5.61,6.01-12.63,11.01-21.14,14.93-.61,.27-1.08,.13-1.42-.41-.27-.34-.07-.81,.54-1.15,8.31-4.66,15.13-10.54,20.54-17.56,2.09-2.77,4.26-6.15,6.48-10,.27-.54,.74-.74,1.42-.54,3.17,.88,4.73,1.76,4.73,2.57,0,.54-.95,.95-2.77,1.28,8.04,8.85,17.43,15.27,28.1,19.39Zm-27.63,18.51v13.71h16.96l3.04-3.92c.47-.54,1.01-.61,1.49-.14,1.22,1.08,2.43,2.3,3.65,3.72,.34,.47,.41,.88,.14,1.49-.2,.41-.61,.54-1.22,.54h-51.14c-.61,0-1.01-.27-1.22-.81-.27-.54,.14-.88,.95-.88h23.37v-13.71h-15.47c-.54,0-.95-.2-1.22-.81-.27-.54,.14-.88,.95-.88h15.74v-12.5h-15.81c-.61,0-1.01-.27-1.22-.88-.14-.47,.2-.81,1.01-.81h29.52l2.63-2.5c.41-.4,.95-.47,1.49-.13,1.01,.74,2.09,1.49,3.17,2.36,.47,.41,.54,.88,.2,1.49-.2,.34-.54,.47-1.08,.47h-15.94v12.5h9.59l2.63-3.18c.41-.54,.95-.61,1.49-.13,.81,.81,1.89,1.82,3.11,3.11,.41,.47,.47,.95,.14,1.49-.14,.27-.47,.41-1.08,.41h-15.87Z"/></g><g><path class="cls-1" d="M106.03,159.52h-3.06l3.02-16.73h4.07l3.02,16.73h-3.02l-.56-3.42h-2.92l-.54,3.42Zm.96-6.11h2.08l-.7-4.4c-.12-.79-.23-1.87-.28-2.46h-.14c-.02,.58-.16,1.66-.28,2.46l-.68,4.4Z"/><path class="cls-1" d="M119.03,142.8l3.02,7.46c.35,.87,.54,1.47,.7,2.06h.09c-.05-.61-.12-1.52-.12-2.18v-5.64l-.02-1.71h2.92l-.02,1.71v13.31l.02,1.71h-2.71l-3.35-8.45c-.37-.87-.56-1.47-.75-2.06h-.09c.05,.61,.12,1.52,.12,2.18v6.62l.02,1.71h-2.92l.02-1.71v-13.31l-.02-1.71h3.09Z"/><path class="cls-1" d="M131.5,154.89c.28,1.54,.98,2.13,1.99,2.13s1.54-.58,1.54-1.45c0-.94-.61-1.83-1.94-2.81l-1.54-1.12c-1.85-1.36-2.64-2.95-2.64-4.7,0-2.6,1.78-4.42,4.54-4.42,2.55,0,4.02,1.54,4.4,4.16l-2.92,.4c-.16-1.12-.63-1.78-1.57-1.78s-1.4,.63-1.4,1.5c0,1.05,.75,1.8,1.96,2.69l1.52,1.1c1.75,1.29,2.64,2.92,2.64,4.82,0,2.69-1.8,4.4-4.61,4.4s-4.47-1.68-4.87-4.51l2.9-.4Z"/><path class="cls-1" d="M149.93,142.8l-.02,1.71v13.31l.02,1.71h-2.99l.02-1.71v-5.68h-2.9v5.68l.02,1.71h-3.02l.02-1.71v-13.31l-.02-1.71h3.02l-.02,1.71v4.96h2.9v-4.96l-.02-1.71h2.99Z"/><path class="cls-1" d="M156.49,142.8l-.02,1.71v13.31l.02,1.71h-3.02l.02-1.71v-13.31l-.02-1.71h3.02Z"/><path class="cls-1" d="M163.09,142.8l3.02,7.46c.35,.87,.54,1.47,.7,2.06h.09c-.05-.61-.12-1.52-.12-2.18v-5.64l-.02-1.71h2.92l-.02,1.71v13.31l.02,1.71h-2.71l-3.35-8.45c-.37-.87-.56-1.47-.75-2.06h-.09c.05,.61,.12,1.52,.12,2.18v6.62l.02,1.71h-2.92l.02-1.71v-13.31l-.02-1.71h3.09Z"/><path class="cls-1" d="M172.34,161.44l5.54-18.64h2.32l-5.59,18.64h-2.27Z"/><path class="cls-1" d="M189.48,159.52h-3.06l3.02-16.73h4.07l3.02,16.73h-3.02l-.56-3.42h-2.92l-.54,3.42Zm.96-6.11h2.08l-.7-4.4c-.12-.79-.23-1.87-.28-2.46h-.14c-.02,.58-.16,1.66-.28,2.46l-.68,4.4Z"/><path class="cls-1" d="M202.48,142.8l3.02,7.46c.35,.87,.54,1.47,.7,2.06h.09c-.05-.61-.12-1.52-.12-2.18v-5.64l-.02-1.71h2.92l-.02,1.71v13.31l.02,1.71h-2.71l-3.34-8.45c-.37-.87-.56-1.47-.75-2.06h-.09c.05,.61,.12,1.52,.12,2.18v6.62l.02,1.71h-2.92l.02-1.71v-13.31l-.02-1.71h3.09Z"/><path class="cls-1" d="M220.81,159.52h-8.7v-2.53l5.47-11.58h-4.96v-2.62h8.26v2.53l-5.52,11.58h5.45v2.62Z"/><path class="cls-1" d="M226.98,152.13v4.77h4.68v2.62h-7.67l.02-1.71v-13.31l-.02-1.71h7.58v2.62h-4.58v4.05h3.6v2.67h-3.6Z"/><path class="cls-1" d="M237.85,142.8l3.02,7.46c.35,.87,.54,1.47,.7,2.06h.09c-.05-.61-.12-1.52-.12-2.18v-5.64l-.02-1.71h2.92l-.02,1.71v13.31l.02,1.71h-2.71l-3.34-8.45c-.37-.87-.56-1.47-.75-2.06h-.09c.05,.61,.12,1.52,.12,2.18v6.62l.02,1.71h-2.92l.02-1.71v-13.31l-.02-1.71h3.09Z"/></g></g></g></svg>