<svg xmlns="http://www.w3.org/2000/svg" width="301.729" height="44.68" viewBox="0 0 301.729 44.68">
  <g id="グループ_2825" data-name="グループ 2825" transform="translate(-646.117 -8129.117)">
    <path id="パス_3043" data-name="パス 3043" d="M10.891,2.41H301.729L290.837,35.725H0Z" transform="translate(646.117 8138.072)" fill="#faec00"/>
    <g id="グループ_2704" data-name="グループ 2704" transform="translate(1148.869 7533.065)">
      <g id="グループ_2276" data-name="グループ 2276" transform="translate(-479.869 596.376)">
        <path id="パス_2304" data-name="パス 2304" d="M-463.244,611.853l12.283-.1,5.981,6.048-2.1,8.23a8.422,8.422,0,0,1-7.607,6.072l-5.928.051.888-3.48,5.93-.051a3.246,3.246,0,0,0,2.971-2.371l1.7-6.677L-453.4,615.2l-10.719.089-3.925,15.379-2.365,1.85-4.553.039-4.9-5.262,1.548-6.067,11.147-7.883,1.788-7.006-7.825.066.876-3.434,7.825-.066,1.5-5.877,3.558-.031-1.5,5.879,10.433-.09-.876,3.434-10.433.088ZM-475.1,622.886l-.685,2.681,3.131,3.3,1.517-.012,2.737-10.722Zm28.153-20.369,5.609,3.238-1.045,4.09L-448,606.657Z" transform="translate(479.869 -596.042)" fill="#0068b7" stroke="#0068b7" stroke-width="0.5"/>
        <path id="パス_2305" data-name="パス 2305" d="M-429.354,596.876l-3.794,14.858-12.092.1-5.618,22.009-3.32.029,9.411-36.87Zm-15.046,11.67,8.774-.074.624-2.444-8.774.074Zm.816,19.422,3.23-12.652,17.407-.146-3.23,12.65Zm10.06-27.724-8.776.074-.587,2.3,8.774-.074Zm-4.138,18.616-1.417,5.549,10.2-.086,1.417-5.547Zm13.241-22.026,16.457-.139-9.411,36.869-3.319.028,5.617-22.009-13.136.111Zm.368,11.542,9.815-.085.624-2.444-9.815.085Zm11.916-8.313-9.815.085-.589,2.3,9.815-.085Z" transform="translate(493.788 -596.204)" fill="#0068b7" stroke="#0068b7" stroke-width="0.5"/>
        <path id="パス_2306" data-name="パス 2306" d="M-417.693,622.216l6.058-3.9-1.249,4.889-6.451,4.14-3.221-4.619,4.325-21.949,3.793-.032-4.024,20.4Zm30.063-14.144-2.441,13.818-3.793.032,2.271-12.784-1.03-4.12,4.218-.035Z" transform="translate(510.921 -594.009)" fill="#0068b7" stroke="#0068b7" stroke-width="0.5"/>
        <path id="パス_2307" data-name="パス 2307" d="M-371.2,596.376l15.364,15.637-5.978.051-10.634-10.8-16.161,11.022-6.024.051Zm-21.87,36.177,3.807-14.909,25.324-.214-3.807,14.909ZM-386.716,621l-2.089,8.182,18.5-.156,2.091-8.184Zm2.322-10.58,19.255-.162-.913,3.574-19.254.163Z" transform="translate(526.048 -596.376)" fill="#0068b7" stroke="#0068b7" stroke-width="0.5"/>
        <path id="パス_2308" data-name="パス 2308" d="M-327.064,608.275l-3.517,13.781a8.873,8.873,0,0,1-8.025,6.4l-6.3.052.9-3.528,6.3-.052a3.953,3.953,0,0,0,3.566-2.846l3.037-11.9-3.608-2.738-10.244.088-5.25,2.954-6.2,7.606-3.289,12.886-3.6.029,1.681-6.582-1.667,2.078-5.311.046,1.921-7.525,7.5-9.167-3.29-1.943,1.031-4.043,4.393,2.636,2.317-9.077,3.6-.031-3.434,13.449,2.285-2.835,7.138-4.047,12.425-.1Zm-32.7,8.911.6-2.351-4.143,5.1-.6,2.351Z" transform="translate(540.156 -595.818)" fill="#0068b7" stroke="#0068b7" stroke-width="0.5"/>
        <path id="パス_2309" data-name="パス 2309" d="M-333.357,624.682l3.973-15.566-7.209.062.913-3.572,7.209-.062,1.872-7.337,3.7-.032-1.873,7.337,13.9-.117,2.089-8.184,3.7-.031-2.089,8.182,6.687-.056-.913,3.574-6.685.056-2.342,9.169L-314.055,621l-4.221.036.937-3.669,2.7-.022.891-.711,1.956-7.666-13.9.117-4,15.661a1.74,1.74,0,0,0,1.772,2.33l17.735-.15-.911,3.574-17.737.151C-332.19,630.677-334.209,628.021-333.357,624.682Z" transform="translate(557.494 -595.941)" fill="#0068b7" stroke="#0068b7" stroke-width="0.5"/>
      </g>
    </g>
  </g>
</svg>
