<svg xmlns="http://www.w3.org/2000/svg" width="21" height="20.01" viewBox="0 0 21 20.01">
  <g id="FULL_COLOR_ICON" data-name="FULL COLOR ICON" transform="translate(-364.034 -242.23)">
    <g id="TYPE_A" data-name="TYPE A" transform="translate(364.034 242.23)">
      <g id="グループ_54" data-name="グループ 54" transform="translate(0 0)">
        <path id="パス_93" data-name="パス 93" d="M398.059,266.326c0-4.7-4.71-8.521-10.5-8.521s-10.5,3.822-10.5,8.521c0,4.212,3.736,7.74,8.781,8.407.342.074.807.225.925.518a2.158,2.158,0,0,1,.034.949s-.123.741-.15.9c-.046.265-.211,1.038.909.566a33.9,33.9,0,0,0,8.25-6.1h0a7.581,7.581,0,0,0,2.251-5.242" transform="translate(-377.059 -257.805)" fill="#fff"/>
        <g id="グループ_53" data-name="グループ 53" transform="translate(3.445 6.25)">
          <path id="パス_94" data-name="パス 94" d="M408.9,283.813h-.737a.2.2,0,0,0-.2.2v4.575a.2.2,0,0,0,.2.2h.737a.2.2,0,0,0,.2-.2v-4.575a.2.2,0,0,0-.2-.2" transform="translate(-403.976 -283.813)" fill="#0068b7"/>
          <path id="パス_95" data-name="パス 95" d="M419.853,283.813h-.736a.2.2,0,0,0-.2.2v2.718l-2.1-2.832-.016-.021h0l-.012-.012,0,0-.011-.009-.005,0-.011-.007-.006,0-.011-.006-.006,0-.012,0-.007,0-.012,0-.007,0-.012,0h-.773a.2.2,0,0,0-.2.2v4.575a.2.2,0,0,0,.2.2h.736a.2.2,0,0,0,.2-.2v-2.717l2.1,2.835a.2.2,0,0,0,.052.051l0,0,.013.008.006,0,.01,0,.01,0,.006,0,.014,0h0a.2.2,0,0,0,.052.007h.736a.2.2,0,0,0,.2-.2v-4.575a.2.2,0,0,0-.2-.2" transform="translate(-409.861 -283.813)" fill="#0068b7"/>
          <path id="パス_96" data-name="パス 96" d="M394.539,287.651h-2v-3.633a.2.2,0,0,0-.2-.2H391.6a.2.2,0,0,0-.2.2v4.575h0a.2.2,0,0,0,.057.141l0,0,0,0a.2.2,0,0,0,.141.057h2.943a.2.2,0,0,0,.2-.2v-.737a.2.2,0,0,0-.2-.2" transform="translate(-391.392 -283.813)" fill="#0068b7"/>
          <path id="パス_97" data-name="パス 97" d="M439.944,284.959a.2.2,0,0,0,.2-.2v-.736a.2.2,0,0,0-.2-.2H437a.2.2,0,0,0-.142.058l0,0,0,0a.2.2,0,0,0-.057.141h0v4.574h0a.2.2,0,0,0,.057.141l0,0,0,0a.2.2,0,0,0,.141.057h2.943a.2.2,0,0,0,.2-.2v-.737a.2.2,0,0,0-.2-.2h-2v-.773h2a.2.2,0,0,0,.2-.2v-.736a.2.2,0,0,0-.2-.2h-2v-.773Z" transform="translate(-425.885 -283.813)" fill="#0068b7"/>
        </g>
      </g>
    </g>
  </g>
</svg>
