<svg xmlns="http://www.w3.org/2000/svg" viewBox="0 0 369.06 52.27"><defs><style>.cls-1{fill:#f0e326;}.cls-2{fill:#005ca7;stroke:#005ca7;stroke-width:0.5px;}</style></defs><g id="レイヤー_2" data-name="レイヤー 2"><g id="文字"><path id="パス_875" data-name="パス 875" class="cls-1" d="M6.83,21.36H369.06l-6.83,30.91H0Z"/><path class="cls-2" d="M60.63,3.89l-.37,4.33-34.61.1-.85,10-4.33,25-4.36,0,4.35-25.27L21.65,4,40.26,4,40.52.88h4.36l-.26,3.07ZM37.76,11.35l-4.84,8.84L31,43.37H26.54l1.45-17H24.73l8.22-15Zm22.65,6.19-.36,4.33H54.69L52.88,43.3l-4.36,0,1.81-21.43-14.24,0,.36-4.33,14.25,0,.53-6.24,4.36,0-.53,6.25ZM38.09,27,43,27l2.74,7.39H40.83Z"/><path class="cls-2" d="M65.42,43.87,66.7,28.75l12.64,0L78.06,43.84ZM67,12.37l.31-3.73,14.74,0-.31,3.73Zm.75,13.25.3-3.56,11,0-.3,3.56ZM79.64,15.4,79.33,19l-11,0,.3-3.62Zm-9.7,16.79-.7,8.22h5.63l.7-8.22ZM80.33,2,80,5.65l-10,0,.3-3.62Zm29.5,29-6.9,0,.83,2.58.43-.44,5,0L105,37.35l2.42,7.34h-4l-1.35-4.33-2,2-4.92,0,5.62-5.77L99,31,90,31l-.27,3.18,2.81-.67-.31,3.73-2.82.66-.52,6.2H85.26l.45-5.26-5,1.22L81,36.38l5-1.22.35-4.11-5.57,0,.31-3.73,5.58,0,.17-2-3.62.39L83.55,22,94,20.78l-.31,3.68-3.18.39-.21,2.46,7.45,0L96,22h4l1.71,5.25,8.39,0Zm.82-14.79-.28,3.23L82,19.5l.27-3.23,12.31,0,.22-2.58-9.5,0,.28-3.24,9.49,0L95.28,8,84.07,8l.28-3.29h6.08L89.37,1.57h4l1,3.12,5.63,0,1.7-3.13h4l-1.7,3.13,6.52,0-.28,3.29L99,8l-.21,2.47,9.44,0L108,13.62l-9.44,0-.22,2.57Zm-6.36,8.57L102.48,22h4.58l1.87,2.73Z"/><path class="cls-2" d="M139.27,6.09l-16.42,13.3-6.73,0L139.75.33l19.92,19-6.57,0ZM118.59,29.26l.37-4.33,37.32-.1-.37,4.33-22,.06-4.62,8.29,15.85-.76-1.21-4h4.75l3.41,11.88h-4.75l-1-3.56-24.61,1.22,7.34-13.06ZM127.65,20l.36-4.16,19.93-.06L147.58,20Z"/><path class="cls-2" d="M206.75,38.28l-41.07.11.39-4.71,41.08-.12ZM204.3,13.79l-32,.09.4-4.76,32-.09Z"/><path class="cls-2" d="M228.25,14.49l19.38-.05L244.35,36.8l6.08,0L250.07,41,222.75,41l.35-4.16,17.06,0,2.7-18.25-15,0Z"/><path class="cls-2" d="M306,24.47l-38.43.11.39-4.61,38.43-.11Z"/><path class="cls-2" d="M322.36,4.1,355.76,4,340.63,22.29l14.21,21.27-5.8,0L337.43,26.19,323,43.65l-5.74,0L346.32,8.52,322,8.59Z"/></g></g></svg>