<svg xmlns="http://www.w3.org/2000/svg" viewBox="0 0 211.7 50.7"><defs><style>.cls-1{fill:#f0e326;}.cls-2{fill:#005ca7;stroke:#005ca7;stroke-width:0.5px;}</style></defs><g id="レイヤー_2" data-name="レイヤー 2"><g id="文字"><path id="パス_875" data-name="パス 875" class="cls-1" d="M6.83,19.79H211.7L204.87,50.7H0Z"/><path class="cls-2" d="M11.38,43.91l1.28-15.12,12.64,0L24,43.87ZM13,12.41l.32-3.73,14.74,0-.32,3.72Zm.76,13.25.3-3.56,11,0-.3,3.56ZM25.6,15.44l-.3,3.61-11,0,.31-3.61ZM15.9,32.23l-.69,8.22,5.63,0,.69-8.22ZM26.3,2.07,26,5.68l-10,0,.31-3.61ZM55.8,31l-6.9,0,.83,2.57.42-.44h5L51,37.39l2.41,7.33-4,0-1.34-4.33-2,2H41.15l5.62-5.77-1.85-5.58-8.94,0-.27,3.18,2.82-.67-.32,3.73L35.4,38l-.53,6.19H31.23l.44-5.26-5,1.22L27,36.42l5-1.22.35-4.11H26.76l.32-3.72,5.57,0,.17-2-3.62.4.31-3.67L40,20.82l-.32,3.67-3.17.39-.21,2.47,7.45,0L42,22.08l4,0,1.7,5.26,8.4,0Zm.81-14.79-.27,3.23L28,19.54l.28-3.23,12.31,0,.21-2.57-9.49,0,.27-3.23,9.5,0L41.25,8,30,8l.28-3.29,6.07,0L35.33,1.61l4,0,1,3.12H46l1.7-3.13h4L50,4.69l6.51,0L56.26,8,45,8l-.21,2.46,9.44,0L54,13.66l-9.44,0-.22,2.57Zm-6.35,8.56-1.81-2.73L53,22l1.86,2.74Z"/><path class="cls-2" d="M85.23,6.12,68.82,19.43l-6.74,0L85.72.37l19.92,19-6.57,0ZM64.56,29.3,64.93,25l37.31-.1-.36,4.33-22,.06-4.62,8.28,15.85-.76-1.21-4h4.75l3.41,11.88H93.34l-1-3.56-24.6,1.22,7.34-13.06Zm9.06-9.23L74,15.91l19.93-.06L93.55,20Z"/><path class="cls-2" d="M129.58,16.9l-2.41,6.31h4.31L131.16,27l-7.84,0-.44,5.2h6L128.52,36l-6,0-.71,8.38H118l.71-8.38h-6l.32-3.78h6l.44-5.21-7.84,0,.32-3.78,11.54,0,2.3-6.31ZM124.84,9l-.28,3.34,8.17,0-.33,3.83-20.15.06.33-3.84,8.17,0L121,9l-7,0,.32-3.78,7,0,.31-3.62h3.81l-.31,3.61h7L131.79,9Zm-6.58,7.9.85,5.7h-3.7l-.85-5.7Zm35.81,26.2h-4.69l-3.17-5-3.62,5h-4.47l6.08-8.56-3.91-13.85h-1.38l-2,23.51h-3.7l3.54-41.81,18.44-.05-2.08,8.94h-3.64l1.17-5.32-10.49,0L139.23,17l14.63,0-5.2,17.77Zm-5.28-22.39h-4.41l2.22,7.66Z"/><path class="cls-2" d="M185.76,19l17.06,0-.38,4.44-38.64.11.37-4.44L181.23,19l.66-7.72-10.44,0-1.94,4-5.13,0L170.8,2.05h5.14l-2.28,4.71,8.61,0,.55-6.47h4.53l-.55,6.47,14.63,0L201,11.23l-14.63,0ZM166.56,43.7l1.35-16,29.7-.08-1.35,16Zm5.5-11.52-.6,7,20.65-.06.6-7Z"/></g></g></svg>