<svg xmlns="http://www.w3.org/2000/svg" width="427.875" height="104.15" viewBox="0 0 427.875 104.15">
  <g id="グループ_2815" data-name="グループ 2815" transform="translate(-86 -67.5)">
    <path id="パス_3221" data-name="パス 3221" d="M18.3-62.55c-.375,4.725-.525,7.05-1.125,13.275H4.8v11.4l10.575-.075C13.8-29.55,10.35-14.325,3-1.875l11.55,5.85c6.675-11.325,10.875-31.8,12.975-42L34.05-38.1c5.1-.075,6.75,2.325,6.75,9.225,0,.675-.3,12.225-2.55,18A4.992,4.992,0,0,1,33-7.575a70.786,70.786,0,0,1-10.125-1.2L23.7,3A89.087,89.087,0,0,0,35.475,4.2a14.009,14.009,0,0,0,11.55-5.25c4.05-5.025,5.4-18.75,5.4-25.5,0-14.55-3.9-22.725-16.575-22.725H29.325C30.075-54.6,30.45-58.5,30.75-61.95ZM72.75-20.925C71.775-35.4,68.7-45.45,61.35-55.5L51-50.475c4.125,5.775,8.775,13.875,9.225,31.65Zm53.1-22.05a58.228,58.228,0,0,0-7.05-11.85L112.275-51.6c4.725,7.65,5.7,9.975,6.675,12.6Zm10.5-5.475a40.7,40.7,0,0,0-7.2-11.4l-6.375,3.15a69.208,69.208,0,0,1,6.975,11.85ZM82.95-61.2c.075,4.875-.225,28.65-.225,34.05,0,15.3.3,31.2,24.375,31.2,6.525,0,25.875,0,32.175-29.85l-11.1-4.95C124.8-9.525,113.7-7.875,107.4-7.875c-9.375,0-12.525-3.975-12.525-14.325,0-6.375.675-33.6.975-38.85ZM176.775,3.3A65.412,65.412,0,0,0,195.3-.075C204-3.225,212.625-11.7,212.625-25.5c0-12.225-7.575-24.6-23.175-24.6-9.9,0-17.1,5.025-20.1,7.275a19.122,19.122,0,0,1,1.35-2.1V-51.3h-1.65l.525-10.125h-12v10.2h-10.95v11.4l10.8-.225v6.525c-6.6,9.3-9.9,12.15-13.05,14.7l5.55,12.6A41.047,41.047,0,0,0,157.2-16.2l-.15,20.475h12L168.9-30.45c3-2.775,9.75-8.625,18.525-8.625,4.05,0,12.825,1.275,12.825,13.125,0,15.975-13.5,17.4-26.625,18.3Zm94.95-61.05c-15.225-4.35-30.15-4.65-34.35-4.725L235.35-51.45c7.425.3,24.45,2.4,33.6,6.075ZM226.2-49.125c-.525,3.45-1.725,11.25-1.8,31.35l11.85.375v-2.175c5.25-5.4,13.725-8.4,21.225-8.4,1.8,0,10.65.45,10.65,8.55C268.125-12,262.575-6.9,241.2-6.9c-4.05,0-9.675-.15-17.325-.9l2.25,11.775c3,.15,4.575.225,11.475.225,22.05,0,28.05-2.625,31.65-4.425,6.375-3.225,11.7-8.85,11.7-18.9,0-10.5-7.5-19.35-21.225-19.35-1.275,0-13.125,0-23.25,6.45A102.319,102.319,0,0,1,238.35-48.3ZM290.325,7.65c17.25-4.8,26.025-12.6,30.075-18.75A36.549,36.549,0,0,0,332.325.375a45.554,45.554,0,0,0,18.45,6.675l6-11.7c-17.4-1.35-22.575-6.225-25.35-8.85h24.15V-24.075H348V-42.75H325.8V-46.8H314.7v4.05H292.5v18.675h-7.575V-13.5H308.55c-3.225,3-10.725,7.5-24.525,9.3ZM325.8-32.925h11.1v8.85H325.35A29.521,29.521,0,0,0,325.8-30ZM314.7-28.5a22.151,22.151,0,0,1-.45,4.425h-10.8v-8.85H314.7ZM298.95-59.4H284.925v10.725H298.95v4.05H309.9v-4.05h20.475v4.05H341.55v-4.05h14.025V-59.4H341.55v-4.725H330.375V-59.4H309.9v-4.725H298.95Zm91.125,8.625v3.225h-7.5v8.475H407.55V-47.55H399.9v-3.225h9.375v-8.85H399.9v-4.5h-9.825v4.5h-9.45v7.8H376.5v-12.3H366.375v12.3h-6.75V-41.25H366c-1.2,6.6-3.3,13.35-7.5,18.975l3.825,16.65a72.816,72.816,0,0,0,4.05-11.1V7.05H376.5V-23.4c1.2,2.775,1.8,3.75,2.55,5.25l3.525-6.825v8.85H407.55v-13.8A79.484,79.484,0,0,1,411.75-15l5.775-2.1v9.45c0,3,0,3.075-2.55,3.075h-5.25L411.3,7.05h10.05c6.675,0,6.75-5.325,6.75-8.025v-38.7h2.775V-50.55H428.1V-64.125H417.525V-50.55h-8.4v10.875h8.4V-28.5a43.41,43.41,0,0,0-3.45-7.95l-6.525,2.475v-2.7H382.575v8.1A43.635,43.635,0,0,1,376.5-39v-2.25h4.425v-9.525Zm8.1,22.125v4.425h-6.6V-28.65ZM379.95,6.825C386.1,6.3,402.225,4.2,409.5,2.85l-.375-9.45a32.232,32.232,0,0,1-3.375.6,80.636,80.636,0,0,0,2.55-7.875l-9.525-1.2a42.682,42.682,0,0,1-2.55,10.35c-1.575.15-1.725.15-2.175.225a58.045,58.045,0,0,0-3.375-10.35l-8.7,1.425A70.152,70.152,0,0,1,384.9-3.75c-3.15.3-4.5.3-6.375.375Z" transform="translate(83 164)" fill="#0068b7"/>
    <path id="パス_3220" data-name="パス 3220" d="M23.5-18.775H14v-2.4H10.85v2.4H1.475v2.825H23.5ZM5-5.25A15.261,15.261,0,0,1,.775-.45,21.612,21.612,0,0,1,3.2,1.275a22.662,22.662,0,0,0,4.85-5.55Zm2.3-6.4H17.7v2.875H7.3ZM20.85-6.225V-14.2H4.325v7.975H10.9V-1.05c0,.325-.1.4-.55.425-.4.025-1.975,0-3.25-.05a11.938,11.938,0,0,1,.95,2.85,13.616,13.616,0,0,0,4.575-.45C13.725,1.3,14,.55,14-.95V-6.225ZM16.725-3.95A37.606,37.606,0,0,1,21.05,1.5L23.975.025A39.585,39.585,0,0,0,19.45-5.25Zm15.75-9.975v-2.05H34.35c-.45.725-.9,1.4-1.375,2.05Zm1.95,8.375H30.4v-1.6h4.025Zm-4.025,4V-3.325h4.025V-1.55ZM46.55-19.9l-.45.1H38.9v.475l-2.625-.725a23.662,23.662,0,0,1-1.225,2.8v-1.275H32.475V-20.95h-2.75v2.425H26.45v2.55h3.275v2.05h-4.35v2.6H30.7A23.154,23.154,0,0,1,24.725-7.2,15.28,15.28,0,0,1,26.45-4.725c.4-.225.825-.475,1.25-.75V2.1h2.7V.825h4.025v.95H37.25V-9.5h-4.5c.55-.6,1.075-1.175,1.6-1.825h3.725v-2.6h-1.85A30.3,30.3,0,0,0,38.9-19.25V2.15h2.925V-17H45c-.625,1.925-1.475,4.45-2.2,6.25a7.192,7.192,0,0,1,2.575,5.125c0,.825-.175,1.425-.65,1.7a2.04,2.04,0,0,1-1,.225,11.742,11.742,0,0,1-1.575-.05A7.228,7.228,0,0,1,42.9-.875,12.356,12.356,0,0,0,45.075-.9a3.783,3.783,0,0,0,1.75-.675c1-.65,1.4-1.875,1.4-3.75a8.01,8.01,0,0,0-2.55-5.8C46.7-13.325,47.8-16.15,48.7-18.55Zm11.875,4.125a17.938,17.938,0,0,1-4.15,6.55c.025-.925.05-1.8.05-2.575v-4.075H72.65v-2.75H63.575V-21.15h-3.1v2.525h-9.05v6.8c0,3.65-.175,8.85-2.125,12.45a11.423,11.423,0,0,1,2.55,1.65C53.3-.375,53.925-4.05,54.175-7.4c.375.45.725.9.975,1.225A14.5,14.5,0,0,0,56.725-7.65V2.125h2.8v-13.5a28.658,28.658,0,0,0,1.825-3.6ZM61.05-7.5a21.849,21.849,0,0,1,2.375,4.8l2.5-1.125a20.326,20.326,0,0,0-2.5-4.65Zm11.725-4.8H70.25v-3.1H67.375v3.1h-6.45v2.75h6.45v8.475c0,.375-.15.5-.55.5-.45,0-1.85,0-3.175-.05a10.733,10.733,0,0,1,.9,2.85,11.011,11.011,0,0,0,4.425-.5C69.95,1.25,70.25.5,70.25-1.05v-8.5h2.525Zm15.4-3.675h-4.45V-14.1h4.45v1H82.15v2.125h14.9V-13.1H91.025v-1h4.75v-1.875h-4.75V-16.9H96.55v-1.975h-2.7c.35-.5.75-1.075,1.175-1.675l-2.6-.625a13.867,13.867,0,0,1-1.125,2.3H88.225a11.08,11.08,0,0,0-1.425-2.3l-2.1.725a16.441,16.441,0,0,1,.95,1.575H82.925V-16.9h5.25ZM81.525-20.4h-6.4v2.25h6.4Zm.675,3.35H73.95v2.35H82.2ZM79.175-4.375V-1.5H77.2V-4.375ZM81.55-6.7H74.9V1.825h2.3v-1h4.35ZM74.975-7.925H81.6V-10.15H74.975Zm0-3.375H81.6v-2.275H74.975ZM87.8-7.125V-8.55c.75-.15,1.475-.3,2.125-.475.025.65.05,1.3.1,1.9Zm6.375,2.45a8.875,8.875,0,0,1-1.2,1.55c-.125-.55-.25-1.15-.35-1.85h4.4v-2.15H95.25L96.875-8.3a11.575,11.575,0,0,0-2.55-2.3l-1.7,1.175A10.991,10.991,0,0,1,95-7.125H92.425c-.05-1-.075-2.125-.075-3.325H89.875c0,.475.025.95.05,1.425L88.4-10.775a33.478,33.478,0,0,1-6.075,1.05A7.364,7.364,0,0,1,82.9-8c.75-.05,1.525-.1,2.325-.2v1.075H82.1v2.15h3.125v1.2c-1.225.1-2.325.2-3.275.275l.275,2.275c.9-.1,1.925-.2,3-.35v1.3c0,.275-.1.35-.4.375C84.55.1,83.6.1,82.75.075a8.378,8.378,0,0,1,.725,2.1,9.5,9.5,0,0,0,3.35-.35c.75-.35.975-.875.975-2.025V-1.875l2.05-.25-.05-2.1-2,.2v-.95h2.425a20.8,20.8,0,0,0,.75,3.575A16.076,16.076,0,0,1,87.85.325a9.107,9.107,0,0,1,1.425,1.55A18.183,18.183,0,0,0,91.825.5a3.4,3.4,0,0,0,2.95,1.775C96.325,2.275,97.1,1.4,97.45-1a6.42,6.42,0,0,1-1.7-1.025c-.075,1.35-.325,2-.7,2a1.615,1.615,0,0,1-1.3-.95A13.753,13.753,0,0,0,96.175-3.7Zm11.225-9a22.719,22.719,0,0,0,4.575-4.625,24.331,24.331,0,0,0,4.8,4.625Zm-1.225,2.725H115.85v-1.975a30.21,30.21,0,0,0,4.2,2.425,15.409,15.409,0,0,1,1.925-2.725A22.868,22.868,0,0,1,111.4-21.15h-3.1a24.66,24.66,0,0,1-10.1,8.375,11.614,11.614,0,0,1,1.75,2.5,28.866,28.866,0,0,0,4.225-2.5ZM99.75-6.125h5.8a48.011,48.011,0,0,1-1.9,4.525l-3.775.125.4,2.9c4.25-.2,10.425-.45,16.3-.775a13.253,13.253,0,0,1,1,1.55L120.35.525A33.623,33.623,0,0,0,114.625-5.9L112-4.525a29.8,29.8,0,0,1,2.45,2.55c-2.55.1-5.125.2-7.525.275.75-1.4,1.575-2.95,2.3-4.425h11.2v-2.75H99.75Zm37.175-9.85h-4.45V-14.1h4.45v1H130.9v2.125h14.9V-13.1h-6.025v-1h4.75v-1.875h-4.75V-16.9H145.3v-1.975h-2.7c.35-.5.75-1.075,1.175-1.675l-2.6-.625a13.867,13.867,0,0,1-1.125,2.3h-3.075a11.08,11.08,0,0,0-1.425-2.3l-2.1.725a16.441,16.441,0,0,1,.95,1.575h-2.725V-16.9h5.25Zm-6.65-4.425h-6.4v2.25h6.4Zm.675,3.35H122.7v2.35h8.25ZM127.925-4.375V-1.5H125.95V-4.375ZM130.3-6.7h-6.65V1.825h2.3v-1h4.35Zm-6.575-1.225h6.625V-10.15h-6.625Zm0-3.375h6.625v-2.275h-6.625ZM136.55-7.125V-8.55c.75-.15,1.475-.3,2.125-.475.025.65.05,1.3.1,1.9Zm6.375,2.45a8.875,8.875,0,0,1-1.2,1.55c-.125-.55-.25-1.15-.35-1.85h4.4v-2.15H144L145.625-8.3a11.575,11.575,0,0,0-2.55-2.3l-1.7,1.175a10.991,10.991,0,0,1,2.375,2.3h-2.575c-.05-1-.075-2.125-.075-3.325h-2.475c0,.475.025.95.05,1.425l-1.525-1.75a33.478,33.478,0,0,1-6.075,1.05A7.364,7.364,0,0,1,131.65-8c.75-.05,1.525-.1,2.325-.2v1.075H130.85v2.15h3.125v1.2c-1.225.1-2.325.2-3.275.275l.275,2.275c.9-.1,1.925-.2,3-.35v1.3c0,.275-.1.35-.4.375C133.3.1,132.35.1,131.5.075a8.378,8.378,0,0,1,.725,2.1,9.5,9.5,0,0,0,3.35-.35c.75-.35.975-.875.975-2.025V-1.875l2.05-.25-.05-2.1-2,.2v-.95h2.425a20.8,20.8,0,0,0,.75,3.575A16.076,16.076,0,0,1,136.6.325a9.107,9.107,0,0,1,1.425,1.55A18.183,18.183,0,0,0,140.575.5a3.4,3.4,0,0,0,2.95,1.775c1.55,0,2.325-.875,2.675-3.275a6.42,6.42,0,0,1-1.7-1.025c-.075,1.35-.325,2-.7,2a1.615,1.615,0,0,1-1.3-.95A13.754,13.754,0,0,0,144.925-3.7ZM163.85-16.45h-10.1v-1.625h10.1Zm3.175-3.95H150.75v6.25h16.275ZM152.575-5.275h12.25v1.1h-12.25Zm0-2.975h12.25v1.075h-12.25Zm0-2.95h12.25v1.075h-12.25ZM167.9-2.15V-13.225H149.625V-2.15H153.5a30.537,30.537,0,0,1-6.4,2.2,26.152,26.152,0,0,1,2.25,2.125,33.311,33.311,0,0,0,7.75-3L155.2-2.15h6.775L159.9-.675a66.542,66.542,0,0,1,8.025,2.9l2.625-2.1c-1.725-.675-4.275-1.575-6.6-2.275ZM192.125,2.5,194.5,1.45A15.531,15.531,0,0,1,190.025-9.5,15.532,15.532,0,0,1,194.5-20.45l-2.375-1.05a16.474,16.474,0,0,0-4.925,12A16.474,16.474,0,0,0,192.125,2.5Zm22.5-17.675V-2.85H208.95V-20.5h-3.1V-2.85h-5.425V-15.125h-3.05v17h3.05V.225h14.2V1.8h3.1V-15.175Zm22.575-.9a19.961,19.961,0,0,0-3.85-3.6l-1.95,1.7a18.754,18.754,0,0,1,3.725,3.75Zm-.7,6.55a22.028,22.028,0,0,0-4.1-3.625l-1.9,1.7a22.521,22.521,0,0,1,3.975,3.825Zm-6.325,1.95c-.475-.575-2.525-2.925-3.25-3.625v-.2h3.3v-2.775h-3.3V-17.6a22.292,22.292,0,0,0,3.225-.925l-1.675-2.425a38.123,38.123,0,0,1-8.05,2.05,8.995,8.995,0,0,1,.8,2.3c.925-.1,1.85-.25,2.825-.4v2.825h-3.775V-11.4h3.375a23.448,23.448,0,0,1-3.7,6.7,16.4,16.4,0,0,1,1.375,2.825,23.267,23.267,0,0,0,2.725-4.95v9h2.875V-7.975a27.088,27.088,0,0,1,1.5,2.75Zm13.525,2.9-.475-2.775-2.475.425v-14.15h-2.925v14.65L229.8-5.15l.475,2.825,7.55-1.3V2.15h2.925v-6.3Zm24,2.825H248.8V-17h18.325v-2.85h-21.3V2.175H248.8V1h18.9Zm-2.9-3.475a32.291,32.291,0,0,0-4.75-4.55,34.961,34.961,0,0,0,3.675-5.8L260.8-16.65a27.408,27.408,0,0,1-3.1,4.95c-1.675-1.25-3.425-2.425-5.025-3.4L250.6-13.225a56.328,56.328,0,0,1,5.2,3.75,26.254,26.254,0,0,1-6.1,4.75,22.849,22.849,0,0,1,2.325,2.35,32.316,32.316,0,0,0,6.05-5.2A32.682,32.682,0,0,1,262.45-3.1ZM271.625-21.5l-2.375,1.05A15.532,15.532,0,0,1,273.725-9.5,15.531,15.531,0,0,1,269.25,1.45l2.375,1.05a16.474,16.474,0,0,0,4.925-12A16.474,16.474,0,0,0,271.625-21.5Z" transform="translate(85.225 89)" fill="#0068b7"/>
  </g>
</svg>
