<svg xmlns="http://www.w3.org/2000/svg" width="176.908" height="43.665" viewBox="0 0 176.908 43.665">
  <g id="グループ_2818" data-name="グループ 2818" transform="translate(-709.709 -1068.689)">
    <path id="パス_3074" data-name="パス 3074" d="M-3.6,2.41h169.02l-7.888,31.781H-11.489Z" transform="translate(721.198 1078.163)" fill="#faec00"/>
    <g id="グループ_2732" data-name="グループ 2732" transform="translate(806.227 1288.521)">
      <g id="グループ_2731" data-name="グループ 2731" transform="translate(-85.348 -219.582)">
        <path id="パス_3070" data-name="パス 3070" d="M-70.858-205.33h11.766l6.3,5.863-1.241,7.892a7.056,7.056,0,0,1-6.724,5.774h-5.677l.525-3.338h5.679a2.722,2.722,0,0,0,2.627-2.254L-56.6-197.8l-4.513-4.239H-71.377l-2.32,14.748-2.095,1.76h-4.361l-5.2-5.1.915-5.818,9.946-7.486,1.057-6.721h-7.5l.518-3.293h7.5l.886-5.637h3.408l-.887,5.637h9.995l-.518,3.293h-9.995Zm-10.331,10.508-.4,2.571,3.311,3.2h1.454l1.617-10.282Zm25.077-19.349,5.682,3.157-.617,3.924-5.689-3.112Z" transform="translate(85.348 219.582)" fill="#0068b7" stroke="#0068b7" stroke-width="0.5"/>
        <path id="パス_3071" data-name="パス 3071" d="M-31.361-200.6h-5.5l3.757,11.637h-4l-2.655-8.253-6.088,12.131H-49.7l7.847-15.515H-47.9l.567-3.608H-40.7l1.08-6.855h-3.044l-2.079,4.556h-3.725l5.672-12.674h3.817l-2.079,4.555h11.039l-.56,3.564h-5.452l-1.078,6.855h6.315Zm4.716-13.8h14.9l-4.166,26.474h-14.9Zm7.792,22.956,3.058-19.439h-7.815l-3.058,19.439Z" transform="translate(90.04 219.634)" fill="#0068b7" stroke="#0068b7" stroke-width="0.5"/>
        <path id="パス_3072" data-name="パス 3072" d="M15.982-205.21l2.7,3.653L16.954-190.6a7.115,7.115,0,0,1-6.776,5.818H-.089l.575-3.653H10.752A2.652,2.652,0,0,0,13.32-190.6l1.505-9.561L13.779-201.6H1.649l-3.629,3.428-4.387,6.81h-4.544l3.023-19.213h3.454l-2.192,13.936,2.778-4.375,4.43-4.194Zm-7.414-9.472.106-.676H.723l.54-3.428H12.62l-.866,5.5L9.81-211.614H4.9Z" transform="translate(95.147 219.687)" fill="#0068b7" stroke="#0068b7" stroke-width="0.5"/>
        <path id="パス_3073" data-name="パス 3073" d="M26.6-191.466l2.348-14.929h-6.9l.539-3.427h6.905l1.108-7.037H34.14l-1.107,7.037H46.345l1.233-7.848h3.544l-1.235,7.848h6.406l-.54,3.427H49.349l-1.384,8.8-3.2,2.751H40.717l.555-3.518h2.589l.789-.676,1.155-7.352H32.493l-2.363,15.018a1.87,1.87,0,0,0,1.917,2.255h16.99l-.539,3.428H31.508A4.815,4.815,0,0,1,26.6-191.466Z" transform="translate(99.485 219.834)" fill="#0068b7" stroke="#0068b7" stroke-width="0.5"/>
      </g>
    </g>
  </g>
</svg>
