<svg xmlns="http://www.w3.org/2000/svg" width="417" height="65" viewBox="0 0 417 65">
  <g id="グループ_2827" data-name="グループ 2827" transform="translate(-851 -2110)">
    <rect id="長方形_113" data-name="長方形 113" width="417" height="65" transform="translate(851 2110)" fill="#f2901d"/>
    <path id="パス_3230" data-name="パス 3230" d="M4.06-.9H1.653V-20.474H4.06Zm13.369,0H15.254V-12.992H9.512V-.9H7.366V-15.167h7.482a2.587,2.587,0,0,1,2.581,2.581Zm3.306,0V-3.016H28.42V-7.772H20.909v-7.395H30.8v2.117H23.229v2.871H30.74v6.7A2.587,2.587,0,0,1,28.159-.9ZM34.51-13.05H32.973v-2.117H34.51v-4.9h2.32v4.9H39.9v2.117H36.83V-2.958h3.48V-.9H37.091A2.587,2.587,0,0,1,34.51-3.48Zm17.2,9.57A2.584,2.584,0,0,1,49.242-.9H41.963v-9.28h7.424V-13.05H42.224v-2.117h9.483ZM44.2-8.062v5.1h5.191v-5.1ZM62.176,4.292A2.575,2.575,0,0,0,64.728,1.74V-15.167H55.013V-.928h7.424V2.2H55.1V4.292Zm-4.93-7.279V-13.079h5.191V-2.987ZM68.034-.9V-15.167H75.6v2.117H70.354V-.9ZM87-3.48A2.584,2.584,0,0,1,84.535-.9H77.256v-9.28H84.68V-13.05H77.517v-2.117H87ZM79.489-8.062v5.1H84.68v-5.1ZM105.792-.9h-2.2V-12.992H99.064V-1.305H96.918V-12.992H92.481V-.9H90.306V-15.167h12.9a2.587,2.587,0,0,1,2.581,2.581Z" transform="translate(1021.5 2154)" fill="#fff" stroke="#fff" stroke-width="0.5"/>
    <g id="グループ_2267" data-name="グループ 2267" transform="translate(963.921 2124.099)">
      <path id="パス_90" data-name="パス 90" d="M18.815,6.734c3.935,0,4.4.015,5.955.086a8.157,8.157,0,0,1,2.736.507,4.88,4.88,0,0,1,2.8,2.8,8.156,8.156,0,0,1,.507,2.736c.071,1.554.086,2.02.086,5.955s-.015,4.4-.086,5.955a8.157,8.157,0,0,1-.507,2.736,4.88,4.88,0,0,1-2.8,2.8,8.157,8.157,0,0,1-2.736.507c-1.554.071-2.02.086-5.955.086s-4.4-.015-5.955-.086a8.156,8.156,0,0,1-2.736-.507,4.88,4.88,0,0,1-2.8-2.8A8.156,8.156,0,0,1,6.82,24.77c-.071-1.554-.086-2.02-.086-5.955s.015-4.4.086-5.955a8.156,8.156,0,0,1,.507-2.736,4.88,4.88,0,0,1,2.8-2.8,8.156,8.156,0,0,1,2.736-.507c1.554-.071,2.02-.086,5.955-.086m0-2.655c-4,0-4.5.017-6.076.089a10.817,10.817,0,0,0-3.577.685,7.535,7.535,0,0,0-4.31,4.31,10.817,10.817,0,0,0-.685,3.577c-.072,1.572-.089,2.074-.089,6.076s.017,4.5.089,6.076a10.817,10.817,0,0,0,.685,3.577,7.535,7.535,0,0,0,4.31,4.31,10.817,10.817,0,0,0,3.577.685c1.572.072,2.074.089,6.076.089s4.5-.017,6.076-.089a10.817,10.817,0,0,0,3.577-.685,7.535,7.535,0,0,0,4.31-4.31,10.817,10.817,0,0,0,.685-3.577c.072-1.572.089-2.074.089-6.076s-.017-4.5-.089-6.076a10.817,10.817,0,0,0-.685-3.577,7.535,7.535,0,0,0-4.31-4.31,10.817,10.817,0,0,0-3.577-.685c-1.572-.072-2.074-.089-6.076-.089Z" transform="translate(0 0)" fill="#fff"/>
      <path id="パス_91" data-name="パス 91" d="M134.2,126.635a7.567,7.567,0,1,0,7.567,7.567A7.567,7.567,0,0,0,134.2,126.635Zm0,12.479a4.912,4.912,0,1,1,4.912-4.912A4.912,4.912,0,0,1,134.2,139.114Z" transform="translate(-115.387 -115.387)" fill="#fff"/>
      <circle id="楕円形_1" data-name="楕円形 1" cx="1.768" cy="1.768" r="1.768" transform="translate(24.913 9.181)" fill="#fff"/>
    </g>
  </g>
</svg>
