<svg xmlns="http://www.w3.org/2000/svg" viewBox="0 0 476.4 240.06"><defs><style>.cls-1{fill:#ffb301;}.cls-2{fill:#0a256e;}</style></defs><g id="レイヤー_2" data-name="レイヤー 2"><g id="データ"><rect class="cls-1" x="246.41" y="14.15" width="215.85" height="211.77"/><path class="cls-2" d="M0,0V240.06H476.4V0ZM462.25,225.91H246.41V14.15H462.25Z"/><path class="cls-1" d="M67,184.31H83V173.25H65.79c0-1.13-.18-2.23-.14-3.49H81.18V145.89H26.9v47.5l-3.26.41v13.26l29.76-5.38-1.33-11.43-12,1.49v-7.43H54c1.4,9.92,8.27,21.05,23.86,21.28a17.53,17.53,0,0,0,3.58-.22l2.69-11.3C75.78,195.31,68.79,192.82,67,184.31ZM40.1,173.25v-3.49H52.48c0,1.11.06,2.22.12,3.49Zm0-13.73v-3.39H68.92v3.39Z"/><path class="cls-1" d="M131.68,184.11h19.4V171.93h-19.4v-6.85h20.55V152.9H132.49l2.36-3.64-17.69-11.59-7,10.69,7,4.54H95.45v12.18H116v6.85H96.61v12.18H116v8.76H94.29v12.18h59.1V192.87H131.68Z"/><path class="cls-1" d="M216.18,183.4V168.77h5.71V150.31H214.4l1.87-5.95-12.16-3.83L201,150.31h-2.6v-10.7H186.05v10.7H184.3l-3.07-9.78-12.16,3.83,1.87,5.95H163v18.46h5.71v17.58h7.79s-3.82,7.12-15.66,6.85c3.26,7.05,6.27,13.07,6.27,13.07s20.35-4.81,22.62-19.92h4.55v11.42c0,3.47,1,7.33,7.67,7.87a66.81,66.81,0,0,0,15.1-.24c4-.93,7.38-3,7.34-20.38C220.38,184.23,218,183.71,216.18,183.4Zm-41.44-20v-3H210v3Zm29.14,13.14h-23v-3.35h23Zm7.84,13c0,2.71-.51,4.13-2.6,4.13-2.59,0-3.1-.63-3.1-4.13v-3.38h5.66C211.75,187.65,211.72,188.81,211.72,189.62Z"/><path class="cls-1" d="M197.26,91.59h24.63v-17h-26.4c-.07-1.74-.28-3.43-.23-5.36h23.86V32.61H135.79v72.92l-5,.62v20.37l45.69-8.26-2-17.55L156,103V91.59h21.28c2.15,15.22,12.7,32.31,36.63,32.67a27,27,0,0,0,5.5-.33l4.13-17.36C210.82,108.47,200.09,104.65,197.26,91.59ZM156,74.61V69.25h19c0,1.71.09,3.41.18,5.36Zm0-21.07V48.33h44.26v5.21Z"/><path class="cls-1" d="M118.62,31.84h-95v94.09h95Zm-18.48,78.47h-58V47.46h58Z"/><path class="cls-1" d="M95.44,92.51l-2.27-8h2.27V71.71H79.35V64.88H95.44V52.05H46.82V64.88h16v6.83h-16V84.54h16v8h-16v12.83H95.44Zm-16.09-8h3.13l2,8H79.35Z"/><path class="cls-2" d="M393,70c0-1.25,3.2-3.5,10.24-9S429.17,40.75,431,39.22L411.45,25.86s-14.67,12.33-28,23.87S368.21,64.67,368.21,70.5s3.13,9.56,13.11,16.21S412,108,418.69,113.12c7.83-6.26,17.8-15.64,17.8-15.64s-27-16.83-33.26-20.36S393,71.21,393,70Z"/><rect class="cls-2" x="279.76" y="37" width="58.07" height="19.54"/><path class="cls-2" d="M425.59,163.53c2.48,25.75-8.28,23.32-8,18.59.38-5.72.53-13-2.3-19.52s-10.89-6.75-15.79-5.74l8.71-27.62h-21l-23,74.87h20.49l7.89-25.27c3.5-5.63,6.71-1.72,6.13,2.24-2.61,17.71,8.77,25.31,21.86,25.31,28,0,23.74-37.24,23.74-37.24S435.68,166.63,425.59,163.53Z"/><path class="cls-2" d="M341.19,162.88a100,100,0,0,0-1.1-18.23H322.62a110.17,110.17,0,0,1,.87,12.49c-2.44-.5-5.57-1.07-8.75-1.41,0,0,.37-8.81-1.65-23.59,0,0-19.8-1.94-38.91.3l1.38,17.43a140.59,140.59,0,0,1,20.4-.52,40.37,40.37,0,0,1,.19,5.83h0c-39.11,2.12-32.28,45.61-8.39,45.61,18.94,0,24.42-18.35,26.12-26.66a44,44,0,0,1,7.84,1.05c-2.68,13.15-6.61,19.47-16,29.44,8.62,0,14.67,0,23.19,0,0,0,6.29-8.14,9.79-22.66a45.06,45.06,0,0,1,10.53,7.88V168.55S346.92,165.8,341.19,162.88ZM285.8,182.13c-3-3,1.42-11.3,9.82-9.78C293.62,182.81,288.65,185.05,285.8,182.13Z"/><path class="cls-2" d="M301.87,87c-5.94-1.33-7.81-6-1.85-12.39-5-3.64-16.21-10.23-16.21-10.23S255,95.49,293.1,106.58c15.87,4.61,47,0,47,0V87a114.79,114.79,0,0,1-17.56,1.45C312.5,88.48,306.74,88.08,301.87,87Z"/></g></g></svg>