<?xml version="1.0" encoding="UTF-8"?><svg id="_レイヤー_2" xmlns="http://www.w3.org/2000/svg" viewBox="0 0 348.5 182.2"><defs><style>.cls-1{fill:#fff;}.cls-2{fill:#999799;}.cls-3{fill:#c0bfbe;}.cls-4{fill:#231815;}.cls-5{fill:#51afb1;}</style></defs><g id="_レイヤー_1-2"><g><g><g><g><rect class="cls-2" x="102.88" width="16.08" height="40.93"/><rect class="cls-2" x="229.55" width="16.07" height="40.93"/></g><path class="cls-3" d="M14.73,33.88H333.77c8.13,0,14.73,6.6,14.73,14.73v118.86c0,8.13-6.6,14.73-14.73,14.73H14.73c-8.13,0-14.73-6.6-14.73-14.73V48.6c0-8.13,6.6-14.73,14.73-14.73Z"/><path class="cls-1" d="M14.73,171.44c-2.19,0-3.97-1.78-3.97-3.97V48.61c0-2.19,1.78-3.97,3.97-3.97H333.77c2.19,0,3.97,1.78,3.97,3.97v118.86c0,2.19-1.78,3.97-3.97,3.97H14.73Z"/><path class="cls-5" d="M10.76,131.64v35.83c0,2.19,1.78,3.97,3.97,3.97H333.77c2.19,0,3.97-1.78,3.97-3.97v-35.83H10.76Z"/><g><polygon class="cls-1" points="34.14 159.27 20.7 151.51 34.14 143.75 34.14 159.27"/><polygon class="cls-1" points="314.36 143.75 327.8 151.5 314.36 159.26 314.36 143.75"/></g></g><g><path class="cls-4" d="M109.71,88.89v23.63c0,3.66-2.49,5.56-7.31,5.85-.73,.07-1.02-.29-1.32-.95-.29-.88-1.02-1.61-2.27-2.05-1.32-.51-4.1-1.1-8.34-1.76-.66-.15-1.02-.58-1.02-1.32,0-.51,.44-.8,1.17-.73,5.56,.44,9.44,.66,11.63,.66,1.83,0,2.78-.8,2.78-2.34v-20.99h-29.41c-.66,0-1.1-.29-1.32-.95-.15-.51,.22-.88,1.1-.88h29.33v-11.92c0-.73,.44-1.1,1.17-1.1,.95,.07,1.76,.15,2.56,.29,5.34-3.8,9.58-7.46,12.95-10.97h-36.58c-.66,0-1.1-.29-1.32-.88-.22-.58,.22-.95,1.02-.95h36.87l2.49-2.85c.51-.59,1.1-.59,1.68-.15,3.15,2.56,4.75,4.17,4.75,4.97,0,.37-.37,.66-1.02,.88l-2.63,.66c-4.46,3.29-9.58,6.58-15.51,9.88,.73,.29,1.17,.66,1.17,.95,0,.51-1.02,1.17-3,1.9v9.29h20.63l3.58-4.46c.44-.66,1.02-.73,1.61-.15,1.24,1.17,2.56,2.56,3.88,4.17,.44,.51,.51,1.02,.15,1.54-.29,.51-.66,.73-1.32,.73h-28.16Z"/><path class="cls-4" d="M141.01,64.82c-.66,0-1.1-.29-1.32-.88-.22-.59,.22-.95,1.1-.95h28.09v-8.71c0-.73,.44-1.17,1.24-1.1,4.17,.29,6.29,.88,6.29,1.83,0,.66-1.1,1.24-3.29,1.9v6.07h21.36l3.07-4.39c.44-.66,1.02-.73,1.61-.22,1.61,1.46,3,2.93,4.17,4.32,.37,.51,.44,.95,.07,1.54-.22,.44-.58,.58-1.24,.58h-32.41c-3.51,4.46-6.88,8.19-10.02,11.27h2.93c7.83,0,16.75-.51,26.7-1.1-2.63-2.34-5.78-4.54-9.44-6.8-.66-.37-.8-.95-.37-1.54,.15-.29,.58-.29,1.24-.07,12.95,5.34,19.46,10.02,19.46,13.97,0,1.54-.8,2.34-2.34,2.34-.73,0-1.61-.44-2.41-1.46-1.32-1.61-2.71-3.22-4.24-4.68-9.66,1.32-23.99,2.41-42.87,3.51-.51,1.68-1.1,2.56-1.61,2.56-.95,0-1.68-1.76-2.34-5.27-.15-.8,.22-1.24,1.1-1.24,3,0,5.19-.07,6.66-.07l4.9-.07c2.49-3.58,4.68-7.31,6.51-11.34h-22.6Zm45.28,20.26l1.98-2.19c.44-.51,1.02-.59,1.61-.15,2.49,1.68,3.66,2.85,3.66,3.44,0,.29-.22,.66-.66,1.02l-1.54,1.24v24.43c0,3.36-2.12,5.12-6.36,5.34-.73,0-1.02-.37-1.24-1.02-.29-.66-.8-1.17-1.61-1.61-1.32-.66-3.58-1.24-6.88-1.68-.73-.15-1.1-.51-1.1-1.24,0-.58,.44-.88,1.24-.8,3,.29,6.15,.51,9.29,.51,1.54,0,2.27-.73,2.27-2.05v-6.73h-30.5v14.19c0,.73-.37,1.17-1.17,1.17h-2.05c-.73,0-1.1-.44-1.1-1.17v-33.43c0-.8,.51-1.17,1.32-.88,1.02,.37,2.27,.95,3.8,1.61h29.04Zm-29.85,1.83v6.07h30.5v-6.07h-30.5Zm30.5,14.85v-6.95h-30.5v6.95h30.5Z"/><path class="cls-4" d="M259.01,69.35c-1.68,1.32-3.95,1.39-5.71,1.39h-9.95c-.22,0-.51,.07-.66,.22-7.17,6.29-13.9,15.65-13.09,25.38,.88,10.9,11.41,12.44,20.19,12.36,3.36-.15,3.44,4.97,.15,4.97-5.05,.15-9.88-.44-14.56-2.49-5.63-2.41-9.51-7.24-10.17-13.31-1.1-10.39,5.63-20.19,13.68-26.63,.15-.15,.07-.44-.15-.44h-27.21c-2.05,0-1.98-3,0-3h31.38c.15,0,.29-.07,.44-.15,3.58-2.56,7.32-4.97,11.48-6,1.68-.44,3.58-.29,4.75,.88,2.05,1.98,1.46,5.12-.59,6.8Zm-3.73-5.19c-2.85,.44-5.27,1.9-7.68,3.29-.22,.07-.15,.37,.07,.37h6.36c1.02,0,2.41-.37,3-.88,1.83-1.61,.44-3.15-1.76-2.78Z"/></g></g><g><path class="cls-1" d="M139.57,143.58l-3.22,6.28,3.41,10.53h-3.22l-2.33-7.52-1.11,2.14v3.67l.02,1.72h-3.03l.02-1.72v-13.38l-.02-1.72h3.03l-.02,1.72v2.85c0,.56-.02,1.39-.05,1.9h.09c.28-.52,.61-1.2,.89-1.74l2.28-4.73h3.24Z"/><path class="cls-1" d="M143.54,159.71c-.94-.82-1.46-2.14-1.46-5.55v-4.35c0-3.41,.52-4.73,1.46-5.55,.73-.63,1.76-.96,2.99-.96s2.28,.33,3.01,.96c.94,.82,1.46,2.14,1.46,5.55v4.35c0,3.41-.52,4.73-1.46,5.55-.73,.63-1.76,.96-3.01,.96s-2.26-.33-2.99-.96Zm4.42-4.89v-5.67c0-1.74,0-3.06-1.43-3.06s-1.41,1.32-1.41,3.06v5.67c0,1.74,0,3.06,1.41,3.06s1.43-1.32,1.43-3.06Z"/><path class="cls-1" d="M156.83,155.74c.28,1.55,.99,2.14,2,2.14s1.55-.59,1.55-1.46c0-.94-.61-1.83-1.95-2.82l-1.55-1.13c-1.86-1.36-2.66-2.96-2.66-4.73,0-2.61,1.79-4.44,4.56-4.44,2.56,0,4.04,1.55,4.42,4.19l-2.94,.4c-.16-1.13-.64-1.79-1.58-1.79s-1.41,.63-1.41,1.51c0,1.06,.75,1.81,1.98,2.7l1.53,1.11c1.76,1.29,2.66,2.94,2.66,4.84,0,2.7-1.81,4.42-4.63,4.42s-4.49-1.69-4.89-4.54l2.92-.4Z"/><path class="cls-1" d="M167.84,159.71c-.94-.82-1.46-2.14-1.46-5.55v-4.35c0-3.41,.52-4.73,1.46-5.55,.73-.63,1.76-.96,2.99-.96s2.28,.33,3.01,.96c.94,.82,1.46,2.14,1.46,5.55v4.35c0,3.41-.52,4.73-1.46,5.55-.73,.63-1.76,.96-3.01,.96s-2.26-.33-2.99-.96Zm4.42-4.89v-5.67c0-1.74,0-3.06-1.43-3.06s-1.41,1.32-1.41,3.06v5.67c0,1.74,0,3.06,1.41,3.06s1.43-1.32,1.43-3.06Z"/><path class="cls-1" d="M186.11,144.54c1.03,.87,1.46,2.12,1.46,4.77v5.34c0,2.66-.42,3.9-1.46,4.77-.71,.61-1.67,.96-2.89,.96h-4.51l.02-1.72v-13.38l-.02-1.72h4.51c1.22,0,2.19,.35,2.89,.96Zm-4.4,1.67v11.54h1.03c1.39,0,1.79-.92,1.79-2.28v-6.98c0-1.27-.38-2.28-1.79-2.28h-1.03Z"/><path class="cls-1" d="M193.12,160.39h-3.08l3.03-16.81h4.09l3.03,16.81h-3.03l-.56-3.43h-2.94l-.54,3.43Zm.96-6.14h2.09l-.71-4.42c-.12-.8-.24-1.88-.28-2.47h-.14c-.02,.59-.16,1.67-.28,2.47l-.68,4.42Z"/><path class="cls-1" d="M207.25,146.21v12.46l.02,1.72h-3.01l.02-1.72v-12.46h-2.96v-2.63h8.91v2.63h-2.99Z"/><path class="cls-1" d="M216.2,152.96v4.8h4.7v2.63h-7.71l.02-1.72v-13.38l-.02-1.72h7.62v2.63h-4.61v4.07h3.62v2.68h-3.62Z"/></g></g></g></svg>