<?xml version="1.0" encoding="UTF-8"?><svg id="_レイヤー_2" xmlns="http://www.w3.org/2000/svg" viewBox="0 0 215.02 8.43"><defs><style>.cls-1{stroke:#734f29;stroke-width:1.54px;}.cls-1,.cls-2{fill:none;stroke-miterlimit:10;}.cls-2{stroke:#483934;stroke-width:1.23px;}</style></defs><g id="_ベース"><g><g><line class="cls-1" x1="3.08" x2="3.08" y2="8.43"/><line class="cls-1" x1="7.44" x2="7.44" y2="8.43"/><line class="cls-1" x1="11.79" x2="11.79" y2="8.43"/><line class="cls-1" x1="16.14" x2="16.14" y2="8.43"/><line class="cls-1" x1="20.49" x2="20.49" y2="8.43"/><line class="cls-1" x1="24.84" x2="24.84" y2="8.43"/><line class="cls-1" x1="29.2" x2="29.2" y2="8.43"/><line class="cls-1" x1="33.55" x2="33.55" y2="8.43"/><line class="cls-1" x1="37.9" x2="37.9" y2="8.43"/><line class="cls-1" x1="42.25" x2="42.25" y2="8.43"/><line class="cls-1" x1="46.6" x2="46.6" y2="8.43"/><line class="cls-1" x1="50.96" x2="50.96" y2="8.43"/><line class="cls-1" x1="55.31" x2="55.31" y2="8.43"/><line class="cls-1" x1="59.66" x2="59.66" y2="8.43"/><line class="cls-1" x1="64.01" x2="64.01" y2="8.43"/><line class="cls-1" x1="68.37" x2="68.37" y2="8.43"/><line class="cls-1" x1="72.72" x2="72.72" y2="8.43"/><line class="cls-1" x1="77.07" x2="77.07" y2="8.43"/><line class="cls-1" x1="81.42" x2="81.42" y2="8.43"/><line class="cls-1" x1="85.77" x2="85.77" y2="8.43"/><line class="cls-1" x1="90.13" x2="90.13" y2="8.43"/><line class="cls-1" x1="94.48" x2="94.48" y2="8.43"/><line class="cls-1" x1="98.83" x2="98.83" y2="8.43"/><line class="cls-1" x1="103.18" x2="103.18" y2="8.43"/><line class="cls-1" x1="107.53" x2="107.53" y2="8.43"/><line class="cls-1" x1="111.89" x2="111.89" y2="8.43"/><line class="cls-1" x1="116.24" x2="116.24" y2="8.43"/><line class="cls-1" x1="120.59" x2="120.59" y2="8.43"/><line class="cls-1" x1="124.94" x2="124.94" y2="8.43"/><line class="cls-1" x1="129.3" x2="129.3" y2="8.43"/><line class="cls-1" x1="133.65" x2="133.65" y2="8.43"/><line class="cls-1" x1="138" x2="138" y2="8.43"/><line class="cls-1" x1="142.35" x2="142.35" y2="8.43"/><line class="cls-1" x1="146.7" x2="146.7" y2="8.43"/><line class="cls-1" x1="151.06" x2="151.06" y2="8.43"/><line class="cls-1" x1="155.41" x2="155.41" y2="8.43"/><line class="cls-1" x1="159.76" x2="159.76" y2="8.43"/><line class="cls-1" x1="164.11" x2="164.11" y2="8.43"/><line class="cls-1" x1="168.47" x2="168.47" y2="8.43"/><line class="cls-1" x1="172.82" x2="172.82" y2="8.43"/><line class="cls-1" x1="177.17" x2="177.17" y2="8.43"/><line class="cls-1" x1="181.52" x2="181.52" y2="8.43"/><line class="cls-1" x1="185.87" x2="185.87" y2="8.43"/><line class="cls-1" x1="190.23" x2="190.23" y2="8.43"/><line class="cls-1" x1="194.58" x2="194.58" y2="8.43"/><line class="cls-1" x1="198.93" x2="198.93" y2="8.43"/><line class="cls-1" x1="203.28" x2="203.28" y2="8.43"/><line class="cls-1" x1="207.63" x2="207.63" y2="8.43"/><line class="cls-1" x1="211.99" x2="211.99" y2="8.43"/></g><g><line class="cls-2" y1="1.77" x2="215.02" y2="1.77"/><line class="cls-2" y1="6.66" x2="215.02" y2="6.66"/></g></g></g></svg>