<svg xmlns="http://www.w3.org/2000/svg" xmlns:xlink="http://www.w3.org/1999/xlink" width="29" height="29" viewBox="0 0 29 29">
  <defs>
    <clipPath id="clip-path">
      <rect id="長方形_195" data-name="長方形 195" width="29" height="29" transform="translate(3749 223)" fill="#fff" stroke="#707070" stroke-width="1"/>
    </clipPath>
  </defs>
  <g id="マスクグループ_39" data-name="マスクグループ 39" transform="translate(-3749 -223)" clip-path="url(#clip-path)">
    <g id="FULL_COLOR_ICON" data-name="FULL COLOR ICON" transform="translate(3391.055 -12.537)">
      <rect id="長方形_11" data-name="長方形 11" width="23" height="23" rx="6" transform="translate(360.945 238.537)" fill="#00b900"/>
      <g id="TYPE_A" data-name="TYPE A" transform="translate(364.034 242.23)">
        <g id="グループ_54" data-name="グループ 54" transform="translate(0 0)">
          <path id="パス_93" data-name="パス 93" d="M393.807,264.6c0-3.747-3.757-6.8-8.374-6.8s-8.374,3.048-8.374,6.8c0,3.359,2.979,6.173,7,6.7.273.059.644.18.738.413a1.721,1.721,0,0,1,.027.757s-.1.591-.119.717c-.037.212-.168.828.725.451a27.033,27.033,0,0,0,6.58-4.862h0a6.046,6.046,0,0,0,1.795-4.181" transform="translate(-377.059 -257.805)" fill="#fff"/>
          <g id="グループ_53" data-name="グループ 53" transform="translate(2.747 4.985)">
            <path id="パス_94" data-name="パス 94" d="M408.708,283.813h-.587a.163.163,0,0,0-.163.163v3.649a.163.163,0,0,0,.163.163h.587a.163.163,0,0,0,.163-.163v-3.649a.163.163,0,0,0-.163-.163" transform="translate(-404.782 -283.813)" fill="#00b900"/>
            <path id="パス_95" data-name="パス 95" d="M419.013,283.813h-.587a.163.163,0,0,0-.163.163v2.168l-1.672-2.258-.013-.017h0l-.01-.01,0,0-.009-.007,0,0-.008-.006,0,0-.009-.005-.005,0-.009,0-.005,0-.01,0h-.006l-.009,0h-.617a.163.163,0,0,0-.163.163v3.649a.163.163,0,0,0,.163.163h.587a.163.163,0,0,0,.163-.163v-2.167l1.674,2.261a.162.162,0,0,0,.041.04h0l.01.006,0,0,.008,0,.008,0,0,0,.011,0h0a.157.157,0,0,0,.042.006h.587a.163.163,0,0,0,.163-.163v-3.649a.163.163,0,0,0-.163-.163" transform="translate(-411.044 -283.813)" fill="#00b900"/>
            <path id="パス_96" data-name="パス 96" d="M393.9,286.874h-1.6v-2.9a.163.163,0,0,0-.163-.163h-.587a.163.163,0,0,0-.163.163v3.648h0a.162.162,0,0,0,.046.113l0,0,0,0a.162.162,0,0,0,.113.045H393.9a.163.163,0,0,0,.163-.163v-.587a.163.163,0,0,0-.163-.163" transform="translate(-391.392 -283.813)" fill="#00b900"/>
            <path id="パス_97" data-name="パス 97" d="M439.307,284.727a.163.163,0,0,0,.163-.163v-.587a.163.163,0,0,0-.163-.163H436.96a.162.162,0,0,0-.113.046l0,0,0,0a.163.163,0,0,0-.045.112h0v3.648h0a.162.162,0,0,0,.046.113l0,0,0,0a.162.162,0,0,0,.113.046h2.347a.163.163,0,0,0,.163-.163v-.587a.163.163,0,0,0-.163-.163h-1.6v-.617h1.6a.163.163,0,0,0,.163-.163v-.587a.163.163,0,0,0-.163-.163h-1.6v-.617Z" transform="translate(-428.094 -283.813)" fill="#00b900"/>
          </g>
        </g>
      </g>
    </g>
  </g>
</svg>
