<svg xmlns="http://www.w3.org/2000/svg" width="133.526" height="54.043" viewBox="0 0 133.526 54.043">
  <g id="グループ_2820" data-name="グループ 2820" transform="translate(-606.414 -2390)">
    <path id="パス_875" data-name="パス 875" d="M41.242,2.41h126.7l-6.828,30.914H34.414Z" transform="translate(572 2410.719)" fill="#faec00"/>
    <g id="グループ_2726" data-name="グループ 2726" transform="translate(913.381 2367.178)">
      <g id="グループ_2725" data-name="グループ 2725" transform="translate(-288.381 22.822)">
        <path id="パス_3068" data-name="パス 3068" d="M-288.381,67.874l.706-4.488h41.263l-.707,4.488Zm29.243-40.734h19l-1.216,7.726h-4.462l.49-3.125H-278.8l-.492,3.125h-4.522l1.216-7.726h19l.68-4.318h4.463Zm-21.84,32.61,2.788-17.726h28.956l-2.788,17.726Zm4.613-3.863h20.947l.483-3.068h-20.946Zm.69-21.475h26.325l-.671,4.261h-26.324Zm21.829,11.475h-20.945l-.473,3.012h20.945Z" transform="translate(288.381 -22.822)" fill="#0068b7"/>
        <path id="パス_3069" data-name="パス 3069" d="M-249.743,50.723l.527-3.351h42.235l-.527,3.351Zm2.271-16.248,6.306-.8.634-4.034h-6.81l.6-3.806h6.81l.456-2.9h3.833l-.455,2.9h6.81l-.6,3.806h-6.81l-.546,3.465,6.726-.908-.609,3.863-6.724.909-.8,5.113h-3.835l.716-4.546-6.306.8Zm1.756,33.575L-244.4,59.7h28.728l-1.314,8.351Zm2.382-9.317.483-3.068h26.9l-.483,3.068Zm28.023-7.157L-215.8,54.7h-26.9l.492-3.125Zm-26.378,11.249-.321,2.046h22.319l.321-2.046Zm.62-16.306.483-3.066h26.209l-.482,3.066Zm19.621-15.224h18.6l-.58,3.694h-6.7l-1.163,7.386h-3.776l1.162-7.386h-8.526l-1.942,5.795h-3.778l2.755-8.068,1.18-7.5,18.82-1.762-.589,3.751-15.036,1.363Z" transform="translate(304.822 -22.771)" fill="#0068b7"/>
      </g>
    </g>
  </g>
</svg>
