<svg xmlns="http://www.w3.org/2000/svg" width="245.284" height="30.914" viewBox="0 0 245.284 30.914">
  <g id="グループ_2821" data-name="グループ 2821" transform="translate(-743.198 -2413.129)">
    <path id="パス_3064" data-name="パス 3064" d="M159.026,2.41H397.482l-6.828,30.914H152.2Z" transform="translate(591 2410.719)" fill="#005ca7"/>
    <g id="グループ_2677" data-name="グループ 2677" transform="translate(765.296 2418.141)">
      <g id="グループ_2676" data-name="グループ 2676" transform="translate(0 0)">
        <path id="パス_3013" data-name="パス 3013" d="M-349.2-150.735h6.4l1.272,2.936-2.817,9.316a4.562,4.562,0,0,1-1.7,2.228,4.032,4.032,0,0,1-2.25.684,6.063,6.063,0,0,1-.68-.051H-349l-1.253-.3.319-2.025,1.623.379a1.82,1.82,0,0,0,2.057-1.241l2.6-8.582-.619-1.417h-5.508L-352.444-140h-2.015l2.687-8.809h-3.851l.3-1.924h4.131l1.011-3.342h2.015Zm12.569-.633-.029,8.936h-2.014l.029-8.936Z" transform="translate(355.622 155.064)" fill="#fff" stroke="#fff" stroke-width="0.5"/>
        <path id="パス_3014" data-name="パス 3014" d="M-317.7-138.835l2.063-13.113h1.887l-1.372-1.164,1.68-1.443,2.359,2.025-.2,1.266-1.444,1.241H-313.9l-1.66,10.556.967,1.8,5.121.025a3.578,3.578,0,0,0,3.394-2.936l.522-3.316h2.04l-.514,3.265a5.83,5.83,0,0,1-2,3.494,5.786,5.786,0,0,1-3.746,1.443h-6.247Zm11.949-11.113h-1.581l.043-4h1.581Zm2.321,0h-1.582l.043-4h1.555Z" transform="translate(341.789 155.238)" fill="#fff" stroke="#fff" stroke-width="0.5"/>
        <path id="パス_3015" data-name="パス 3015" d="M-267.04-147.784l-1.167,7.418a4.17,4.17,0,0,1-3.98,3.417h-3.391l.3-1.9h3.391a1.858,1.858,0,0,0,1.769-1.519l1.007-6.4-2.085-1.493h-5.508l-2.669,1.569-2.936,4.076-1.091,6.936h-1.937l.558-3.544-.788,1.114h-2.856l.638-4.05,3.552-4.912-1.873-1.063.342-2.177,2.5,1.443.769-4.886h1.938l-1.139,7.24,1.08-1.518,3.628-2.153h6.682Zm-17.129,4.658.2-1.266-1.96,2.734-.2,1.266Z" transform="translate(331.108 154.948)" fill="#fff" stroke="#fff" stroke-width="0.5"/>
        <path id="パス_3016" data-name="パス 3016" d="M-233.592-147.095l1.513,2.05-.967,6.151a3.994,3.994,0,0,1-3.8,3.266h-5.762l.323-2.051h5.762a1.488,1.488,0,0,0,1.441-1.215l.844-5.366-.586-.811h-6.809l-2.037,1.924-2.463,3.823h-2.55l1.7-10.784h1.938l-1.23,7.822,1.559-2.456,2.487-2.354Zm-4.162-5.316.06-.38h-4.462l.3-1.924h6.375l-.485,3.089-1.091.937h-2.754Z" transform="translate(316.611 155.297)" fill="#fff" stroke="#fff" stroke-width="0.5"/>
        <path id="パス_3017" data-name="パス 3017" d="M-198.7-148.944l-.872,5.544h2.907l-.3,1.924h-6.936l4.235,5.494h-2.677l-3.97-5.24-5.057,5.24h-2.55l5.4-5.494h-7.064l.3-1.924h2.882l.872-5.544h5.38l.319-2.025h1.913l-.319,2.025Zm-1.152-4.835h5.3l-.3,1.924h-5.3l-.231,1.468h-1.939l.231-1.468h-5.1l-.231,1.468h-1.938l.231-1.468h-5.3l.3-1.924h5.3l.235-1.493h1.938l-.235,1.493h5.1l.235-1.493h1.939Zm-10.014,6.759-.569,3.62h3.417l.57-3.62Zm8.926,0h-3.6l-.57,3.62h3.6Z" transform="translate(304.535 155.5)" fill="#fff" stroke="#fff" stroke-width="0.5"/>
        <path id="パス_3018" data-name="パス 3018" d="M-173.516-149.783l.67,4.658h-1.786l-1.525,9.7h-1.963l1.193-7.746-.962,2.228h-2.066l3.762-8.835h-2.015l.3-1.924h2.346l.617-3.924h1.963l-.617,3.924h1.658l-.3,1.924Zm6.968,9.037-.49,1.493,1.255-.2-.314,2-7.933,1.317.314-2,1.545-.253-.165-2.355h2.066l.093,2,.964-.127.651-1.873Zm-5.882-1.19.809-5.139h6.3l-.809,5.139Zm3.491-8.252.243-1.545h-2.55l.3-1.923h2.55l.286-1.823h1.913l-.286,1.823h2.55l-.3,1.923h-2.55l-.243,1.545h2.091l-.3,1.923h-6.095l.3-1.923Zm-1.216,4.81-.271,1.721h2.831l.271-1.721Zm5.449-1.241h1.963l.316,3.823h-1.963Zm7.026-4.785-.311,1.975h-1.019l-2.2,14h-1.964l2.2-14h-3.366l.311-1.975h3.366l.657-4.176h1.964l-.657,4.176Z" transform="translate(291.536 155.631)" fill="#fff" stroke="#fff" stroke-width="0.5"/>
        <path id="パス_3019" data-name="パス 3019" d="M-124.637-138.877l1.207-7.671-1.377-1.62h-4.462l-3.6,10.759-2.162,1.747h-3.748l-1.873-2.2,1.47-9.341,3.539-2.886h12.011l2.328,2.708-1.338,8.506a3.939,3.939,0,0,1-3.774,3.241h-2.244l.311-1.975h2.244A1.527,1.527,0,0,0-124.637-138.877Zm-9.871.506,3.276-9.8h-3.952L-137.4-146.4l-1.219,7.746.929,1.064h2.193Z" transform="translate(277.2 153.61)" fill="#fff" stroke="#fff" stroke-width="0.5"/>
        <path id="パス_3020" data-name="パス 3020" d="M-105.948-136.225l1.714-3.924h1.963l-1.688,3.924Zm3.1-9.164h-1.938l3.445-6.177h-2.243l.3-1.924h3.264l.33-2.1h1.759l-.33,2.1h2.729l-.3,1.924h-1.683l1.408,3.847H-98.1l-.765-1.949-1.04,6.607h-1.759l.948-6.025Zm4.318,3.671-.669,4.253h9.512l-.3,1.924h-11.475l.972-6.177Zm5.447,2.177h-2.27l-1.107-2.2h2.244Zm8.59-15.543-1.872,11.9H-95.01l1.872-11.9Zm-8.426,10.126h5.049l.246-1.57h-5.049ZM-87.1-149.9h-5.049L-92.4-148.3h5.049Zm.534-3.393h-5.049l-.255,1.62h5.049Zm-1.215,12.911,1.543,2.835h-2.32l-1.543-2.835Z" transform="translate(264.538 155.616)" fill="#fff" stroke="#fff" stroke-width="0.5"/>
        <path id="パス_3021" data-name="パス 3021" d="M-64.494-138.483l3.055-2.076-.414,2.633-3.254,2.2-1.977-2.506,1.171-11.822h2.04l-1.092,10.987Zm15.433-7.493-.584,7.442h-2.04l.548-6.885-.771-2.228h2.269Z" transform="translate(250.359 153.596)" fill="#fff" stroke="#fff" stroke-width="0.5"/>
      </g>
    </g>
  </g>
</svg>
