<svg xmlns="http://www.w3.org/2000/svg" width="209.863" height="47.157" viewBox="0 0 209.863 47.157">
  <g id="グループ_2822" data-name="グループ 2822" transform="translate(-694.117 -3860.639)">
    <path id="パス_3039" data-name="パス 3039" d="M8.622,2.41h201.24L201.24,32.916H0Z" transform="translate(694.117 3874.881)" fill="#faec00"/>
    <g id="グループ_2701" data-name="グループ 2701" transform="translate(705.658 3860.908)">
      <g id="グループ_2158" data-name="グループ 2158" transform="translate(0 0)">
        <path id="パス_2285" data-name="パス 2285" d="M-481.828,636.76l6.579-14.422,4.149-.034-6.63,14.421Zm12.242-26.065-1.05,4.115-6.372-1.8,1.05-4.112Zm2.835-11.106-1.05,4.115-6.4-1.691,1.05-4.115Zm29.512,13.909-11.407.1-1.548,6.067,8.867-.074-3.99,15.632-21.727.182,3.99-15.632,8.815-.074,1.547-6.067-11.355.1,1.023-4.01,11.355-.094,1.483-5.811-9.789.853,1.037-4.063,23.524-2.148-1.025,4.009-9.6.9-1.59,6.22,11.407-.1Zm-11.048,17.744,1.942-7.609-13.74.116-1.944,7.609Z" transform="translate(481.828 -596.006)" fill="#0068b7" stroke="#0068b7" stroke-width="0.5"/>
        <path id="パス_2286" data-name="パス 2286" d="M-433.533,600.774l-.615,2.417,8.815-.076-.88,3.446-8.815.076-.617,2.414,7.83-.067-3.493,13.676-7.829.069-.828,3.238,6.794-.057-.855,3.343-6.792.057-.774,3.034,7.69-.939-.866,3.393-18.7,2.315.878-3.446,7.469-.885.88-3.446-6.224.054.855-3.343,6.222-.052.826-3.24-7.623.064,3.491-13.676,7.625-.064.615-2.416-8.3.071.88-3.446,8.3-.071.578-2.262-6.288.31.853-3.343,15.96-.9-.88,3.444Zm-12.958,19.143,4.666-.04.553-2.159-4.668.039Zm6.689-7.958-4.668.039-.565,2.212,4.668-.04Zm1.4,7.891,4.926-.044.551-2.159-4.926.042Zm6.947-7.962-4.926.042-.565,2.212,4.926-.044Zm16.485-6.4,8.243-.071-7.94,31.107-3.838.034,6.984-27.354-4.823.04-9.673,25.325-3.837.032,9.776-25.325-4.927.04.959-3.752,5.342-.046,1.994-7.815,3.734-.032Z" transform="translate(501.276 -596.609)" fill="#0068b7" stroke="#0068b7" stroke-width="0.5"/>
        <path id="パス_2287" data-name="パス 2287" d="M-404.792,600.53l-.617,2.417,8.815-.074-.88,3.446-8.815.072-.617,2.416,7.832-.066-3.493,13.676-7.83.066-.826,3.24,6.793-.057-.853,3.341-6.8.059-.774,3.033,7.69-.935-.866,3.393-18.7,2.313.878-3.446,7.469-.883.88-3.446-6.222.054.853-3.343,6.222-.052.828-3.24-7.623.064,3.491-13.676,7.623-.064.617-2.416-8.3.071.88-3.446,8.3-.071.577-2.262-6.288.31.853-3.343,15.962-.905-.88,3.446Zm-12.96,19.143,4.668-.039.551-2.159-4.668.039Zm6.689-7.957-4.668.039-.565,2.212,4.668-.04Zm1.4,7.888,4.927-.04.551-2.159-4.927.04Zm6.949-7.958-4.927.04-.565,2.212,4.927-.042Zm16.483-6.4,8.243-.069-7.941,31.107-3.835.032,6.982-27.353L-387.6,609l-9.673,25.326-3.837.032,9.777-25.325-4.926.04.957-3.752,5.34-.045,2-7.815,3.732-.034Z" transform="translate(520.983 -596.776)" fill="#0068b7" stroke="#0068b7" stroke-width="0.5"/>
        <path id="パス_2288" data-name="パス 2288" d="M-353.115,605.557l3.993-.032-7.35,28.792-39.824.336,7.35-28.792,3.993-.034-6.365,24.937,31.835-.27Zm-17.889.358,1.193-4.678-15.348.13.957-3.754,34.586-.293-.958,3.754-15.4.13-1.193,4.678,10.057-.084-5.462,21.388-23.954.2L-381.063,606Zm-9.282,12.033-1.431,5.6,6.222-.052,1.431-5.6Zm8.3-8.178-6.224.052-1.116,4.371,6.222-.052Zm.334,13.695,6.273-.052,1.431-5.6-6.274.052Zm9.779-13.781-6.274.054-1.116,4.37,6.272-.052Z" transform="translate(540.48 -596.404)" fill="#0068b7" stroke="#0068b7" stroke-width="0.5"/>
      </g>
    </g>
  </g>
</svg>
