<svg xmlns="http://www.w3.org/2000/svg" viewBox="0 0 399.62 354.98"><defs><style>.cls-1{fill:#d9d9d9;}.cls-2{fill:#fff;}</style></defs><g id="レイヤー_2" data-name="レイヤー 2"><g id="レイヤー_1-2" data-name="レイヤー 1"><rect class="cls-1" width="399.62" height="354.98"/><path class="cls-2" d="M199.44,141.94a19.66,19.66,0,0,0-14,5.87,20.21,20.21,0,0,0,0,28.4,19.71,19.71,0,0,0,28.07,0,20.18,20.18,0,0,0,0-28.4A19.64,19.64,0,0,0,199.44,141.94Zm0,32.45A12.38,12.38,0,1,1,211.7,162,12.32,12.32,0,0,1,199.44,174.39Z"/><path class="cls-2" d="M254.45,127.57A11.82,11.82,0,0,0,246,124H233.14a2.68,2.68,0,0,1-2.46-1.62l-3.86-8.64A11.9,11.9,0,0,0,216,106.71h-33a11.92,11.92,0,0,0-10.87,7.07l-3.86,8.64a2.66,2.66,0,0,1-2.45,1.62H152.85a11.95,11.95,0,0,0-11.91,12v55.47a12,12,0,0,0,3.47,8.45,11.86,11.86,0,0,0,8.44,3.51H246a11.8,11.8,0,0,0,8.43-3.51,12,12,0,0,0,3.48-8.45V136A11.94,11.94,0,0,0,254.45,127.57ZM218.51,181.2a26.78,26.78,0,0,1-38.14,0,27.28,27.28,0,0,1,0-38.38,26.8,26.8,0,0,1,38.14,0,27.31,27.31,0,0,1,0,38.38Zm28-35.59h-8.18v-8.19h8.18Z"/><path class="cls-2" d="M145.45,233.3c.7,1,1.17,1.84,1.76,2.91-.1-1.12-.15-2.25-.15-3.62V227a26.15,26.15,0,0,0-.2-3.72h5.21a27.83,27.83,0,0,0-.19,3.72v13a30.74,30.74,0,0,0,.19,3.65h-5.35a26.53,26.53,0,0,0-1.84-3.11l-4.52-6.82a28,28,0,0,1-1.76-3,35.69,35.69,0,0,1,.17,3.64v5.48a26.24,26.24,0,0,0,.2,3.82h-5.21a26.4,26.4,0,0,0,.19-3.84V227a28.68,28.68,0,0,0-.19-3.65h5.3a17,17,0,0,0,1.74,3.06Z"/><path class="cls-2" d="M154.27,236.16c0-4.89,3.13-8,8.07-8s8.07,3.1,8.07,8-3.23,8.09-8.09,8.09S154.27,241.08,154.27,236.16Zm4.67,0c0,2.71,1.27,4.35,3.4,4.35s3.35-1.59,3.35-4.3-1.25-4.35-3.33-4.35S158.94,233.45,158.94,236.14Z"/><path class="cls-2" d="M186.13,223.3a22.26,22.26,0,0,0-.2,3.62V240a23.14,23.14,0,0,0,.2,3.62h-5.38a23.2,23.2,0,0,0,.19-3.62V226.92a22.66,22.66,0,0,0-.19-3.62Z"/><path class="cls-2" d="M188.94,243.65a26.64,26.64,0,0,0,.19-3.7v-7.53a22.49,22.49,0,0,0-.19-3.69h4.84v1a3,3,0,0,1,0,.34v.24a5.94,5.94,0,0,1,4.67-2,5.2,5.2,0,0,1,3.13.88,3,3,0,0,1,1,1.22,6.68,6.68,0,0,1,5.13-2.12c3.5,0,5.29,1.9,5.29,5.6V240a26.62,26.62,0,0,0,.19,3.67h-5.09a25.49,25.49,0,0,0,.2-3.7v-5c0-1.84-.54-2.55-1.93-2.55s-2.37,1-3,2.62v5a27.26,27.26,0,0,0,.19,3.67h-5.08a27.7,27.7,0,0,0,.19-3.7v-5a2.92,2.92,0,0,0-.41-1.91,1.59,1.59,0,0,0-1.35-.61c-1.32,0-2.44.95-3.13,2.61V240a27.13,27.13,0,0,0,.2,3.7Z"/><path class="cls-2" d="M225.52,233.43c0-1.18-.71-1.72-2.33-1.72s-2.39.52-2.76,1.72l-4.67-.76a5.29,5.29,0,0,1,2.05-3,9.39,9.39,0,0,1,5.51-1.39,10.68,10.68,0,0,1,4.52.85c1.56.86,2.25,2.2,2.25,4.4v6.6a28.85,28.85,0,0,0,.17,3.48h-4.74v-1.13a7.12,7.12,0,0,1-4.75,1.47,6,6,0,0,1-4.23-1.35,4.38,4.38,0,0,1-1.34-3.32,4.12,4.12,0,0,1,1.78-3.57,10.15,10.15,0,0,1,5.09-1.59c1-.1,1.69-.12,3.45-.17Zm0,3.69a14.44,14.44,0,0,0-4.23.49,1.8,1.8,0,0,0-1.42,1.61c0,.88.73,1.39,2,1.39a4.54,4.54,0,0,0,2.77-.92,2.48,2.48,0,0,0,.88-1.89Z"/><path class="cls-2" d="M236.13,243.23a4.43,4.43,0,0,0,3.71,1.66,3.77,3.77,0,0,0,3-1.07,3.91,3.91,0,0,0,.78-2.62,6.08,6.08,0,0,1-4.45,1.61c-4.26,0-6.95-2.78-6.95-7.23s2.77-7.22,6.95-7.22a6.8,6.8,0,0,1,4.45,1.42v-1.05h4.79a22.82,22.82,0,0,0-.19,3.4v8.58c0,2.94-.84,4.92-2.55,6.12a10.39,10.39,0,0,1-5.82,1.44c-3.32,0-5.52-.83-7.23-2.72Zm3.93-3.94a3.74,3.74,0,0,0,0-7.45c-2,0-3.23,1.49-3.23,3.76S238.13,239.29,240.06,239.29Z"/><path class="cls-2" d="M254.85,237.56a3.09,3.09,0,0,0,3.33,3,3.6,3.6,0,0,0,2.47-.9,2.4,2.4,0,0,0,.73-1.25l4.26,1.2a6.93,6.93,0,0,1-1.62,2.51,7.94,7.94,0,0,1-5.77,2.08,7.62,7.62,0,0,1-5.67-2.08,8.31,8.31,0,0,1-2.23-6c0-4.84,3.11-8.05,7.78-8.05a7,7,0,0,1,7.34,5.73,18.13,18.13,0,0,1,.36,3.2,3.66,3.66,0,0,0,0,.49Zm6.36-3.38a2.84,2.84,0,0,0-3.08-2.39,2.94,2.94,0,0,0-3.2,2.39Z"/></g></g></svg>