<svg xmlns="http://www.w3.org/2000/svg" viewBox="0 0 207.08 196.04"><defs><style>.cls-1{isolation:isolate;}.cls-2{opacity:0.7;mix-blend-mode:multiply;}.cls-3,.cls-38{opacity:0.54;}.cls-11,.cls-12,.cls-14,.cls-15,.cls-17,.cls-18,.cls-21,.cls-23,.cls-24,.cls-26,.cls-27,.cls-28,.cls-31,.cls-34,.cls-36,.cls-38,.cls-4,.cls-42,.cls-47,.cls-51,.cls-55,.cls-56,.cls-57,.cls-59,.cls-6,.cls-61,.cls-62,.cls-64,.cls-66,.cls-7,.cls-9{fill:#fabe00;}.cls-5,.cls-7{opacity:0.78;}.cls-54,.cls-6{opacity:0.56;}.cls-8{opacity:0.71;}.cls-9{opacity:0.37;}.cls-10,.cls-23{opacity:0.6;}.cls-11{opacity:0.29;}.cls-12{opacity:0.2;}.cls-13{opacity:0.43;}.cls-14{opacity:0.35;}.cls-15{opacity:0.97;}.cls-16{opacity:0.39;}.cls-17,.cls-50{opacity:0.49;}.cls-18,.cls-22{opacity:0.5;}.cls-19{opacity:0.55;}.cls-20{opacity:0.62;}.cls-21{opacity:0.26;}.cls-24{opacity:0.98;}.cls-25{opacity:0.69;}.cls-26{opacity:0.53;}.cls-27,.cls-52{opacity:0.42;}.cls-28{opacity:0.4;}.cls-29{opacity:0.82;}.cls-30{opacity:0.32;}.cls-31{opacity:0.44;}.cls-32{opacity:0.9;}.cls-33{opacity:0.58;}.cls-34,.cls-37{opacity:0.87;}.cls-35{opacity:0.52;}.cls-36,.cls-67{opacity:0.33;}.cls-39{opacity:0.66;}.cls-40{opacity:0.61;}.cls-41,.cls-66{opacity:0.84;}.cls-42{opacity:0.95;}.cls-43{opacity:0.83;}.cls-44{opacity:0.57;}.cls-45{opacity:0.72;}.cls-46{opacity:0.76;}.cls-47{opacity:0.3;}.cls-48{opacity:0.67;}.cls-49{opacity:0.59;}.cls-51{opacity:0.65;}.cls-53{opacity:0.75;}.cls-55{opacity:0.46;}.cls-56,.cls-63{opacity:0.31;}.cls-57{opacity:0.21;}.cls-58,.cls-64{opacity:0.41;}.cls-59{opacity:0.81;}.cls-60{opacity:0.51;}.cls-61{opacity:0.73;}.cls-62{opacity:0.63;}.cls-65{opacity:0.48;}</style></defs><g class="cls-1"><g id="レイヤー_2" data-name="レイヤー 2"><g id="ベース"><g class="cls-2"><g class="cls-3"><polygon class="cls-4" points="165.22 38.54 145.95 38.54 145.95 19.27 165.22 38.54"/></g><g class="cls-5"><polygon class="cls-4" points="30.32 19.27 11.04 19.27 11.04 0 30.32 19.27"/></g><polygon class="cls-6" points="145.95 154.17 145.95 134.9 126.68 134.9 145.95 154.17"/><polygon class="cls-7" points="126.68 115.63 126.68 96.36 107.41 96.36 126.68 115.63"/><g class="cls-8"><polygon class="cls-4" points="145.95 154.17 126.67 154.17 126.68 134.9 145.95 154.17"/></g><polygon class="cls-9" points="165.22 96.36 145.95 96.36 145.95 77.09 165.22 96.36"/><g class="cls-10"><polygon class="cls-4" points="203.76 77.08 184.49 77.08 184.49 57.81 203.76 77.08"/></g><polygon class="cls-11" points="145.95 19.27 145.95 0 126.68 0 145.95 19.27"/><polygon class="cls-12" points="207.08 134.9 203.76 134.9 203.76 115.63 207.08 118.95 207.08 134.9"/><g class="cls-13"><polygon class="cls-4" points="207.08 115.63 203.76 115.63 203.76 96.36 207.08 99.68 207.08 115.63"/></g><polygon class="cls-14" points="207.08 118.95 203.76 115.63 207.08 115.63 207.08 118.95"/><polygon class="cls-15" points="203.76 77.08 203.76 57.81 184.49 57.81 203.76 77.08"/><g class="cls-16"><polygon class="cls-4" points="88.13 57.81 88.13 38.54 68.86 38.54 88.13 57.81"/></g><polygon class="cls-17" points="30.32 134.9 30.32 115.63 11.04 115.63 30.32 134.9"/><polygon class="cls-18" points="107.41 77.08 88.13 77.08 88.13 57.81 107.41 77.08"/><g class="cls-19"><polygon class="cls-4" points="30.32 77.08 30.32 57.81 11.04 57.81 30.32 77.08"/></g><g class="cls-20"><polygon class="cls-4" points="49.59 96.36 30.32 96.36 30.32 77.08 49.59 96.36"/></g><polygon class="cls-21" points="107.41 38.54 88.13 38.54 88.13 19.27 107.41 38.54"/><g class="cls-22"><polygon class="cls-4" points="207.08 96.36 203.76 96.36 203.76 77.08 207.08 80.41 207.08 96.36"/></g><polygon class="cls-4" points="184.49 77.08 184.49 57.81 165.22 57.81 184.49 77.08"/><polygon class="cls-23" points="68.86 96.36 68.86 77.08 49.59 77.08 68.86 96.36"/><polygon class="cls-24" points="126.68 57.81 107.41 57.81 107.41 38.54 126.68 57.81"/><polygon class="cls-6" points="68.86 57.81 68.86 38.54 49.59 38.54 68.86 57.81"/><g class="cls-25"><polygon class="cls-4" points="49.59 38.54 30.32 38.54 30.32 19.27 49.59 38.54"/></g><polygon class="cls-26" points="49.59 57.81 49.59 38.54 30.32 38.54 49.59 57.81"/><polygon class="cls-27" points="184.49 173.44 165.22 173.44 165.22 154.17 184.49 173.44"/><polygon class="cls-28" points="88.13 134.9 88.13 115.63 68.86 115.63 88.13 134.9"/><g class="cls-29"><polygon class="cls-4" points="126.68 57.81 126.68 38.54 107.41 38.54 126.68 57.81"/></g><g class="cls-30"><polygon class="cls-4" points="203.76 38.54 203.76 19.27 184.49 19.27 203.76 38.54"/></g><polygon class="cls-31" points="203.76 38.54 184.49 38.55 184.49 19.27 203.76 38.54"/><g class="cls-32"><polygon class="cls-4" points="184.49 19.27 184.49 0 165.22 0 184.49 19.27"/></g><polygon class="cls-15" points="68.86 57.81 49.59 57.81 49.59 38.54 68.86 57.81"/><polygon class="cls-17" points="126.68 38.54 126.68 19.27 107.41 19.27 126.68 38.54"/><g class="cls-33"><polygon class="cls-4" points="145.95 19.27 126.68 19.27 126.68 0 145.95 19.27"/></g><polygon class="cls-34" points="203.76 57.81 184.49 57.81 184.49 38.55 203.76 57.81"/><g class="cls-35"><polygon class="cls-4" points="165.22 57.81 165.22 38.54 145.95 38.54 165.22 57.81"/></g><polygon class="cls-36" points="184.49 154.17 184.49 134.9 165.22 134.9 184.49 154.17"/><g class="cls-37"><polygon class="cls-4" points="145.95 77.09 126.67 77.08 126.68 57.81 145.95 77.09"/></g><polygon class="cls-38" points="88.13 38.54 88.13 19.27 68.86 19.27 88.13 38.54"/><g class="cls-39"><polygon class="cls-4" points="126.68 134.9 107.41 134.9 107.41 115.63 126.68 134.9"/></g><g class="cls-40"><polygon class="cls-4" points="107.41 115.63 88.13 115.63 88.13 96.36 107.41 115.63"/></g><g class="cls-41"><polygon class="cls-4" points="88.13 19.27 88.13 0 68.86 0 88.13 19.27"/></g><polygon class="cls-42" points="30.32 38.54 11.04 38.54 11.04 19.27 30.32 38.54"/><g class="cls-43"><polygon class="cls-4" points="203.76 192.72 203.76 173.44 184.49 173.44 203.76 192.72"/></g><g class="cls-44"><polygon class="cls-4" points="0 57.81 0 46.77 11.04 57.81 0 57.81"/></g><g class="cls-45"><polygon class="cls-4" points="165.22 115.63 165.22 96.36 145.95 96.36 165.22 115.63"/></g><g class="cls-46"><polygon class="cls-4" points="165.22 77.08 165.22 57.81 145.95 57.81 165.22 77.08"/></g><polygon class="cls-47" points="0 104.59 0 96.36 11.04 96.36 11.04 115.63 0 104.59"/><g class="cls-48"><polygon class="cls-4" points="203.76 154.17 203.76 134.9 184.49 134.9 203.76 154.17"/></g><g class="cls-49"><polygon class="cls-4" points="203.76 192.72 184.49 192.71 184.49 173.44 203.76 192.72"/></g><g class="cls-50"><polygon class="cls-4" points="145.95 77.09 145.95 57.81 126.68 57.81 145.95 77.09"/></g><polygon class="cls-38" points="49.59 38.54 49.59 19.27 30.32 19.27 49.59 38.54"/><polygon class="cls-51" points="203.76 134.9 203.76 115.63 184.49 115.63 203.76 134.9"/><g class="cls-52"><polygon class="cls-4" points="165.22 19.27 145.95 19.27 145.95 0 165.22 19.27"/></g><g class="cls-53"><polygon class="cls-4" points="107.41 19.27 88.13 19.27 88.13 0 107.41 19.27"/></g><g class="cls-54"><polygon class="cls-4" points="184.49 38.55 184.49 19.27 165.22 19.27 184.49 38.55"/></g><polygon class="cls-6" points="145.95 96.36 126.68 96.36 126.67 77.08 145.95 96.36"/><polygon class="cls-55" points="49.59 134.9 30.32 134.9 30.32 115.63 49.59 134.9"/><polygon class="cls-26" points="145.95 115.63 145.95 96.36 126.68 96.36 145.95 115.63"/><polygon class="cls-56" points="107.41 38.54 107.41 19.27 88.13 19.27 107.41 38.54"/><polygon class="cls-57" points="88.13 77.08 68.86 77.08 68.86 57.81 88.13 77.08"/><polygon class="cls-57" points="68.86 19.27 49.59 19.27 49.59 0 68.86 19.27"/><g class="cls-58"><polygon class="cls-4" points="0 38.54 0 27.5 11.04 38.54 0 38.54"/></g><g class="cls-53"><polygon class="cls-4" points="0 77.08 0 66.04 11.04 77.08 0 77.08"/></g><polygon class="cls-59" points="88.13 57.81 68.86 57.81 68.86 38.54 88.13 57.81"/><g class="cls-60"><polygon class="cls-4" points="203.76 173.44 203.76 154.17 184.49 154.17 203.76 173.44"/></g><g class="cls-29"><polygon class="cls-4" points="107.41 96.36 88.13 96.36 88.13 77.08 107.41 96.36"/></g><polygon class="cls-55" points="203.76 173.44 184.49 173.44 184.49 154.17 203.76 173.44"/><g class="cls-33"><polygon class="cls-4" points="165.22 134.9 165.22 115.63 145.95 115.63 165.22 134.9"/></g><polygon class="cls-61" points="49.59 77.08 30.32 77.08 30.32 57.81 49.59 77.08"/><g class="cls-46"><polygon class="cls-4" points="107.41 96.36 107.41 77.08 88.13 77.08 107.41 96.36"/></g><polygon class="cls-62" points="184.49 38.55 165.22 38.54 165.22 19.27 184.49 38.55"/><g class="cls-63"><polygon class="cls-4" points="165.22 96.36 165.22 77.08 145.95 77.09 165.22 96.36"/></g><polygon class="cls-4" points="203.76 19.27 203.76 0 184.49 0 203.76 19.27"/><polygon class="cls-64" points="145.95 57.81 126.68 57.81 126.68 38.54 145.95 57.81"/><polygon class="cls-61" points="184.49 154.17 165.22 154.17 165.22 134.9 184.49 154.17"/><polygon class="cls-56" points="184.49 115.63 184.49 96.36 165.22 96.36 184.49 115.63"/><g class="cls-65"><polygon class="cls-4" points="88.13 38.54 68.86 38.54 68.86 19.27 88.13 38.54"/></g><polygon class="cls-12" points="184.49 134.9 165.22 134.9 165.22 115.63 184.49 134.9"/><polygon class="cls-66" points="207.08 99.68 203.76 96.36 207.08 96.36 207.08 99.68"/><g class="cls-67"><polygon class="cls-4" points="88.13 77.08 88.13 57.81 68.86 57.81 88.13 77.08"/></g><g class="cls-65"><polygon class="cls-4" points="207.08 196.04 203.76 192.72 207.08 192.72 207.08 196.04"/></g><g class="cls-35"><polygon class="cls-4" points="184.49 173.44 184.49 154.17 165.22 154.17 184.49 173.44"/></g><g class="cls-37"><polygon class="cls-4" points="0 8.23 0 0 11.04 0 11.04 19.27 0 8.23"/></g><g class="cls-3"><polygon class="cls-4" points="207.08 22.59 203.76 19.27 207.08 19.27 207.08 22.59"/></g></g></g></g></g></svg>