<svg xmlns="http://www.w3.org/2000/svg" viewBox="0 0 519.84 571"><defs><style>.cls-1{fill:#1c2a54;}.cls-1,.cls-2{stroke:#fff;stroke-miterlimit:10;}.cls-2{fill:#14a5c0;}</style></defs><g id="レイヤー_2" data-name="レイヤー 2"><g id="contents"><path class="cls-1" d="M391.57.59V.5H116a30.09,30.09,0,0,0-30,30V164.13h40V40.5H351.57V168H479V530.5H126V406.77H86V540.5a30.09,30.09,0,0,0,30,30H489a30.09,30.09,0,0,0,30-30V128l.09-.1Zm0,127.38V57.16L462.37,128Z"/><path class="cls-2" d="M157.62,257H145.94V314h11.93c16.19,0,25.47-10.41,25.47-28.54C183.34,267.1,174.21,257,157.62,257Z"/><path class="cls-2" d="M318,194.23H10.5a10,10,0,0,0-10,10V366.77a10,10,0,0,0,10,10H318a10,10,0,0,0,10-10V204.23A10,10,0,0,0,318,194.23Zm-242.44,106H61.31v34.84H39V235.35H76c19.36,0,31.73,13.59,31.73,32.34C107.68,287.78,95.55,300.27,75.59,300.27Zm118.9,22c-8.47,8.82-20.28,13.48-34.16,13.48H120.87V235.23h39.2c28.47,0,47.59,20.2,47.59,50.27C207.66,300.6,203.11,313.32,194.49,322.29Zm95-67.57H247.89v23.33H284v19H247.89v38.21H222.72v-100h66.79Z"/><path class="cls-2" d="M70.93,255.41H61v24.8h10.1c8,0,14.34-3.09,14.34-12.4S79,255.41,70.93,255.41Z"/></g></g></svg>