<?xml version="1.0" encoding="UTF-8"?><svg id="_レイヤー_2" xmlns="http://www.w3.org/2000/svg" viewBox="0 0 378.8 46.58"><defs><style>.cls-1{fill:#0068b7;}.cls-2{fill:#faec00;}</style></defs><g id="_レイヤー_1-2"><g><path id="_パス_3040" class="cls-2" d="M10.89,13.27H378.8l-10.89,33.31H0L10.89,13.27Z"/><g><polygon class="cls-1" points="43.7 4.85 39.14 4.85 42.07 10.82 37.77 31.36 41.84 31.36 46.37 9.73 44.02 4.85 43.7 4.85"/><polygon class="cls-1" points="21.44 8.66 22.9 1.7 22.27 1.7 18.74 1.7 17.29 8.66 12.64 8.66 11.79 12.76 16.43 12.76 13.26 27.87 6.54 35.26 11.62 35.26 17.13 29.23 20.59 12.76 34.45 12.76 31.83 25.3 26.74 30.92 19.34 30.92 18.5 34.93 28.18 34.93 35.69 26.7 39.47 8.66 21.44 8.66"/><polygon class="cls-1" points="79.22 7.87 82.81 7.87 79.29 .66 75.7 .66 76.06 1.4 79.22 7.87"/><polygon class="cls-1" points="75.42 10.35 79.01 10.35 75.49 3.15 71.91 3.15 72.27 3.89 75.42 10.35"/><polygon class="cls-1" points="79.94 15.62 77.86 25.51 72.62 31.29 57.73 31.29 63.02 6.05 63.16 1.7 58.9 1.7 58.78 6.21 52.66 35.43 74.04 35.43 81.77 26.91 84.22 15.21 80.02 15.21 79.94 15.62"/><polygon class="cls-1" points="113.27 8.82 105.49 13.59 108.01 1.53 103.85 1.53 102.52 7.92 96.42 7.92 95.59 11.89 101.68 11.89 100.72 16.48 93.69 20.79 92.59 26.02 99.62 21.75 96.79 35.26 100.95 35.26 104.39 18.82 114.1 12.92 123.56 12.92 120.83 25.92 117 30.09 105.7 30.09 104.85 34.18 118.17 34.18 124.38 27.68 124.62 27.68 128.59 8.74 113.39 8.74 113.27 8.82"/><polygon class="cls-1" points="165.11 9.27 165.97 5.16 165.45 5.06 151.59 2.52 146.47 3.43 145.61 7.53 150.77 6.67 165.11 9.27"/><polygon class="cls-1" points="143.59 7.96 139.39 7.96 136.65 21.04 162.34 21.04 161.39 25.55 156.63 30.79 138.9 30.79 137.76 28.51 132.93 28.51 136.08 34.93 157.97 34.93 165.36 26.87 167.45 16.91 141.71 16.91 143.59 7.96"/><path class="cls-1" d="M207.04,10.07h-10.2l.6-2.86h-4.16l-.6,2.86h-10.11l-2.35,11.23h-5.01l-.83,3.97h15.13l-.08,.39-16.85,6.42-.96,4.55,19.33-7.39,15.9,7.22,.92-4.39-.37-.17-13.81-6.3,.07-.35h15.21l.83-3.97h-5.01l2.35-11.23Zm-15.18,3.97l-1.52,7.26h-5.95l1.52-7.26h5.95Zm10.2,0l-1.52,7.26h-6.04l1.52-7.26h6.04Z"/><polygon class="cls-1" points="204.18 0 199.98 0 199.43 2.61 193.27 2.61 193.82 0 189.62 0 189.07 2.61 179.87 2.61 179.02 6.66 188.22 6.66 187.68 9.27 188.31 9.27 191.88 9.27 192.42 6.66 198.59 6.66 198.04 9.27 202.24 9.27 202.78 6.66 211.99 6.66 212.83 2.61 203.63 2.61 204.18 0"/><path class="cls-1" d="M252.42,8.29l1.69-8.08h-4.03l-1.69,8.08h-6.17l-.3,1.41h-3.96l.4-1.92h5.39l.81-3.85h-5.39l.78-3.73h-4.12l-.78,3.73h-5.39l-.67,3.19h-2.06l1.45-6.92h-4.07l-1.45,6.92h-4.02l-.84,4.01h4.02l-1.34,6.39-5.41,6.63-1.2,5.72,.9,.43,4.07-4.97-2.37,11.33h4.07l2.82-13.47h3.18l-.29,1.37h8.19l-3.19,5.43-.89-5.34h-4.19l1.06,6.43-3.97,1-.89,4.23,15.91-4.05,.89-4.23-2.79,.72,2.77-4.68h-.43l1.56-7.43,.04,9.62h4.01l-.04-10.15h-3.9l.52-2.49h-12.36l-1.64,7.83-2.09-5.2,1.07-5.12h2.9l.7-3.36h4.54l-.4,1.92h-4.52l-.8,3.85h13.15l.26-1.24h5.62l-5.11,24.37h4.03l5.11-24.37h2.24l.84-4.01h-2.24Zm-20.47,9.11h4.38l-.71,3.37h-4.38l.71-3.37Z"/><polygon class="cls-1" points="268.38 5.35 260.91 13.57 256.88 32.81 271.17 32.81 279.61 10.98 275.36 10.98 268.53 28.72 261.9 28.72 264.78 14.93 269.92 9.27 289.62 9.27 285.91 26.96 282.07 31.17 274.87 31.21 274.02 35.26 283.46 35.26 289.79 28.32 294.63 5.18 268.54 5.18 268.38 5.35"/><polygon class="cls-1" points="321.51 8.82 332.58 8.82 333.43 4.72 322.37 4.72 323.36 0 319.08 0 316.7 11.35 312.77 11.35 314.46 3.31 310.34 3.31 308.66 11.35 300.82 11.35 299.97 15.45 315.92 15.45 313.95 24.86 315.81 24.86 298.83 36.67 305.76 36.67 327.02 21.83 329.27 25.23 334.73 25.23 334.2 24.43 328.38 15.67 322.92 15.67 325.25 19.19 324.09 19.19 323.93 19.19 318.5 22.97 320.08 15.45 335.99 15.45 336.85 11.35 320.98 11.35 321.51 8.82"/><polygon class="cls-1" points="313 15.67 307.39 15.67 307.24 15.8 297.03 25.23 302.69 25.23 313 15.67"/><path class="cls-1" d="M374.92,20.1h-5.12l-3.06,3.37-5.47-4.45,10.7-11.72,.69-3.28h-25.87l-.84,4.01h20.23l-7.82,8.6-1.77-1.5h-13.54l-3.9,18.64h8.73l10.44-11.49,5.46,4.49-7.74,8.5h5.12l5.54-6.11,4.98,4.08,.17-.83,.85-4.04-3.05-2.47,5.26-5.8Zm-30.83,9.74l2.25-10.74h8.1l1,.82-9.02,9.92h-2.33Z"/></g></g></g></svg>