<?xml version="1.0" encoding="UTF-8"?><svg id="_レイヤー_2" xmlns="http://www.w3.org/2000/svg" viewBox="0 0 162.29 162.29"><defs><style>.cls-1{fill:#fff100;}.cls-2{fill:#e3007f;}.cls-3{fill:#724e29;}.cls-4{fill:#473833;}</style></defs><g id="_レイヤー_1-2"><g><circle class="cls-1" cx="81.14" cy="81.14" r="81.13"/><g><path class="cls-3" d="M145.77,71.89l10.75-1.55c.15,.92,.27,1.85,.35,2.78l-10.8,1.15c-.06-.8-.17-1.6-.3-2.39Z"/><path class="cls-3" d="M146.39,78.48l10.85-.46c.06,.93,.08,1.87,.07,2.8l-10.86,.06c.02-.8,0-1.6-.06-2.4Z"/><path class="cls-3" d="M146.33,85.09l10.84,.65c-.04,.94-.11,1.87-.22,2.8l-10.81-1.05c.09-.8,.16-1.59,.19-2.39Z"/><path class="cls-3" d="M145.6,91.66l10.72,1.75c-.13,.93-.32,1.84-.51,2.76l-10.65-2.14c.16-.78,.33-1.57,.43-2.36Z"/><path class="cls-3" d="M144.21,98.13l10.49,2.83c-.21,.91-.52,1.8-.79,2.69l-10.37-3.22c.23-.77,.5-1.52,.68-2.31Z"/><path class="cls-3" d="M142.17,104.42l10.15,3.88c-.32,.88-.71,1.73-1.06,2.6l-10-4.25c.3-.74,.64-1.47,.91-2.23Z"/><polygon class="cls-3" points="139.5 110.47 149.2 115.36 147.88 117.83 138.37 112.59 139.5 110.47"/><polygon class="cls-3" points="136.23 116.22 145.39 122.06 143.83 124.39 134.89 118.23 136.23 116.22"/><polygon class="cls-3" points="132.39 121.62 140.91 128.35 139.14 130.52 130.87 123.48 132.39 121.62"/><polygon class="cls-3" points="128.03 126.6 135.83 134.15 133.85 136.13 126.33 128.3 128.03 126.6"/><path class="cls-3" d="M123.19,131.11l7,8.3c-.73,.59-1.42,1.22-2.17,1.77l-6.69-8.56c.65-.47,1.24-1.02,1.86-1.52Z"/><path class="cls-3" d="M117.92,135.11l6.12,8.97c-.77,.52-1.54,1.07-2.34,1.54l-5.79-9.19c.69-.4,1.34-.87,2.01-1.32Z"/><path class="cls-3" d="M112.28,138.55l5.18,9.55c-.82,.45-1.64,.9-2.49,1.29l-4.82-9.74c.73-.33,1.43-.71,2.13-1.11Z"/><path class="cls-3" d="M106.32,141.4l4.18,10.03c-.86,.38-1.73,.72-2.61,1.03l-3.8-10.18c.76-.26,1.5-.55,2.23-.88Z"/><path class="cls-3" d="M100.09,143.63l3.14,10.4c-.89,.29-1.79,.54-2.7,.76l-2.76-10.51c.78-.19,1.56-.4,2.31-.65Z"/><path class="cls-3" d="M93.67,145.22l2.08,10.66c-.91,.2-1.83,.36-2.76,.49l-1.69-10.73c.8-.11,1.59-.25,2.37-.42Z"/><path class="cls-3" d="M87.11,146.16l1.01,10.82c-.93,.1-1.86,.18-2.79,.21l-.61-10.84c.8-.02,1.6-.09,2.4-.18Z"/><path class="cls-3" d="M80.5,146.44l-.09,10.86c-.94,.01-1.87-.01-2.8-.08l.5-10.85c.8,.06,1.6,.08,2.4,.06Z"/><path class="cls-3" d="M73.9,146.05l-1.2,10.8c-.93-.08-1.86-.21-2.78-.36l1.6-10.74c.79,.13,1.58,.24,2.38,.31Z"/><path class="cls-3" d="M67.38,144.99l-2.29,10.62c-.92-.17-1.82-.42-2.73-.65l2.69-10.52c.78,.2,1.55,.42,2.34,.56Z"/><path class="cls-3" d="M60.99,143.27l-3.36,10.33c-.9-.26-1.76-.62-2.65-.92l3.74-10.2c.76,.26,1.5,.57,2.27,.79Z"/><polygon class="cls-3" points="54.81 140.91 50.42 150.85 47.88 149.66 52.64 139.89 54.81 140.91"/><polygon class="cls-3" points="48.9 137.94 43.53 147.38 41.12 145.94 46.84 136.7 48.9 137.94"/><polygon class="cls-3" points="43.32 134.37 37.03 143.23 34.77 141.57 41.38 132.95 43.32 134.37"/><polygon class="cls-3" points="38.13 130.27 30.98 138.45 28.89 136.57 36.34 128.66 38.13 130.27"/><path class="cls-3" d="M33.38,125.67l-7.94,7.41c-.63-.69-1.28-1.36-1.88-2.08l8.21-7.12c.51,.61,1.08,1.19,1.62,1.78Z"/><path class="cls-3" d="M29.11,120.61l-8.65,6.57c-.56-.75-1.15-1.48-1.66-2.26l8.89-6.25c.43,.67,.95,1.29,1.42,1.94Z"/><path class="cls-3" d="M25.39,115.15l-9.27,5.66c-.49-.8-.98-1.59-1.42-2.42l9.48-5.31c.37,.71,.8,1.39,1.22,2.07Z"/><path class="cls-3" d="M22.24,109.34l-9.8,4.68c-.42-.84-.81-1.69-1.16-2.55l9.97-4.31c.3,.74,.64,1.47,1,2.19Z"/><path class="cls-3" d="M19.69,103.23l-10.23,3.66c-.33-.87-.63-1.76-.9-2.66l10.35-3.28c.23,.77,.48,1.53,.77,2.28Z"/><path class="cls-3" d="M17.78,96.9l-10.54,2.61c-.25-.9-.45-1.81-.62-2.73l10.63-2.22c.15,.79,.32,1.57,.53,2.35Z"/><path class="cls-3" d="M16.52,90.4l-10.75,1.55c-.15-.92-.27-1.85-.35-2.78l10.8-1.15c.06,.8,.17,1.6,.3,2.39Z"/><path class="cls-3" d="M15.9,83.81l-10.85,.46c-.06-.93-.08-1.87-.07-2.8l10.86-.06c-.02,.8,0,1.6,.06,2.4Z"/><path class="cls-3" d="M15.96,77.2l-10.84-.65c.03-.94,.11-1.87,.22-2.8l10.81,1.05c-.09,.8-.16,1.59-.19,2.39Z"/><path class="cls-3" d="M16.69,70.63l-10.72-1.75c.13-.93,.32-1.84,.51-2.76l10.65,2.14c-.16,.78-.33,1.57-.43,2.36Z"/><path class="cls-3" d="M18.08,64.16l-10.49-2.83c.21-.91,.52-1.79,.79-2.69l10.37,3.22c-.23,.77-.5,1.52-.67,2.31Z"/><path class="cls-3" d="M20.12,57.87l-10.15-3.88c.32-.88,.71-1.73,1.06-2.6l10,4.25c-.3,.74-.64,1.47-.91,2.23Z"/><polygon class="cls-3" points="22.79 51.82 13.09 46.93 14.4 44.46 23.92 49.7 22.79 51.82"/><polygon class="cls-3" points="26.06 46.07 16.9 40.23 18.46 37.89 27.4 44.06 26.06 46.07"/><polygon class="cls-3" points="29.9 40.67 21.38 33.94 23.15 31.77 31.42 38.81 29.9 40.67"/><polygon class="cls-3" points="34.26 35.7 26.46 28.14 28.44 26.15 35.96 33.99 34.26 35.7"/><path class="cls-3" d="M39.1,31.18l-7-8.3c.73-.59,1.42-1.22,2.17-1.77l6.69,8.56c-.65,.47-1.24,1.02-1.86,1.52Z"/><path class="cls-3" d="M44.37,27.18l-6.12-8.97c.77-.52,1.54-1.07,2.34-1.54l5.79,9.19c-.69,.4-1.34,.87-2.01,1.32Z"/><path class="cls-3" d="M50.01,23.74l-5.18-9.55c.82-.46,1.64-.9,2.49-1.29l4.82,9.73c-.73,.33-1.43,.71-2.13,1.11Z"/><path class="cls-3" d="M55.97,20.89l-4.18-10.03c.86-.38,1.73-.72,2.61-1.03l3.8,10.18c-.76,.26-1.5,.55-2.23,.88Z"/><path class="cls-3" d="M62.2,18.66l-3.14-10.4c.89-.29,1.79-.54,2.7-.76l2.76,10.51c-.78,.19-1.56,.4-2.31,.65Z"/><path class="cls-3" d="M68.62,17.07l-2.08-10.66c.91-.2,1.83-.36,2.76-.49l1.69,10.73c-.8,.1-1.59,.24-2.37,.42Z"/><path class="cls-3" d="M75.18,16.13l-1-10.82c.93-.1,1.86-.18,2.79-.21l.61,10.84c-.8,.02-1.6,.09-2.4,.18Z"/><path class="cls-3" d="M81.79,15.85l.09-10.86c.93,0,1.87,.01,2.8,.08l-.49,10.85c-.8-.06-1.6-.08-2.4-.06Z"/><path class="cls-3" d="M88.39,16.24l1.2-10.79c.93,.08,1.86,.21,2.78,.36l-1.6,10.74c-.79-.13-1.58-.25-2.38-.31Z"/><path class="cls-3" d="M94.91,17.3l2.29-10.62c.92,.17,1.82,.42,2.73,.65l-2.68,10.53c-.78-.2-1.55-.41-2.34-.56Z"/><path class="cls-3" d="M101.3,19.02l3.36-10.33c.9,.26,1.76,.62,2.65,.92l-3.74,10.2c-.76-.26-1.5-.57-2.27-.79Z"/><polygon class="cls-3" points="107.48 21.38 111.87 11.44 114.4 12.63 109.65 22.4 107.48 21.38"/><polygon class="cls-3" points="113.39 24.35 118.76 14.91 121.17 16.35 115.45 25.59 113.39 24.35"/><polygon class="cls-3" points="118.97 27.92 125.26 19.06 127.52 20.72 120.9 29.34 118.97 27.92"/><polygon class="cls-3" points="124.16 32.02 131.31 23.84 133.4 25.72 125.95 33.63 124.16 32.02"/><path class="cls-3" d="M128.91,36.62l7.94-7.41c.63,.69,1.28,1.36,1.88,2.08l-8.21,7.12c-.51-.62-1.08-1.19-1.62-1.78Z"/><path class="cls-3" d="M133.17,41.68l8.65-6.57c.56,.75,1.15,1.48,1.66,2.26l-8.88,6.25c-.43-.67-.95-1.29-1.42-1.94Z"/><path class="cls-3" d="M136.9,47.14l9.27-5.66c.49,.8,.98,1.59,1.42,2.42l-9.48,5.31c-.37-.71-.79-1.39-1.22-2.07Z"/><path class="cls-3" d="M140.05,52.95l9.8-4.68c.42,.84,.81,1.68,1.16,2.55l-9.97,4.32c-.3-.74-.64-1.47-1-2.19Z"/><path class="cls-3" d="M142.59,59.06l10.23-3.66c.33,.87,.63,1.76,.89,2.66l-10.35,3.28c-.23-.77-.48-1.53-.77-2.28Z"/><g><path class="cls-3" d="M144.51,65.39l10.54-2.61c.25,.9,.45,1.81,.62,2.73l-10.63,2.22c-.15-.79-.32-1.57-.53-2.35Z"/><g><path class="cls-4" d="M144.57,56.01c-.87-2.13-1.82-4.23-2.87-6.29-1.08-2.04-2.23-4.03-3.49-5.96-1.28-1.92-2.63-3.79-4.08-5.57-1.46-1.78-2.99-3.51-4.62-5.13-1.63-1.63-3.33-3.19-5.12-4.64-1.78-1.47-3.62-2.85-5.56-4.1-1.91-1.29-3.9-2.46-5.94-3.53-2.03-1.08-4.13-2.04-6.27-2.91-2.13-.87-4.32-1.61-6.53-2.26-2.21-.64-4.46-1.16-6.72-1.59-2.27-.4-4.56-.69-6.85-.89-2.3-.16-4.6-.22-6.91-.19-2.3,.07-4.6,.25-6.89,.51-2.29,.3-4.56,.7-6.81,1.2-2.24,.53-4.46,1.16-6.65,1.87-2.18,.75-4.32,1.6-6.43,2.54-2.09,.97-4.14,2.03-6.13,3.18-1.98,1.18-3.91,2.43-5.77,3.79-1.85,1.37-3.65,2.81-5.36,4.36-1.71,1.54-3.35,3.16-4.89,4.88-1.55,1.7-3.03,3.48-4.38,5.35-1.39,1.84-2.65,3.77-3.82,5.76-1.19,1.97-2.25,4.02-3.22,6.11-.98,2.09-1.83,4.23-2.59,6.41-.76,2.18-1.38,4.39-1.93,6.63-.52,2.24-.93,4.51-1.24,6.79-.28,2.29-.46,4.58-.54,6.89-.04,2.31,.01,4.61,.17,6.91,.19,2.3,.48,4.58,.86,6.86,.42,2.27,.93,4.52,1.54,6.74,.64,2.22,1.38,4.4,2.21,6.55,.87,2.14,1.81,4.23,2.86,6.29,1.08,2.04,2.23,4.03,3.49,5.96,1.28,1.92,2.63,3.79,4.08,5.57,1.46,1.78,2.99,3.51,4.62,5.13,1.63,1.63,3.33,3.19,5.12,4.64,1.78,1.46,3.62,2.85,5.56,4.1,1.91,1.29,3.9,2.46,5.94,3.53,2.03,1.08,4.13,2.04,6.26,2.91,2.13,.87,4.32,1.61,6.53,2.26,2.21,.64,4.46,1.16,6.72,1.59,2.27,.4,4.55,.69,6.85,.89,2.3,.16,4.6,.23,6.91,.19,2.3-.07,4.6-.25,6.89-.51,2.29-.3,4.56-.71,6.81-1.2,2.24-.53,4.46-1.16,6.65-1.87,2.18-.75,4.32-1.6,6.42-2.54,2.09-.97,4.14-2.03,6.13-3.18,1.98-1.18,3.91-2.43,5.77-3.79,1.85-1.37,3.65-2.81,5.36-4.36,1.71-1.54,3.35-3.16,4.89-4.87,1.55-1.7,3.03-3.48,4.38-5.35,1.39-1.84,2.65-3.77,3.82-5.76,1.19-1.97,2.25-4.02,3.22-6.11,.98-2.09,1.83-4.23,2.59-6.41,.75-2.17,1.39-4.39,1.93-6.63,.52-2.24,.93-4.51,1.24-6.79,.28-2.29,.46-4.58,.54-6.89,.04-2.3-.01-4.61-.17-6.91-.19-2.3-.48-4.58-.86-6.86-.42-2.27-.93-4.52-1.54-6.74-.64-2.21-1.38-4.4-2.21-6.55Zm2.87,20.28c.15,2.24,.2,4.49,.16,6.73-.08,2.24-.25,4.48-.53,6.71-.31,2.22-.7,4.43-1.21,6.62-.53,2.18-1.14,4.34-1.88,6.46-.74,2.12-1.57,4.21-2.52,6.24-.95,2.03-1.98,4.03-3.14,5.96-1.14,1.93-2.37,3.82-3.72,5.61-1.32,1.82-2.76,3.55-4.27,5.21-1.5,1.67-3.1,3.25-4.77,4.75-1.67,1.51-3.42,2.91-5.22,4.25-1.81,1.32-3.7,2.55-5.63,3.7-1.94,1.13-3.94,2.15-5.97,3.1-2.05,.92-4.14,1.74-6.26,2.47-2.13,.7-4.29,1.31-6.48,1.83-2.2,.48-4.41,.87-6.64,1.17-2.23,.26-4.47,.43-6.72,.5-2.24,.03-4.49-.02-6.73-.18-2.24-.2-4.46-.48-6.67-.87-2.2-.42-4.4-.93-6.55-1.55-2.15-.64-4.28-1.36-6.36-2.2-2.08-.85-4.13-1.78-6.11-2.84-1.99-1.04-3.93-2.18-5.79-3.44-1.89-1.22-3.69-2.57-5.42-4-1.75-1.41-3.41-2.93-4.99-4.52-1.59-1.59-3.09-3.27-4.51-5-1.42-1.74-2.73-3.56-3.98-5.43-1.23-1.88-2.35-3.82-3.4-5.81-1.02-2-1.95-4.04-2.79-6.12-.81-2.1-1.53-4.22-2.15-6.38-.59-2.17-1.09-4.36-1.5-6.57-.37-2.22-.65-4.45-.84-6.69-.15-2.24-.2-4.48-.16-6.73,.08-2.24,.25-4.48,.53-6.71,.31-2.22,.7-4.43,1.21-6.62,.53-2.18,1.14-4.34,1.88-6.46,.74-2.12,1.57-4.21,2.52-6.24,.94-2.04,1.98-4.03,3.14-5.96,1.14-1.93,2.37-3.82,3.72-5.61,1.32-1.82,2.76-3.55,4.26-5.21,1.5-1.67,3.1-3.25,4.77-4.75,1.67-1.51,3.42-2.91,5.22-4.25,1.81-1.32,3.7-2.55,5.63-3.7,1.94-1.13,3.94-2.15,5.97-3.1,2.05-.91,4.14-1.74,6.26-2.47,2.13-.7,4.29-1.31,6.48-1.83,2.19-.48,4.41-.87,6.64-1.17,2.23-.26,4.47-.43,6.72-.5,2.24-.03,4.49,.02,6.73,.18,2.24,.2,4.46,.48,6.67,.87,2.2,.42,4.39,.93,6.55,1.55,2.15,.64,4.28,1.36,6.36,2.21,2.08,.84,4.13,1.78,6.11,2.84,1.99,1.04,3.93,2.18,5.79,3.44,1.88,1.22,3.68,2.57,5.42,4,1.75,1.41,3.4,2.93,4.99,4.52,1.59,1.58,3.08,3.26,4.5,5,1.42,1.74,2.73,3.56,3.98,5.43,1.23,1.88,2.35,3.82,3.4,5.81,1.02,2,1.95,4.04,2.79,6.12,.8,2.1,1.52,4.22,2.15,6.38,.59,2.17,1.09,4.36,1.5,6.57,.37,2.22,.65,4.45,.84,6.69Z"/><path class="cls-4" d="M153.32,60.72c-.7-2.44-1.51-4.84-2.43-7.2-.95-2.35-2-4.66-3.15-6.92-1.18-2.24-2.46-4.44-3.84-6.56-1.4-2.11-2.89-4.17-4.49-6.13-1.6-1.96-3.29-3.86-5.09-5.65-1.79-1.79-3.66-3.51-5.63-5.1-1.95-1.61-3.99-3.13-6.11-4.51-2.1-1.42-4.29-2.7-6.53-3.88-2.24-1.19-4.54-2.25-6.89-3.2-2.35-.95-4.75-1.77-7.18-2.49-2.44-.7-4.91-1.27-7.4-1.75-2.5-.45-5.01-.76-7.54-.98-2.53-.18-5.07-.25-7.6-.21-2.53,.08-5.06,.27-7.58,.56-2.51,.33-5,.77-7.48,1.32-2.47,.58-4.9,1.27-7.31,2.06-2.4,.83-4.75,1.76-7.07,2.79-2.3,1.07-4.55,2.23-6.75,3.5-2.18,1.3-4.31,2.68-6.35,4.17-2.04,1.51-4.01,3.1-5.9,4.79-1.88,1.7-3.69,3.48-5.38,5.36-1.7,1.87-3.32,3.83-4.81,5.88-1.52,2.02-2.91,4.15-4.2,6.33-1.31,2.17-2.48,4.42-3.54,6.72-1.07,2.29-2.01,4.65-2.85,7.04-.83,2.39-1.53,4.83-2.12,7.3-.58,2.47-1.02,4.97-1.37,7.48-.31,2.52-.51,5.04-.6,7.58-.05,2.54,.01,5.07,.18,7.6,.2,2.53,.53,5.04,.94,7.54,.46,2.49,1.02,4.96,1.69,7.4,.7,2.43,1.51,4.84,2.43,7.2,.95,2.35,2,4.66,3.15,6.92,1.18,2.24,2.46,4.44,3.84,6.56,1.4,2.11,2.89,4.17,4.49,6.13,1.6,1.96,3.29,3.86,5.08,5.65,1.79,1.79,3.66,3.51,5.63,5.1,1.95,1.61,3.99,3.13,6.11,4.51,2.1,1.42,4.29,2.7,6.53,3.88,2.24,1.19,4.54,2.25,6.89,3.2,2.35,.95,4.75,1.77,7.18,2.49,2.44,.7,4.91,1.27,7.4,1.75,2.5,.45,5.01,.76,7.54,.98,2.53,.18,5.06,.25,7.6,.21,2.53-.08,5.06-.27,7.58-.57,2.51-.33,5-.77,7.48-1.32,2.47-.58,4.9-1.27,7.31-2.06,2.4-.83,4.76-1.76,7.07-2.79,2.3-1.07,4.55-2.23,6.75-3.5,2.18-1.3,4.3-2.68,6.35-4.17,2.04-1.51,4.02-3.1,5.9-4.8,1.88-1.7,3.69-3.48,5.38-5.36,1.7-1.87,3.32-3.83,4.81-5.88,1.52-2.02,2.91-4.15,4.2-6.33,1.31-2.17,2.48-4.42,3.54-6.72,1.08-2.3,2.01-4.65,2.85-7.04,.83-2.4,1.53-4.83,2.12-7.3,.57-2.47,1.02-4.97,1.37-7.48,.32-2.52,.51-5.04,.6-7.58,.05-2.54-.01-5.07-.18-7.6-.2-2.53-.52-5.04-.94-7.54-.46-2.49-1.02-4.96-1.69-7.4Zm1.08,22.49c-.09,2.48-.28,4.94-.58,7.4-.34,2.45-.77,4.89-1.34,7.3-.58,2.41-1.26,4.79-2.07,7.13-.82,2.34-1.73,4.64-2.78,6.88-1.04,2.24-2.18,4.44-3.46,6.56-1.26,2.13-2.61,4.21-4.1,6.18-1.45,2-3.04,3.91-4.7,5.74-1.65,1.84-3.42,3.58-5.25,5.24-1.84,1.66-3.77,3.21-5.76,4.68-2,1.46-4.08,2.81-6.21,4.08-2.14,1.24-4.35,2.37-6.59,3.42-2.26,1.01-4.57,1.92-6.91,2.73-2.35,.77-4.73,1.44-7.14,2.01-2.42,.53-4.85,.96-7.31,1.29-2.46,.29-4.93,.48-7.4,.55-2.48,.04-4.95-.03-7.42-.2-2.47-.22-4.92-.53-7.36-.96-2.43-.46-4.85-1.02-7.23-1.71-2.37-.7-4.72-1.5-7.01-2.43-2.29-.93-4.55-1.96-6.73-3.13-2.19-1.15-4.33-2.4-6.38-3.79-2.08-1.35-4.06-2.83-5.97-4.41-1.93-1.56-3.75-3.23-5.5-4.99-1.75-1.75-3.4-3.6-4.97-5.51-1.56-1.92-3.01-3.93-4.39-5.99-1.35-2.07-2.59-4.22-3.75-6.41-1.13-2.21-2.15-4.46-3.08-6.76-.89-2.31-1.68-4.66-2.37-7.03-.66-2.39-1.2-4.8-1.65-7.23-.41-2.44-.72-4.89-.92-7.36-.17-2.47-.22-4.94-.18-7.42,.09-2.47,.28-4.94,.58-7.4,.34-2.45,.77-4.89,1.34-7.3,.58-2.41,1.26-4.79,2.07-7.13,.82-2.34,1.73-4.64,2.78-6.88,1.04-2.24,2.18-4.44,3.46-6.56,1.26-2.13,2.61-4.21,4.1-6.18,1.45-2,3.04-3.91,4.7-5.74,1.65-1.84,3.42-3.58,5.26-5.24,1.84-1.66,3.77-3.21,5.76-4.68,2-1.46,4.08-2.81,6.21-4.08,2.14-1.24,4.34-2.37,6.59-3.42,2.26-1.01,4.57-1.92,6.91-2.73,2.35-.77,4.73-1.44,7.14-2.01,2.42-.53,4.85-.96,7.31-1.29,2.46-.29,4.93-.47,7.4-.55,2.48-.04,4.95,.03,7.42,.2,2.47,.22,4.92,.53,7.36,.96,2.43,.46,4.85,1.02,7.23,1.71,2.37,.7,4.72,1.5,7.01,2.43,2.29,.93,4.55,1.96,6.73,3.13,2.19,1.15,4.33,2.4,6.38,3.79,2.08,1.35,4.06,2.84,5.97,4.41,1.92,1.56,3.75,3.23,5.5,4.99,1.75,1.75,3.4,3.6,4.97,5.51,1.56,1.92,3.02,3.93,4.39,5.99,1.35,2.07,2.59,4.22,3.75,6.41,1.13,2.21,2.15,4.46,3.08,6.76,.89,2.31,1.68,4.66,2.37,7.03,.66,2.39,1.2,4.8,1.65,7.23,.41,2.44,.72,4.89,.92,7.36,.17,2.47,.22,4.94,.18,7.42Z"/></g></g></g><g><path class="cls-2" d="M58.51,62.35c-.13,.03-.19,.11-.16,.24l.78,4.38c.02,.13,.1,.19,.23,.16l13.25-2.33c.39-.07,.74,0,1.05,.24,.31,.22,.49,.52,.56,.89l.27,1.53c.07,.39,0,.75-.22,1.06-.21,.32-.51,.52-.9,.59l-31.32,5.52c-.37,.06-.71-.02-1.03-.25-.32-.22-.52-.53-.59-.92l-.27-1.53c-.07-.37,.02-.71,.24-1.03,.22-.33,.52-.51,.89-.58l12.74-2.25c.11-.02,.15-.1,.12-.23l-.77-4.38c-.02-.13-.09-.19-.19-.17l-9.54,1.68c-.37,.07-.71,0-1.03-.24-.32-.22-.51-.52-.58-.88l-.25-1.41c-.07-.39,0-.74,.24-1.05,.22-.31,.52-.49,.89-.56l9.54-1.69c.11-.02,.15-.09,.12-.22l-.75-4.27c-.02-.1-.08-.15-.18-.13l-7.47,1.32c-.39,.07-.75-.01-1.07-.24-.32-.22-.52-.52-.59-.92l-.28-1.6c-.02-.11-.07-.12-.17-.05-.87,.87-1.78,1.72-2.74,2.54-.3,.24-.65,.35-1.03,.32-.38-.02-.7-.18-.97-.45-.52-.52-1.06-1.01-1.63-1.45-.22-.17-.35-.39-.4-.65-.08-.44,.05-.79,.38-1.03,2.56-2.06,4.92-4.48,7.07-7.26,2.14-2.77,3.8-5.42,4.96-7.97,.41-.85,1.07-1.36,1.95-1.51l2.15-.38c.88-.16,1.68,.08,2.38,.71,2.44,2.23,5.16,4.2,8.17,5.9s6.03,2.95,9.05,3.77c.34,.1,.58,.31,.71,.64,.01,.08,.03,.15,.04,.23,.04,.24,0,.46-.13,.67-.38,.71-.77,1.49-1.16,2.34-.15,.37-.4,.64-.75,.8-.34,.15-.71,.17-1.08,.04-1.15-.41-2.25-.86-3.3-1.35-.12-.06-.17-.04-.15,.06l.27,1.57c.07,.39,0,.75-.23,1.06-.22,.33-.52,.52-.88,.59l-7.82,1.38c-.13,.02-.19,.09-.17,.19l.75,4.27c.02,.12,.1,.18,.23,.16l9.65-1.7c.37-.07,.71,0,1.03,.22,.32,.21,.52,.51,.58,.9l.25,1.41c.06,.37-.02,.71-.24,1.03-.22,.33-.52,.51-.89,.57l-9.66,1.7Zm-14.89-10.83c0,.05,.03,.08,.05,.07l20.02-3.53s.04-.04,.03-.09c-4.95-2.44-8.88-5.07-11.8-7.91-.03-.02-.07-.03-.13-.02s-.09,.03-.11,.06c-1.82,3.84-4.51,7.65-8.06,11.42Z"/><path class="cls-2" d="M74.85,34.28c-.07-.39,0-.74,.24-1.05,.22-.31,.52-.49,.89-.56l30.89-5.44c.36-.07,.71,0,1.02,.22,.32,.21,.52,.52,.58,.9l5.84,33.08c.06,.37-.02,.71-.24,1.03-.22,.33-.52,.51-.89,.58l-2.31,.41c-.39,.07-.75,0-1.07-.24-.32-.22-.52-.52-.58-.88l-.08-.47c-.02-.11-.08-.15-.19-.13l-23.38,4.12c-.11,.02-.15,.08-.13,.19l.08,.47c.07,.37-.01,.71-.24,1.03-.22,.33-.53,.52-.92,.59l-2.07,.37c-.37,.06-.71,0-1.03-.24-.32-.22-.51-.52-.58-.89l-5.83-33.08Zm9.76,27.02c.02,.11,.08,.15,.19,.13l23.38-4.12c.1-.02,.15-.08,.13-.19l-4.36-24.7c-.02-.13-.09-.19-.19-.17l-23.38,4.12c-.1,.02-.15,.09-.12,.22l4.35,24.71Zm18.55-9.6s.01,.05,.01,.08c0,.03,.02,.04,.05,.03l1.25-.22c.37-.06,.71,.02,1.03,.23,.32,.21,.52,.51,.58,.9l.19,1.09c.07,.39,0,.75-.23,1.07-.22,.32-.52,.51-.89,.57l-17.99,3.18c-.37,.06-.71-.02-1.03-.24-.32-.23-.52-.53-.58-.92l-.19-1.09c-.07-.4,0-.75,.24-1.05s.52-.5,.89-.56l6.48-1.15c.13-.02,.19-.1,.16-.23l-.77-4.38c-.02-.11-.09-.15-.22-.12l-5.05,.89c-.39,.07-.74-.02-1.05-.24-.31-.23-.5-.54-.57-.93l-.22-1.22c-.07-.39,0-.74,.22-1.06,.21-.33,.51-.52,.91-.59l5.04-.89c.13-.02,.19-.08,.17-.19l-.6-3.41c-.02-.12-.1-.18-.23-.16l-6.02,1.06c-.39,.07-.75,0-1.07-.23-.32-.22-.52-.52-.58-.89l-.25-1.41c-.07-.39,0-.74,.23-1.05,.23-.31,.54-.49,.93-.56l16.85-2.97c.39-.07,.75,0,1.07,.21s.51,.52,.58,.91l.25,1.41c.07,.37-.01,.71-.24,1.03-.22,.33-.53,.52-.92,.59l-6.06,1.07c-.13,.02-.19,.1-.16,.23l.6,3.41c.02,.1,.09,.14,.22,.11l5.2-.92c.37-.06,.71,.02,1.03,.25,.32,.22,.52,.53,.59,.92l.22,1.21c.07,.39,0,.74-.23,1.07-.23,.32-.52,.52-.89,.58l-.67,.11s-.04,.02-.05,.05c0,.03,0,.05,.03,.07,.89,.65,1.71,1.3,2.44,1.95,.29,.24,.42,.56,.41,.94s-.16,.69-.44,.93l-.67,.52Zm-6.25-3.65c-.13,.02-.19,.09-.17,.19l.77,4.38c.02,.13,.1,.18,.23,.16l3.63-.64c.13-.02,.15-.07,.05-.17-.53-.58-1.24-1.24-2.13-2-.28-.22-.41-.51-.4-.88,.01-.36,.17-.65,.45-.86l.93-.68s.03-.05,.03-.07c0,0-.02-.02-.04-.01l-3.37,.6Z"/></g><g><path class="cls-2" d="M70.52,109.75c.45,.31,.74,.75,.88,1.33s.08,1.12-.18,1.63l-1.27,2.38c-.23,.43-.6,.69-1.09,.78-.49,.08-.92-.05-1.29-.41-1.3-1.21-2.77-2.48-4.4-3.82-.04-.04-.08-.04-.12-.01-.04,.03-.05,.06-.04,.1l3.26,18.52c.09,.52-.02,1.02-.35,1.49-.33,.47-.75,.75-1.28,.84l-2.77,.49c-.56,.1-1.08,0-1.54-.34-.47-.33-.75-.75-.84-1.28l-2.93-16.6s-.03-.06-.07-.07-.07,0-.11,.05c-1.02,1.5-2.09,2.93-3.2,4.29-.32,.37-.74,.54-1.25,.51-.51-.02-.91-.24-1.22-.66-.67-.93-1.34-1.76-2.01-2.5-.29-.34-.48-.71-.55-1.12-.02-.11-.02-.23,0-.35-.01-.54,.15-1.01,.51-1.43,2.17-2.44,4.15-5.28,5.95-8.53s3.23-6.56,4.31-9.93c.04-.2-.03-.29-.22-.26l-10.9,1.92c-.56,.1-1.08,0-1.54-.31-.46-.31-.75-.75-.84-1.31l-.39-2.2c-.09-.52,.02-1.02,.35-1.49,.33-.46,.77-.75,1.34-.85l5.19-.92c.15-.03,.21-.14,.18-.32l-1.39-7.91c-.1-.56,.01-1.07,.34-1.51,.33-.45,.78-.72,1.34-.82l2.77-.49c.53-.09,1.02,.01,1.49,.32,.46,.3,.74,.74,.84,1.31l1.39,7.91c.04,.19,.15,.27,.34,.23l2.09-.37c.07-.01,.15-.04,.21-.1,.22-.08,.42-.14,.61-.17,.41-.07,.83-.01,1.26,.19l1.5,.61c.59,.25,1.01,.64,1.28,1.17,.27,.54,.34,1.09,.2,1.66-.89,4.19-2.28,8.43-4.16,12.73-.09,.17-.04,.28,.11,.33,.4,.28,.86,.56,1.38,.86,.13,.1,.25,.07,.34-.06,.75-1.49,1.48-3.17,2.2-5.05,.18-.5,.52-.84,1.01-1.02,.49-.19,.97-.15,1.45,.12l1.49,.85c.48,.26,.77,.67,.88,1.21,.11,.54,.02,1.03-.29,1.48-.4,.61-.94,1.46-1.62,2.53-.68,1.07-1.16,1.81-1.44,2.21-.09,.13-.07,.25,.06,.34,.88,.58,1.8,1.2,2.77,1.84Zm-5.34-26.31c-.1-.56,.02-1.07,.34-1.52,.33-.45,.76-.71,1.28-.81l26.83-4.73c.57-.1,1.07,0,1.51,.32,.45,.31,.71,.74,.81,1.28,.09,.55,.18,1.05,.26,1.5,2.36,15.15,3.85,25.63,4.46,31.42s.51,9.54-.32,11.24c-.56,1.26-1.18,2.21-1.86,2.83-.68,.63-1.59,1.16-2.72,1.59-1.09,.42-2.84,.85-5.25,1.27-.34,.06-.7,.12-1.07,.19-.57,.06-1.1-.06-1.58-.36-.48-.31-.82-.73-1.04-1.27-.43-1.13-.97-2.17-1.61-3.15-.22-.38-.24-.78-.06-1.19,.19-.39,.48-.64,.9-.71,1.48-.19,3.2-.45,5.16-.79,.86-.15,1.52-.64,1.95-1.45,.63-1.09,.67-4.22,.15-9.41-.52-5.19-1.72-13.75-3.6-25.68-.03-.19-.14-.27-.33-.23l-7.85,1.39c-.19,.03-.26,.14-.23,.33,.45,3.02,.81,5.7,1.06,8.02s.45,4.91,.58,7.76,.08,5.45-.14,7.8-.61,4.75-1.15,7.19c-.54,2.45-1.35,4.77-2.41,6.98-1.07,2.21-2.38,4.28-3.94,6.23-.36,.41-.8,.62-1.34,.64-.54,.02-1.04-.17-1.5-.56-.86-.73-1.8-1.43-2.81-2.06-.4-.28-.64-.66-.73-1.15-.09-.53,.02-.99,.34-1.4,1.42-1.65,2.61-3.42,3.57-5.32,.97-1.9,1.68-3.93,2.13-6.08,.46-2.16,.77-4.23,.94-6.22,.18-2,.17-4.27,0-6.82-.18-2.55-.38-4.8-.61-6.73-.22-1.94-.56-4.29-1.01-7.04-.04-.19-.13-.27-.28-.24l-6.1,1.08c-.53,.09-1.02-.03-1.49-.35-.47-.33-.75-.75-.84-1.28l-.44-2.49Z"/><path class="cls-2" d="M112.82,103.57c-.56,.1-1.09,0-1.57-.31-.48-.3-.81-.73-.98-1.28l-5-17.46-1.34-6.58c-.13-.56-.04-1.07,.29-1.54,.32-.46,.75-.75,1.27-.84l6.61-1.16c.53-.09,1.02,.03,1.49,.35,.46,.33,.73,.78,.79,1.35l.94,6.65,1.33,18.11c.02,.58-.14,1.09-.49,1.54-.35,.45-.8,.72-1.37,.82l-1.98,.35Zm7.68,12.85c-.94,1.26-2.28,2.03-4.01,2.34-1.73,.3-3.26,.04-4.57-.82-1.31-.86-2.12-2.11-2.41-3.77-.29-1.65,.04-3.13,1-4.42,.95-1.29,2.28-2.09,3.97-2.39,1.69-.3,3.21,0,4.55,.89s2.16,2.16,2.45,3.82c.29,1.66-.04,3.11-.98,4.37Z"/></g></g></g></svg>