<?xml version="1.0" encoding="UTF-8"?><svg id="_レイヤー_2" xmlns="http://www.w3.org/2000/svg" viewBox="0 0 257.9 254.19"><defs><style>.cls-1{fill:#fff;stroke-miterlimit:10;stroke-width:1.24px;}.cls-1,.cls-2{stroke:#231815;}.cls-3{fill:#fff000;}.cls-4{fill:#231815;}.cls-2{fill:none;stroke-linecap:round;stroke-linejoin:round;stroke-width:.6px;}</style></defs><g id="_レイヤー_1-2"><g><path class="cls-3" d="M257.9,127.09c0,7.25-13.67,13.22-14.88,20.12-1.24,7.1,9.54,17.37,7.13,23.99-2.45,6.74-17.34,7.67-20.88,13.8-3.58,6.19,3.03,19.54-1.54,24.98-4.58,5.46-18.88,1.25-24.34,5.83-5.44,4.57-3.77,19.39-9.95,22.96-6.13,3.55-18.13-5.28-24.87-2.83-6.62,2.41-10.13,16.91-17.23,18.15-6.9,1.21-15.14-11.2-22.39-11.2s-15.49,12.41-22.39,11.2c-7.1-1.24-10.61-15.74-17.23-18.15-6.74-2.45-18.74,6.37-24.87,2.83-6.18-3.58-4.51-18.4-9.95-22.96-5.46-4.58-19.76-.38-24.34-5.83-4.57-5.44,2.04-18.79-1.54-24.98-3.55-6.13-18.43-7.06-20.88-13.8-2.41-6.62,8.37-16.89,7.13-23.99-1.21-6.9-14.88-12.87-14.88-20.12s13.67-13.22,14.88-20.12c1.24-7.1-9.54-17.37-7.13-23.99,2.45-6.74,17.34-7.67,20.88-13.8,3.58-6.18-3.03-19.54,1.54-24.98,4.58-5.46,18.88-1.25,24.34-5.83,5.44-4.57,3.77-19.39,9.95-22.96,6.13-3.55,18.13,5.28,24.87,2.83C95.95,15.82,99.46,1.33,106.56,.08c6.9-1.21,15.14,11.2,22.39,11.2S144.43-1.13,151.34,.08c7.1,1.24,10.61,15.74,17.23,18.15,6.74,2.45,18.74-6.37,24.87-2.83,6.18,3.58,4.51,18.4,9.95,22.96,5.46,4.58,19.76,.38,24.34,5.83,4.57,5.44-2.04,18.79,1.54,24.98,3.55,6.13,18.43,7.06,20.88,13.8,2.41,6.62-8.37,16.89-7.13,23.99,1.21,6.9,14.88,12.87,14.88,20.12Z"/><g><path class="cls-4" d="M60.9,55.66c.46-.2,1.06-.41,1.85-.41,1.06,0,3.09,.91,3.09,1.6,0,.61-.58,.91-.89,1.62-.23,.58-.58,1.44-1.01,2.46,.68-.1,1.44-.2,2-.2,1.92,0,3.09,1.09,3.09,4.18s-.89,6.69-2.48,8.64c-.76,.91-1.85,1.54-3.14,1.54-.89,0-1.09-.35-1.42-1.24-.15-.43-.35-.71-1.7-1.95l.25-.38c1.34,.79,2.43,1.39,3.04,1.39,.79,0,1.32-.28,1.92-1.19,.94-1.34,1.82-4.58,1.82-7.37,0-1.7-.43-2.48-1.77-2.48-.56,0-1.34,.15-2.18,.35-.71,1.7-1.55,3.62-2.31,5.22-1.34,2.74-2.69,5.45-3.72,7.02-.43,.71-.76,.91-1.22,.91-.43,0-.89-.43-.89-1.14,0-.51,.08-.81,.46-1.29,1.34-1.72,2.53-3.55,3.93-6.23,.58-1.17,1.19-2.53,1.75-3.88-.86,.3-1.65,.61-2.15,.81-1.04,.43-1.42,.71-2.05,.71-.68,0-1.7-1.06-1.9-1.95-.1-.48-.03-1.06,.13-1.55l.46-.08c.33,.73,.56,1.47,1.27,1.47,.81,0,2.94-.56,4.86-.96,.73-1.9,1.24-3.52,1.24-4,0-.3-.08-.53-.41-.71-.41-.2-1.27-.35-1.92-.43v-.48Zm9.85,5.04c1.95,.25,3.37,.89,4.43,2.03,1.09,1.11,1.72,2.81,1.72,4.76,0,1.17-.41,2.08-1.27,2.08-.76,0-.73-.73-1.49-.91-.56-.13-2.05-.1-2.94-.03l-.13-.56c.99-.23,2.38-.51,3.04-.76,.53-.2,.66-.46,.63-1.11-.02-.68-.25-1.82-.99-2.89-.71-1.01-1.7-1.72-3.27-2.05l.25-.56Z"/><path class="cls-4" d="M79.82,56.32v-.51c.66-.15,1.22-.28,1.75-.25,1.34,.05,3.27,1.52,3.27,2.33,0,.58-.53,.81-.76,2.03-.46,2.41-.94,6.31-.94,9.6,0,3.12,.91,4.31,3.77,4.31,4.15,0,7.78-2.61,9.62-5.32l.53,.38c-1.82,4-5.6,6.99-10.28,6.99-3.47,0-5.32-1.7-5.32-6.15,0-3.85,.58-9.55,.58-11.15,0-1.01-.15-1.34-.58-1.62-.41-.28-.94-.48-1.65-.63Zm10.84,5.9c-.58-.79-1.27-1.62-2.53-2.58l.3-.41c1.42,.48,2.53,1.14,3.24,1.77,.68,.58,1.01,1.14,.99,1.7-.03,.43-.3,.68-.73,.68s-.73-.48-1.27-1.17Zm2.51-2.23c-.56-.73-1.39-1.62-2.69-2.48l.3-.41c1.52,.43,2.58,.99,3.24,1.54,.73,.58,1.11,1.19,1.11,1.8,0,.43-.25,.71-.68,.71s-.71-.46-1.29-1.17Z"/><path class="cls-4" d="M106.96,63.51c2.33-1.42,4.66-2.46,7.37-2.46,3.37,0,6.41,2.36,6.41,5.85,0,3.7-2.61,6.94-9.65,8.51l-.25-.56c6.38-2.43,7.7-5.7,7.7-8.54,0-2.38-1.75-4.36-4.56-4.36-2.56,0-5.27,1.37-7.14,2.96-.15,2.66,.13,5.55,.25,6.97,.05,.76,.13,1.24,.13,1.85,0,1.04-.46,2.28-1.22,2.28-.61,0-.89-.33-.99-.94-.13-.63-.23-1.14-.48-1.75-.25-.63-.99-1.87-1.67-2.86-.48,.71-.94,1.37-1.37,1.98-.35,.51-.63,.91-1.06,.91-.43,.03-.81-.41-.81-1.01,0-.56,.13-.91,.61-1.44,1.06-1.14,3.7-4.36,5.45-7.04,.05-.61,.1-1.22,.18-1.8-.81,.43-1.65,.91-2.2,1.24-.53,.35-.76,.89-1.22,.89-.84,0-1.95-1.04-2.23-1.92-.1-.41-.1-.79-.1-1.14l.43-.15c.41,.71,.76,1.11,1.24,1.11,.63,0,2.96-1.04,4.26-1.67,.2-1.67,.38-3.04,.38-3.77,0-.56-.18-.71-.61-.89-.33-.15-.84-.28-1.44-.41v-.51c.51-.18,1.06-.33,1.67-.33,1.19,0,2.56,1.19,2.56,2,0,.48-.3,.81-.56,1.77-.1,.35-.28,.96-.43,1.72l.05,.02c.46,.23,1.01,.76,1.01,1.09,0,.3-.25,.56-.61,.94-.3,.33-.71,.81-1.06,1.29l-.03,.15Zm-1.47,8.36c0-1.11-.05-3.19,.03-5.29-.71,1.06-1.49,2.23-2.28,3.34,.68,.84,1.52,1.75,1.85,2.15,.23,.25,.38,.23,.41-.2Z"/><path class="cls-4" d="M128.09,55.53l.13-.51c2.41,.1,3.8,.66,4.71,1.27,1.22,.79,1.7,1.62,1.7,2.66,0,.66-.3,1.04-.94,1.04-.71,0-1.01-.23-2.13-.23-1.37,0-3.09,.35-3.72,.51-.43,.08-.53,.25-.53,.51,0,.3,.3,.99,.33,1.54,.03,.66-.2,1.29-.38,2.15-.23,1.11-.56,2.36-.56,3.47,.03,.28,.15,.3,.35,.15,2.53-2.03,5.57-3.55,8.46-3.55,3.85,0,5.75,2.56,5.75,5.17,0,4.66-6.94,6.56-12.89,6.13l-.08-.58c1.85-.15,3.72-.48,4.89-.84,4.61-1.37,5.95-3.42,5.95-5.32,0-2.13-1.62-3.62-3.8-3.62-2.84,0-5.85,2.48-7.67,4.61-.46,.58-.76,1.42-1.34,1.42-.35,0-.68-.2-1.04-.61-.35-.38-.56-.91-.56-1.29,0-.46,.18-1.01,.28-1.75,.18-1.42,.63-3.7,.81-4.94,.13-.96,.05-1.57,.05-2.15s.25-1.09,1.09-1.29c1.24-.3,3.7-.86,4.66-1.24,.35-.15,.38-.38,.05-.79-.66-.86-2.03-1.44-3.57-1.92Z"/><path class="cls-4" d="M144.26,57.18l-.18-.73h6.61v-3.01l2.89,.28c-.05,.35-.25,.61-.89,.68v2.05h5.9v-3.01l2.91,.28c-.03,.35-.25,.61-.89,.68v2.05h3.12l1.27-1.7s1.52,1.19,2.36,2.03c-.08,.28-.33,.41-.66,.41h-6.08v1.98c0,.2-.73,.53-1.67,.53h-.35v-2.51h-5.9v2.1c0,.23-.84,.51-1.67,.51h-.33v-2.61h-6.43Zm12.77,11.65c1.85,3.5,5.78,5.14,10.56,5.85v.28c-.84,.2-1.42,.86-1.67,1.85-4.74-1.29-7.88-3.52-9.45-7.98h-.53c-1.14,3.55-4.18,6.43-11.65,7.93l-.13-.43c6.13-1.75,8.74-4.33,9.78-7.5h-9.65l-.2-.71h3.9v-6.84l2.2,.94h4.33v-3.77l2.89,.3c-.08,.33-.25,.58-.86,.68v2.79h4.48l.99-1.29,2.48,1.77c-.2,.25-.51,.41-1.17,.48v4.94h.58l1.24-1.72s1.49,1.22,2.33,2.03c-.08,.28-.33,.41-.66,.41h-9.8Zm-2.89-.71c.28-1.14,.38-2.38,.38-3.65v-1.52h-4.61v5.17h4.23Zm2.41-3.62c-.02,1.27-.13,2.48-.41,3.62h5.19v-5.17h-4.79v1.54Z"/><path class="cls-4" d="M173.65,62.04c4.33,2.33,2.76,5.47,1.29,4.15-.08-1.09-.66-2.46-1.29-3.5v13.32c0,.25-.81,.71-1.49,.71h-.38v-10.71c-.76,1.77-1.7,3.42-2.86,4.91l-.41-.3c1.57-2.96,2.48-6.76,3.01-10.44h-2.63l-.2-.73h3.09v-6l2.76,.3c-.08,.38-.28,.61-.89,.71v4.99h.48l1.06-1.57s1.24,1.11,1.93,1.9c-.08,.28-.3,.41-.63,.41h-2.84v1.85Zm12.06,10.46c-2.03,.81-4.86,1.9-8.79,3.24-.1,.3-.33,.51-.58,.58l-1.19-2.38c1.11-.13,3.14-.46,5.55-.89,.33-1.39,.71-3.22,.94-4.56l2.61,.73c-.08,.3-.38,.53-.94,.51-.46,.91-1.14,2.1-1.82,3.17,1.34-.25,2.74-.51,4.18-.79l.05,.38Zm5.07-14.41s1.14,1.17,1.75,1.98c-.05,.28-.3,.41-.63,.41h-2.05v13.53c0,1.49-.3,2.38-2.76,2.63-.05-.58-.18-1.06-.48-1.39-.35-.3-.91-.53-1.98-.71v-.38s2.3,.18,2.79,.18c.43,0,.56-.15,.56-.51v-13.35h-3.27l.18,.18c-.08,.25-.33,.38-.66,.38h-7.98l-.2-.73h3.24v-2.71h-3.39l-.2-.73h3.6v-3.22l2.66,.28c-.03,.33-.23,.56-.81,.63v2.3h1.32l1.11-1.42s1.24,.99,2,1.75c-.05,.28-.3,.41-.63,.41h-3.8v2.71h.84l1.01-1.32s.86,.68,1.54,1.34l-.15-.61h3.6v-5.83l2.81,.3c-.08,.35-.33,.61-.94,.68v4.71l.94-1.49Zm-8.76,10.23v-.66h-3.55v.46c0,.15-.76,.51-1.47,.51h-.25v-6.54l1.85,.81h3.22l.89-.94,1.87,1.42c-.1,.18-.38,.33-.76,.41v4c-.03,.15-.94,.53-1.52,.53h-.28Zm-4.53,.33c4.08,2.38,1.98,5.5,.53,3.95,.08-1.27-.38-2.81-.84-3.82l.3-.13Zm4.53-1.72v-3.32h-3.55v3.32h3.55Zm3.12-4.41c3.9,3.65,1.9,7.27,.35,5.55,.13-1.77-.28-3.95-.71-5.45l.35-.1Z"/></g><path class="cls-4" d="M98.54,128.13v25.35c0,4.42-2.95,6.78-8.74,7.07-.98,0-1.38-.49-1.67-1.38-.39-1.18-1.18-1.96-2.46-2.65-1.28-.59-3.64-1.28-7.17-1.87-.98-.2-1.47-.79-1.47-1.67,0-.69,.59-.98,1.67-.88,4.52,.39,8.15,.59,11.2,.59,1.87,0,2.85-.98,2.85-2.85v-21.71H53.25c-.88,0-1.38-.39-1.77-1.18-.29-.79,.29-1.28,1.38-1.28h17.78v-22.11c0-.98,.59-1.57,1.77-1.47,5.31,.29,7.96,1.08,7.96,2.26,0,.79-1.38,1.67-4.03,2.65v18.67h16.41v-31.24c0-.98,.49-1.47,1.57-1.47,5.8,.2,8.65,1.08,8.65,2.46,0,.88-1.47,1.87-4.42,2.75v10.71h17.98l3.83-5.31c.69-.88,1.38-.98,2.16-.2,1.96,1.96,3.54,3.64,4.72,5.01,.49,.69,.49,1.38,.1,2.16-.39,.49-.88,.79-1.67,.79h-27.12v14.34h28.79l4.13-5.4c.59-.88,1.38-.98,2.16-.2,1.77,1.57,3.44,3.24,5.01,5.11,.59,.69,.59,1.38,.2,2.06-.39,.59-.88,.88-1.77,.88h-38.51Zm-44.9,31.44c7.17-6.29,13.36-14.74,18.27-25.15,.39-.88,1.08-1.18,2.06-.79,4.72,2.16,7.07,3.83,7.07,5.01,0,.88-1.57,1.38-4.81,1.47-5.4,9.14-12.38,16.31-21.03,21.52-.88,.49-1.47,.39-1.96-.2-.59-.59-.39-1.28,.39-1.87Zm.69,18.86c26.92-5.11,46.87-15.82,59.74-31.93,.59-.69,1.28-.88,2.16-.39,4.13,2.36,6.19,4.13,6.19,5.4,0,.79-.88,1.38-2.75,1.18l-2.26-.2c-10.22,10.41-21.81,17.88-34.58,22.3-7.47,2.55-16.7,4.72-27.61,6.29-.98,.2-1.57-.2-1.96-.98-.49-.79,0-1.47,1.08-1.67Zm59.64-45.88c7.66,3.34,13.56,7.07,17.39,11.1,2.95,3.05,4.42,5.7,4.42,8.06,0,2.55-1.18,3.83-3.44,3.83-1.38,0-2.65-1.18-3.73-3.64-2.85-5.9-8.15-11.59-15.92-17.19-.79-.59-1.08-1.28-.59-1.77,.39-.69,1.08-.79,1.87-.39Z"/><path class="cls-4" d="M200.13,175.41h-11.68c-.23,0-.38,.15-.38,.3-1.06,10.7-4.67,19.82-12.21,27.36-1.21,1.36-3.09-.45-2.03-1.88l.08-.08c6.78-6.78,9.42-16.88,9.8-25.4,0-.15-.15-.3-.3-.3h-18.61c-.15,0-.38,.15-.38,.3-2.71,6.41-6.1,13.19-12.06,17.03-1.58,.98-3.62,1.96-6.1,1.73-2.64-.3-4.82-2.03-5.58-4.37-.75-2.41-.3-4.6,.38-6.48,2.11-5.73,7.69-9.12,13.26-10.48,1.81-.45,3.69-.68,5.88-.75,.15,0,.3-.15,.38-.3,1.51-5.43,2.34-10.48,2.34-15.98,0-1.28-.98-2.26-2.26-2.26h-13.19c-2.03,0-1.88-3.09,.08-3.09h13.87c4.07,0,6.33,2.56,6.33,6.78,0,4.6-.83,9.5-2.26,14.62-.08,.15,.08,.3,.23,.3l17.79-.08c.15,0,.3-.08,.38-.3,0-3.09,.08-5.65,0-8.44,0,0,0-4.37-.08-7.46-.08-1.43,1.13-2.71,2.56-2.71,1.28,0,2.49,.98,2.86,2.11,3.01,8.29,10.1,15.3,11.61,16.96,.45,.3,.75,.9,.75,1.36,.08,.83-.6,1.51-1.43,1.51Zm-41,0c-1.36,.15-2.71,.38-4.07,.75-4.75,1.28-9.04,4.14-10.63,8.67-1.58,4.9,1.66,7.23,5.58,4.37,4.67-3.47,7.39-8.67,9.35-13.49,.08-.15,0-.3-.23-.3Zm37.46-2.86c.3,0,.6-.45,.23-.83-2.34-2.49-4.9-5.5-7.31-9.57-.53-.9-1.06-.6-1.06,.15,0,3.77,.15,6.63-.08,9.95,0,.15,.08,.3,.3,.3h7.91Z"/><path class="cls-4" d="M202.45,76.06c4.76-.93,6.92-3.42,6.92-6.89s-2.47-5.67-5.65-5.67c-.23,0-.46,.02-.71,.04,.5,.62,.96,1.37,.96,2.16,0,.95-.21,2.08-.62,3.2-.81,2.35-3.03,6.04-5.11,6.04-1.37,0-2.74-2.14-2.74-4.57,0-1.89,.93-4,2.66-5.5,1.56-1.39,3.55-2.06,5.69-2.06,4.11,0,7.19,2.74,7.19,6.76,0,3.32-2.18,6.56-8.52,6.93l-.08-.42Zm-.19-12.39c-1.31,.29-2.6,.96-3.57,1.95-1.2,1.22-1.91,2.7-1.91,4.36,0,1.76,.79,3.17,1.58,3.17,1.22,0,2.97-2.93,3.72-4.61,.41-.98,.73-2.2,.73-3.13,0-.68-.23-1.22-.56-1.74Z"/><path class="cls-4" d="M163.39,142.16h-5.08c-.17,0-.34-.08-.44-.23l-5.67-7.98-.87,2.47c2.77,1.28,4.05,4.51,2.9,7.34-1.15,2.83-4.32,4.26-7.2,3.24-2.88-1.01-4.46-4.11-3.58-7.04,.88-2.93,3.9-4.65,6.86-3.91l.4-1.13-4.91-1.12c-.28-.06-.46-.33-.41-.61l.81-4.94c.02-.15,.11-.28,.23-.36,.12-.08,.28-.11,.42-.08l5.86,1.39,.72-2.04c.07-.19,.24-.33,.44-.35,.2-.02,.4,.07,.51,.24,.1,.15,1.04,1.43,2.96,.63,.27-.11,.59,.02,.7,.29,.11,.27-.01,.59-.29,.7-1.6,.67-2.84,.24-3.6-.34l-1.53,4.36,5.65,7.96,3.64-6.95-1.61-.56c-.49-.17-.79-.68-.7-1.19,.09-.52,.53-.89,1.06-.89h4.44c.41,0,.78,.23,.96,.59,.18,.36,.15,.8-.1,1.12l-.91,1.23c-.28,.38-.77,.53-1.22,.37l-.89-.31-.89,1.71,2.78,2.02c1.1-1.22,2.67-1.92,4.32-1.92,3.2,0,5.8,2.57,5.8,5.74s-2.6,5.74-5.8,5.74c-3.03,0-5.51-2.3-5.77-5.23h0Zm5.77,4.15c2.6,0,4.72-2.1,4.72-4.67s-2.12-4.67-4.72-4.67c-1.3,0-2.55,.53-3.45,1.48l3.76,2.74c.19,.14,.27,.38,.19,.6-.07,.22-.28,.37-.51,.37h-4.7c.26,2.33,2.27,4.15,4.7,4.15h0Zm-24.91-4.67c0,1.7,.92,3.26,2.41,4.09,1.48,.82,3.3,.78,4.74-.12,1.44-.9,2.28-2.51,2.19-4.21-.09-1.7-1.09-3.21-2.62-3.95l-1.54,4.38c-.1,.28-.41,.43-.68,.33-.28-.1-.43-.41-.33-.68l1.54-4.38c-1.39-.31-2.84,.02-3.95,.91-1.11,.89-1.76,2.23-1.76,3.65h0Zm23.26-.56l-2.44-1.78c-.32,.54-.52,1.15-.6,1.78h3.04Zm-4.12,0c.08-.85,.36-1.68,.81-2.41l-2.64-1.92-2.27,4.33h4.1Zm-16.85-8.2l4.53,1.04,1.3-3.68-5.19-1.23-.64,3.88Zm17.66,.5l.91-1.23h-4.44l3.52,1.23Zm2.93,1.66c-.14,0-.28-.06-.38-.16-.1-.1-.16-.24-.16-.38s.06-.28,.16-.38c.1-.1,.24-.16,.38-.16h4.08c.3,0,.54,.24,.54,.54s-.24,.54-.54,.54h-4.08Z"/><g><path class="cls-4" d="M142.14,121.36c3.4-.6,8.85-6.12,9.21-9.6-.26-.16-.59-.1-.87-.05-2.78,.49-7.85,4.31-8.52,4.43-.95,.17-1.78-.35-2.39-1.01,1.06-6.04,9.29-15.18,15.21-16.77,.57,.16,1.43,.46,1.55,1.16,.53,3-4.85,8.6-7.58,9.08-1.11,.2-2-.25-2.2-1.39,.21,.37,.69,.34,1.02,.28,2.23-.39,8.52-5.55,8.1-7.91-.04-.25-.43-.15-.57-.13-4.95,.87-13.41,10.69-14.46,15.49l.28-.02c2.95-.52,5.65-3.58,8.49-4.08,.95-.17,2.24,.32,2.6,1.26-.86,3.91-5.19,9.93-9.4,10.67-1.31,.23-1.97-.94-2.6-1.87,.58,.53,1.34,.6,2.09,.46Z"/><path class="cls-4" d="M158.81,101.98c-.68,1.21-1.19,2.53-1.77,3.79,.47-.11,.93-.25,1.41-.33,.39-.07,.78,.21,1,.48v.03s-.64,.08-.64,.08c-.7,.12-1.41,.31-2.1,.46-.76,1.71-3.5,7.5-3.2,9.2,.05,.28,.22,.62,.56,.56,.95-.17,3.08-3.35,3.59-4.19-.54,1.36-2.08,4.67-3.66,4.95-.78,.14-1.63-.92-1.75-1.61-.19-1.08,2.78-7.32,3.32-8.65-.47,.11-.91,.22-1.38,.3-.58,.1-1.08,.05-1.17-.62,.52,.02,1.05-.04,1.56-.13l1.27-.25c.47-1.26,1.55-3.92,1.49-5.23,.65,.12,1.34,.45,1.47,1.18Z"/><path class="cls-4" d="M161.36,113.32c1.17-.38,2.35-1.79,3.11-2.7-.52,1.27-1.72,3.4-3.4,3.18-.49,.77-1.53,2.22-2.51,2.39-.95,.17-1.8-.6-1.96-1.52-.25-1.42,1.65-4.8,2.55-5.9,.26-.82,.93-2.54,1.9-2.72,1.11-.2,1.8,.74,1.97,1.72,.25,1.45-.94,4.3-1.66,5.54Zm-3.47,2.31c.78-.14,1.76-1.57,2.14-2.19-.71-.45-1.05-1.25-1.19-2.06-.43,.82-1.51,2.99-1.34,3.94,.04,.22,.15,.35,.4,.3Zm1.8-3.76c.08,.45,.25,.9,.54,1.25,.88-1.5,1.97-4.28,1.66-6.03-.03-.2-.09-.5-.37-.45-.58,.1-1.1,1.11-1.3,1.58,.21,.05,.39,.1,.58,.21-1.05,1.19-1.4,1.8-1.11,3.44Z"/><path class="cls-4" d="M166.49,107.37c.08,.1,.22,.1,.36,.08,.64-.11,1.53-.9,1.7-.93,.36-.06,.85,.42,1.07,.67-.84,1.07-3.34,5.01-3.1,6.34,.04,.22,.18,.34,.4,.3,1.17-.21,3.9-3.79,4.58-4.77-.48,1-2.94,5.28-4.19,5.5-.72,.13-1.75-.67-1.88-1.36-.21-1.17,1.52-4.26,2.13-5.31-.11,.05-.21,.09-.32,.11-.33,.06-.69-.02-1-.17-1.04,1.73-1.95,3.76-3.45,5.14,1.32-1.64,2.18-3.57,2.96-5.49-.17-.14-.26-.36-.3-.58-.13-.75,.64-1.89,1.27-2.23,.34,0,.79,.24,.88,.59-.28,.71-.66,1.46-1.1,2.09Z"/><path class="cls-4" d="M178.45,103.97c.02,.11-.01,.26-.02,.38-1.8,2.18-8.39,15.71-6.86,17.91-.53-.08-1.59-.58-1.7-1.16-.29-1.67,4.14-10.54,5-12.3l-3.32,4.46c-.13,.05-.29,.14-.43,.16-.81,.14-1.5-.51-1.66-1.26,1.37-2.65,3.12-5.11,4.14-7.93,.48,.12,.91,.44,1.1,.89-.78,1.11-4.08,5.85-3.94,6.95l.21,.19c1.6-.34,6.1-7.56,6.72-9.22,.35,.2,.67,.54,.74,.93Z"/><path class="cls-4" d="M188.38,108.56c1.17-.38,2.35-1.79,3.11-2.7-.52,1.27-1.72,3.4-3.4,3.18-.49,.77-1.53,2.22-2.51,2.39-.95,.17-1.8-.6-1.96-1.52-.25-1.42,1.65-4.8,2.55-5.9,.26-.82,.93-2.54,1.9-2.72,1.11-.2,1.8,.74,1.97,1.72,.25,1.45-.94,4.3-1.66,5.54Zm-3.47,2.31c.78-.14,1.76-1.57,2.14-2.19-.71-.45-1.05-1.25-1.19-2.06-.43,.82-1.51,2.99-1.34,3.94,.04,.22,.15,.35,.4,.3Zm1.8-3.76c.08,.45,.25,.9,.54,1.25,.88-1.5,1.97-4.28,1.66-6.03-.03-.2-.09-.5-.37-.45-.58,.1-1.1,1.11-1.3,1.58,.21,.05,.39,.1,.58,.21-1.05,1.19-1.4,1.8-1.12,3.44Z"/><path class="cls-4" d="M192.41,101.73c.45-1.03,3.04-7.31,4.07-7.49,.47-.08,1.17,.28,1.41,.7-.44,2.23-2.29,4.74-3.64,6.52,.42-.05,.81-.11,1.23-.19,2.25-.4,8.44-1.95,10.02-3.57,.06,.16,.15,.35,.18,.54,.06,.36-.1,.74-.27,1.05-2.89,1.37-8.49,2.44-11.69,2.86l-.48,.54c.79,1.04,1.26,2.25,1.48,3.53,.27,1.5,.19,3.04-.04,4.51-.29,1.77-2.23,8.2-4.37,8.58-.95,.17-2.1-1.15-2.24-1.98-.6-3.42,2.56-11.38,3.93-14.67l-.67-.23c-.06-.68,.64-.63,1.08-.71Zm-2.88,16.38c.02,.14,.08,.27,.16,.4,3.14-1.9,4.8-9.4,4.21-12.76-.16-.92-.46-1.93-1.15-2.61-1.11,2.83-3.71,12.13-3.21,14.97Zm4.07-16.64c1.47-1.92,2.98-3.94,3.5-6.36-1.56,1.88-2.54,4.12-3.5,6.36Z"/></g><g><path class="cls-4" d="M180.93,125.16l-1.66,3.23,1.76,5.43h-1.66l-1.2-3.88-.57,1.1v2.77s-1.55,0-1.55,0v-.88s.01-6.89,.01-6.89v-.88s1.55,0,1.55,0v.88s-.01,1.47-.01,1.47c0,.29-.01,.71-.02,.98h.05c.15-.27,.31-.62,.46-.9l1.17-2.44h1.67Z"/><path class="cls-4" d="M183.8,127.28c1.47,0,1.88,.91,1.88,2.04v3.62c0,.28,.05,.65,.08,.88h-1.38c-.04-.19-.05-.3-.07-.64h-.06c-.53,.47-.92,.71-1.51,.71-.69,0-1.2-.58-1.2-1.48,0-1.03,.41-1.76,1.7-2.36,.39-.18,.8-.34,1.05-.44v-.44c0-.35-.1-.74-.53-.74-.47,0-.58,.42-.61,.9h-1.41c.07-1.25,.7-2.06,2.06-2.06Zm.48,4.89v-1.65c-.63,.3-1.28,.68-1.28,1.51,0,.38,.16,.57,.46,.57,.23,0,.51-.11,.82-.44Z"/><path class="cls-4" d="M185.65,134.48c.13,.01,.3,.04,.46,.04,.42,0,.59-.19,.59-.71v-6.4s1.41,0,1.41,0v.88s-.01,5.73-.01,5.73c0,1.19-.64,1.79-1.68,1.79-.27,0-.57-.04-.76-.08v-1.25Zm1.05-9.32h1.39v1.21h-1.39v-1.21Z"/><path class="cls-4" d="M190.55,127.4v.88s-.01,4.65-.01,4.65v.88s-1.41,0-1.41,0v-.88s.01-4.65,.01-4.65v-.88s1.41,0,1.41,0Zm-1.41-2.24h1.39v1.21h-1.39v-1.21Z"/><path class="cls-4" d="M191.23,127.4h1.32l.54,2.94c.05,.24,.1,.61,.13,.84h.05c.04-.24,.08-.63,.15-.9l.59-2.88h1.05l.61,2.88c.06,.27,.11,.65,.15,.9h.05c.02-.23,.07-.59,.12-.84l.54-2.94h1.31l-1.36,6.42h-1.32l-.47-2.47c-.05-.27-.11-.67-.13-.91h-.05c-.04,.24-.08,.64-.13,.91l-.47,2.47h-1.32l-1.36-6.42Z"/><path class="cls-4" d="M200.38,127.28c1.47,0,1.88,.91,1.88,2.04v3.62c0,.28,.05,.65,.08,.88h-1.38c-.04-.19-.05-.3-.07-.64h-.06c-.53,.47-.92,.71-1.51,.71-.69,0-1.2-.58-1.2-1.48,0-1.03,.41-1.76,1.7-2.36,.39-.18,.8-.34,1.05-.44v-.44c0-.35-.1-.74-.53-.74-.47,0-.58,.42-.61,.9h-1.41c.07-1.25,.7-2.06,2.06-2.06Zm.48,4.89v-1.65c-.63,.3-1.28,.68-1.28,1.51,0,.38,.16,.57,.46,.57,.23,0,.51-.11,.82-.44Z"/><path class="cls-4" d="M206.17,127.33v1.54c-.13-.02-.28-.04-.42-.04-.69,0-1.08,.28-1.08,1.01v3.99s-1.41,0-1.41,0v-.88s.01-4.68,.01-4.68v-.86s1.3,0,1.3,0v.92h.06c.39-.63,.91-1.02,1.34-1.02,.07,0,.15,.01,.19,.02Z"/><path class="cls-4" d="M208.85,127.28c1.47,0,1.88,.91,1.88,2.04v3.62c0,.28,.05,.65,.08,.88h-1.38c-.04-.19-.05-.3-.07-.64h-.06c-.53,.47-.92,.71-1.51,.71-.69,0-1.2-.58-1.2-1.48,0-1.03,.41-1.76,1.7-2.36,.39-.18,.8-.34,1.05-.44v-.44c0-.35-.1-.74-.53-.74-.47,0-.58,.42-.61,.9h-1.41c.07-1.25,.7-2.06,2.06-2.06Zm.48,4.89v-1.65c-.63,.3-1.28,.68-1.28,1.51,0,.38,.16,.57,.46,.57,.23,0,.51-.11,.82-.44Z"/><path class="cls-4" d="M191.21,138.62v.88s-.01,6.89-.01,6.89v.88s-1.54,0-1.54,0v-.88s.01-2.94,.01-2.94h-1.5v3.83s-1.55,0-1.55,0v-.88s.01-6.89,.01-6.89v-.88s1.55,0,1.55,0v.88s-.01,2.57-.01,2.57h1.5v-3.45s1.54,0,1.54,0Z"/><path class="cls-4" d="M193.78,140.86v.88s-.01,4.65-.01,4.65v.88s-1.41,0-1.41,0v-.88s.01-4.65,.01-4.65v-.88s1.41,0,1.41,0Zm-1.41-2.24h1.39v1.21h-1.39v-1.21Z"/><path class="cls-4" d="M198.69,138.62v.88s-.01,6.89-.01,6.89v.88s-1.32,0-1.32,0v-.52h-.06c-.56,.44-.88,.62-1.33,.62-1.25,0-1.25-1.31-1.25-2.44v-1.55c0-1.09,0-2.63,1.31-2.63,.44,0,.76,.17,1.26,.56v-2.7s1.41,0,1.41,0Zm-2.58,4.51v2.02c0,.44,.02,1.04,.55,1.04,.23,0,.42-.11,.63-.22v-3.88c-.23-.1-.4-.15-.56-.15-.62,0-.62,.79-.62,1.17Z"/><path class="cls-4" d="M200.98,144.35v.41c0,.92,0,1.43,.59,1.43s.61-.67,.61-1.11v-.02h1.36v.02c0,.79-.18,1.49-.65,1.91-.29,.27-.7,.41-1.33,.41-.68,0-1.05-.17-1.32-.41-.53-.48-.64-1.31-.64-2.5v-.85c0-1.18,.11-2,.64-2.48,.31-.29,.74-.42,1.33-.42,.63,0,1.02,.15,1.32,.42,.53,.48,.65,1.28,.65,2.48v.7h-2.56Zm0-1.03h1.16v-.04c0-.75,0-1.33-.59-1.33s-.57,.56-.57,1.33v.04Z"/><path class="cls-4" d="M208.5,140.86l-1.27,2.29,1.33,4.13h-1.47l-.86-2.81-.41,.73v2.08s-1.41,0-1.41,0v-.88s.01-6.89,.01-6.89v-.88s1.41,0,1.41,0v.88s-.01,2.44-.01,2.44c0,.36,0,.76-.02,1.1h.06c.15-.33,.25-.52,.44-.87l.69-1.31h1.51Z"/><path class="cls-4" d="M210.68,140.86v.88s-.01,4.65-.01,4.65v.88s-1.41,0-1.41,0v-.88s.01-4.65,.01-4.65v-.88s1.41,0,1.41,0Zm-1.41-2.24h1.39v1.21h-1.39v-1.21Z"/></g><line class="cls-2" x1="50" y1="83.7" x2="214.05" y2="83.7"/><rect class="cls-1" x="60.98" y="213.94" width="141.8" height="30.49" transform="translate(-19.27 12.23) rotate(-4.95)"/><g><path class="cls-4" d="M79.03,243.19l-.27-.15c-.12-.1-.19-.25-.21-.45-.02-.2-.03-.38-.05-.54l-.15-2.69-.12-.41,.03-.68-.43-1.99-.6,.81-.67,.06-.27-.15-.32-.81c-.19,1.08-.31,2.22-.38,3.4-.07,1.19-.45,2.26-1.15,3.22l-.75,.15-.27-.15-.25-.91c.61-1.97,1.01-4,1.2-6.09s.21-4.21,.08-6.33c-.13-.21-.22-.43-.27-.65-.05-.22-.08-.47-.11-.75l.19-.69c.98-.37,2.03-.61,3.14-.74,1.11-.13,2.19-.29,3.25-.5-.19-.21-.41-.36-.67-.45-.26-.09-.51-.18-.74-.27l-.31-.65,.2-.61c.1-.12,.25-.19,.45-.21,.2-.02,.38-.03,.54-.05,.48,.3,.95,.59,1.43,.89,.48,.3,.87,.68,1.2,1.16l1-.09,5.5-.73c.23,.09,.39,.23,.46,.42,.07,.19,.09,.4,.05,.63-2.19,.64-4.49,1.09-6.88,1.36s-4.75,.61-7.08,1.04c.14,.27,.22,.59,.25,.95s.06,.71,.09,1.05c.02,.9,.02,1.8-.02,2.7-.03,.9-.09,1.81-.18,2.72l.09,.08c.52-1.11,.93-2.23,1.22-3.35,.29-1.12,.59-2.26,.88-3.41l.91-.25c.23,.09,.37,.26,.42,.51,.05,.25,.08,.48,.1,.71l-.62,2.58c.23,.09,.36,.25,.38,.47,.02,.22,.04,.45,.06,.67l.11,2.27c.04,.45,.11,.89,.2,1.33s.22,.88,.37,1.32c-.11,.68-.1,1.39,.02,2.11,.12,.72,0,1.38-.33,1.97l-.75,.15Zm9.35-.14l-.61-.2-.83-.77c-.17,.01-.34,0-.51-.04-.17-.04-.35-.11-.52-.21l-.25-.91,.15-.27,.82-.24,.95,.25,.08-.09-.32-3.68,.08-.09-.37-4.18-.09-.08c-.89,.13-1.8,.3-2.74,.49-.94,.2-1.85,.39-2.73,.58l-1.03-.25-.25-.91,.15-.27c.16-.13,.35-.2,.57-.22,.22-.02,.45-.04,.67-.06l.43,.05c.77-.24,1.54-.43,2.31-.58s1.58-.27,2.42-.34l-.06-.67-.21-1.42,.2-.61,.91-.25c.36,.3,.55,.71,.57,1.21,.02,.51,.07,.98,.17,1.42l.84-.07,1.49-.3c.23,.09,.39,.23,.46,.42,.07,.19,.09,.4,.06,.63-.31,.36-.69,.59-1.16,.69-.47,.1-.93,.17-1.37,.2l.4,4.52-.08,.09,.37,4.18c-.03,.28-.06,.58-.09,.89-.03,.31-.15,.59-.35,.83l-.49,.21Zm-5.11-3.51l-.27-.15c-.33-.59-.56-1.23-.67-1.92s-.29-1.37-.51-2.02l.2-.61,.91-.25c.5,.63,.82,1.33,.94,2.11,.12,.78,.28,1.55,.46,2.32-.09,.23-.23,.39-.42,.46-.19,.07-.4,.09-.63,.05Z"/><path class="cls-4" d="M92.86,229.58l-.27-.15-.25-.91,.15-.27c1.04-.37,2.07-.7,3.12-.99,1.04-.29,2.08-.59,3.12-.91,.23,.09,.39,.23,.46,.42,.07,.19,.09,.4,.05,.63-.96,.59-1.97,1.04-3.04,1.36-1.07,.32-2.18,.58-3.35,.8Zm1.75,2.63l-.61-.2-.25-.91,.15-.27c.71-.29,1.43-.55,2.17-.78,.74-.23,1.46-.47,2.17-.7,.23,.09,.39,.23,.46,.42,.07,.19,.09,.4,.05,.63-.57,.5-1.23,.85-1.97,1.06-.74,.21-1.46,.45-2.17,.74Zm.26,3.01l-.61-.2-.25-.91,.15-.27c.71-.23,1.39-.47,2.04-.73,.65-.25,1.34-.47,2.05-.64,.23,.09,.39,.23,.46,.42,.07,.19,.09,.4,.06,.63-.57,.5-1.19,.86-1.84,1.09-.65,.23-1.34,.43-2.06,.6Zm1.44-8.56l-.27-.15c-.15-.38-.36-.73-.64-1.04s-.52-.66-.72-1.03h-.17c-.18-.14-.31-.31-.38-.5-.07-.19-.09-.4-.06-.63l.15-.27,.91-.25c.55,.46,1.04,.95,1.48,1.47,.44,.52,.69,1.15,.75,1.88-.09,.23-.23,.39-.42,.46-.19,.07-.4,.09-.63,.05Zm.28,14.73l-1.12-.24c-.31-.37-.49-.8-.54-1.3-.04-.5-.14-1-.3-1.49,.03-.28,.08-.57,.14-.85,.06-.29,.16-.58,.3-.87,.55-.16,1.11-.33,1.68-.53,.57-.19,1.17-.28,1.79-.28,.23,.09,.47,.23,.71,.4,.24,.18,.45,.37,.64,.58l.22,1.58c-.09,.29-.2,.58-.34,.87-.14,.29-.34,.56-.6,.81-.37,.31-.76,.6-1.19,.86-.43,.26-.89,.42-1.39,.46Zm.92-2.02c.27-.14,.48-.32,.63-.56s.27-.47,.36-.71l-.04-.5c-.12-.1-.27-.14-.43-.13s-.33,.03-.5,.04l-.49,.21-.37,.62-.33,.11,.04,.5,.16,.83,.25-.02,.72-.4Zm13.93,2.07l-.27-.15c-.21-.43-.48-.83-.82-1.19-.34-.36-.69-.7-1.06-1-.15,.18-.31,.29-.48,.34-.17,.04-.36,.07-.58,.09l-.27-.15-.25-.91,.15-.27,.62-.64c-.25-.26-.44-.57-.59-.92-.14-.35-.29-.69-.43-1.02l-.42,.04-1.74,.41v1.01s.17-.01,.17-.01l.75-.15c.23,.09,.39,.23,.46,.42,.07,.19,.09,.4,.06,.63-.15,.24-.34,.41-.59,.52-.24,.11-.5,.2-.78,.28-.02,.4-.03,.77-.03,1.14,0,.36-.12,.7-.38,1l-.75,.15-.27-.15-.32-.73,.12-.6-.17-.07c-.27,.14-.54,.29-.8,.45-.27,.16-.57,.23-.91,.21l-.27-.15-.25-.91,.15-.27c.32-.2,.67-.38,1.05-.56,.38-.17,.76-.31,1.15-.4l.05-1.35-.17-.07c-.44,.15-.87,.32-1.31,.49-.43,.18-.9,.32-1.4,.42l-.52-.21-.25-.91,.15-.27c.44-.15,.86-.3,1.27-.45,.41-.15,.83-.3,1.27-.45l-.52-.21-.25-.91,1.4-2.32-.26-.06-.33,.11-.61-.2-.25-.91,.15-.27c.38-.15,.76-.29,1.14-.44,.38-.15,.79-.24,1.24-.28l-.07-.84-.34,.03-1.15,.35-.61-.2-.25-.91,.15-.27c.32-.14,.68-.26,1.07-.35s.74-.21,1.07-.35l.06-1.19h-1.1s-1.4,.39-1.4,.39l-.27-.15-.25-.91,.15-.27,.64-.39c-.2-.32-.42-.65-.68-1-.26-.34-.38-.74-.36-1.19l.15-.27,.91-.25c.31,.37,.61,.73,.9,1.1s.48,.8,.58,1.3l.67-.06,2.06-.6c-.04-.45,.07-.85,.32-1.21s.47-.74,.66-1.15c.16-.13,.33-.24,.52-.34,.19-.1,.4-.13,.62-.1,.23,.09,.39,.23,.46,.42,.07,.19,.09,.4,.05,.63l-.83,1.17,.17,.07,.75-.15c.23,.09,.39,.23,.46,.42,.07,.19,.09,.4,.05,.63-.47,.43-1.03,.72-1.7,.86-.66,.14-1.29,.32-1.89,.54l-.06,1.27,.33-.03,1.49-.3c.23,.09,.37,.25,.42,.47,.05,.22,.08,.44,.1,.67-.25,.36-.6,.56-1.04,.6-.45,.04-.86,.1-1.25,.19l-.02,.76h.17s2.82-.6,2.82-.6c.23,.09,.39,.23,.46,.42,.07,.19,.09,.4,.06,.63-.15,.24-.34,.41-.59,.52-.24,.1-.47,.2-.69,.27l-.26-.06c-.55,.1-1.1,.24-1.65,.4-.55,.16-1.09,.35-1.64,.56,.18,.1,.27,.23,.29,.4s.03,.33,.04,.5l-1.12,1.62,.17,.07c.1-.12,.22-.19,.36-.2,.14-.01,.29-.03,.46-.04,.18,.1,.31,.21,.41,.34,.1,.13,.13,.31,.09,.54l.25-.02,1.16-.27-.03-.33c-.25-.32-.44-.67-.56-1.05-.12-.38-.2-.8-.24-1.24l.15-.27,.91-.25c.37,.36,.63,.77,.78,1.24,.15,.47,.33,.91,.54,1.35l.5-.04c.22-.08,.42-.18,.61-.31s.42-.18,.7-.15l.62,.37,.15,.75c-.25,.3-.55,.51-.87,.62-.33,.11-.69,.19-1.08,.22v.17s.44,1.06,.44,1.06h.17c.26-.26,.53-.5,.82-.72s.63-.32,1.03-.3c.23,.09,.39,.23,.46,.42,.07,.19,.09,.4,.05,.63-.26,.25-.53,.48-.82,.71-.29,.22-.53,.48-.73,.78l1.12,1.25,.26-.87,.91-.25c.29,.14,.45,.34,.47,.59s.04,.52,.07,.79c-.2,.3-.34,.61-.42,.92-.08,.32-.23,.62-.43,.92l-.99,.26Zm-7.74-6.57v-.17s.05-.17,.05-.17l-.09-.08-.31,.36,.34,.05Zm.26-.87l-.09-.08-.08,.09,.09,.08,.08-.09Zm.08-.09l-.09-.08-.08,.09h.17Zm7.77-.86l-.99-.76c-.18-.15-.33-.35-.43-.59-.11-.24-.14-.51-.11-.79l.15-.27,.91-.25c.26,.37,.58,.7,.97,.97,.39,.28,.58,.67,.57,1.17-.09,.23-.23,.39-.42,.46s-.4,.09-.63,.05Z"/><path class="cls-4" d="M130.69,227.87l-.8-.44c-1.14-.86-2.32-1.65-3.54-2.39-1.22-.74-2.42-1.53-3.62-2.38l-.43-.13c-1.39,.8-2.72,1.7-3.98,2.71-1.26,1.01-2.49,2.05-3.69,3.11l-.45,.63-.67,.06-.44-.21-.25-.91c1.14-1.06,2.32-2.1,3.52-3.13,1.2-1.03,2.47-1.97,3.8-2.82,.49-.21,.94-.48,1.36-.79,.42-.32,.94-.48,1.56-.47,.12,.1,.24,.2,.36,.31s.16,.24,.12,.41c1.37,.84,2.72,1.67,4.06,2.51,1.34,.84,2.67,1.73,3.99,2.69l.15,.75c-.09,.23-.23,.39-.42,.46-.19,.07-.4,.09-.63,.05Zm-.36,11.33l-1.61-1.04v-.17s-.45-.13-.45-.13l-.91-.76-.37,.62c-.59,.28-1.25,.46-1.98,.55s-1.44,.2-2.17,.32l-1.85,.08-2.83,.42-.87-.26-.25-.91,.15-.27,.4-.2v-.17c.48-.77,1.07-1.47,1.74-2.09,.68-.62,1.33-1.24,1.95-1.86-.35-.14-.73-.18-1.15-.11-.42,.06-.82,.11-1.21,.15l-1.83,.25-.27-.15-.25-.91,.15-.27c.65-.23,1.34-.39,2.07-.48,.72-.09,1.45-.17,2.17-.23l1.35-.03,4.82-.76c.23,.09,.39,.23,.46,.42s.09,.4,.06,.63c-1.61,.2-3.04,.79-4.27,1.77-1.24,.98-2.42,2.05-3.56,3.22l-.14,.35h1.01s2.08-.27,2.08-.27l.09,.08c.67-.11,1.3-.21,1.91-.29,.61-.08,1.22-.23,1.82-.45-.25-.32-.52-.62-.8-.9s-.41-.65-.39-1.1l.15-.27,.91-.25c.56,.57,1.08,1.14,1.58,1.72,.5,.58,1.11,1.08,1.82,1.53v.17s1.35,.81,1.35,.81l.15,.75c-.09,.23-.23,.39-.42,.46-.19,.07-.4,.09-.63,.05Zm-5.89-10.45c-.87-.26-1.77-.44-2.7-.52-.94-.09-1.88-.14-2.84-.17l-.25-.91,.15-.27c.16-.13,.33-.21,.52-.26,.19-.04,.4-.08,.62-.1,.96,.03,1.89,.12,2.81,.26,.91,.14,1.82,.29,2.74,.43l.15,.75-.53,.72-.67,.06Z"/><path class="cls-4" d="M134,225.98l-.27-.15-.25-.91,.15-.27c1.04-.37,2.07-.7,3.12-.99,1.04-.29,2.08-.59,3.12-.91,.23,.09,.39,.23,.46,.42,.07,.19,.09,.4,.05,.63-.96,.59-1.97,1.04-3.04,1.36-1.07,.32-2.18,.58-3.35,.8Zm1.75,2.63l-.61-.2-.25-.91,.15-.27c.71-.29,1.43-.55,2.17-.78s1.46-.47,2.17-.7c.23,.09,.39,.23,.46,.42,.07,.19,.09,.4,.06,.63-.57,.5-1.23,.85-1.97,1.06-.74,.21-1.46,.45-2.17,.74Zm.26,3.01l-.61-.2-.25-.91,.15-.27c.71-.23,1.39-.47,2.04-.73,.65-.25,1.34-.47,2.05-.64,.23,.09,.39,.23,.46,.42,.07,.19,.09,.4,.06,.63-.57,.5-1.19,.86-1.84,1.09s-1.34,.43-2.06,.6Zm1.44-8.56l-.27-.15c-.15-.38-.36-.73-.64-1.04-.28-.31-.52-.66-.72-1.03h-.17c-.18-.14-.31-.31-.38-.5-.07-.19-.09-.4-.06-.63l.15-.27,.91-.25c.55,.46,1.04,.95,1.48,1.47,.44,.52,.69,1.15,.75,1.87-.09,.23-.23,.39-.42,.46-.19,.07-.4,.09-.63,.05Zm.28,14.73l-1.12-.24c-.31-.37-.49-.8-.54-1.3s-.14-1-.3-1.49c.03-.28,.08-.57,.14-.86,.06-.29,.16-.58,.3-.87,.55-.16,1.11-.34,1.68-.53,.57-.19,1.17-.28,1.79-.28,.23,.09,.47,.23,.71,.4,.24,.18,.45,.37,.64,.58l.22,1.58c-.09,.29-.2,.58-.35,.87-.14,.29-.34,.56-.6,.81-.37,.31-.76,.6-1.19,.86-.43,.26-.89,.42-1.39,.46Zm.92-2.02c.27-.14,.48-.32,.62-.56,.15-.24,.27-.47,.36-.71l-.04-.5c-.12-.1-.27-.15-.43-.13-.17,.01-.33,.03-.5,.04l-.49,.21-.37,.62-.33,.11,.04,.5,.16,.83,.25-.02,.72-.4Zm13.93,2.07l-.27-.15c-.21-.43-.48-.83-.82-1.19-.34-.36-.69-.7-1.06-1-.15,.18-.31,.29-.48,.34s-.36,.07-.58,.09l-.27-.15-.25-.91,.14-.27,.62-.64c-.25-.26-.44-.57-.59-.92-.14-.35-.29-.69-.43-1.02l-.42,.04-1.74,.41v1.01s.17-.01,.17-.01l.75-.15c.23,.09,.39,.23,.46,.42,.07,.19,.09,.4,.05,.63-.15,.24-.34,.41-.59,.51s-.5,.2-.78,.28c-.02,.4-.03,.77-.03,1.14,0,.36-.12,.7-.38,1l-.75,.15-.27-.15-.32-.73,.12-.6-.17-.07c-.27,.14-.54,.29-.8,.45-.27,.16-.57,.23-.91,.21l-.27-.15-.25-.91,.15-.27c.32-.2,.67-.38,1.05-.56,.38-.17,.76-.31,1.15-.4l.05-1.35-.17-.07c-.44,.15-.87,.32-1.31,.49-.43,.18-.9,.32-1.4,.42l-.52-.21-.25-.91,.15-.27c.44-.15,.86-.3,1.27-.45,.41-.15,.83-.3,1.27-.45l-.52-.21-.25-.91,1.4-2.32-.26-.06-.33,.11-.61-.2-.25-.9,.15-.27c.38-.15,.76-.29,1.14-.44,.38-.15,.79-.24,1.24-.28l-.07-.84-.34,.03-1.15,.35-.61-.2-.25-.91,.15-.27c.32-.14,.68-.26,1.07-.35,.39-.09,.74-.21,1.07-.35l.06-1.19h-1.1s-1.4,.39-1.4,.39l-.27-.15-.25-.91,.15-.27,.64-.39c-.2-.32-.42-.65-.68-1-.26-.34-.38-.74-.36-1.19l.15-.27,.91-.25c.31,.37,.61,.73,.9,1.1,.29,.37,.48,.8,.58,1.3l.67-.06,2.06-.6c-.04-.45,.07-.85,.32-1.21s.47-.74,.66-1.15c.16-.13,.33-.24,.52-.34,.19-.1,.4-.13,.62-.1,.23,.09,.39,.23,.46,.42,.07,.19,.09,.4,.05,.63l-.83,1.17,.17,.07,.75-.15c.23,.09,.39,.23,.46,.42,.07,.19,.09,.4,.05,.63-.47,.43-1.03,.72-1.69,.86s-1.29,.32-1.89,.54l-.06,1.27,.33-.03,1.49-.3c.23,.09,.37,.25,.42,.47,.05,.22,.08,.44,.1,.67-.25,.36-.6,.56-1.04,.6-.45,.04-.86,.1-1.25,.19l-.02,.76h.17s2.82-.6,2.82-.6c.23,.09,.39,.23,.46,.42,.07,.19,.09,.4,.05,.63-.15,.24-.34,.41-.59,.52-.24,.1-.47,.2-.69,.27l-.26-.06c-.55,.1-1.1,.24-1.65,.4-.55,.16-1.09,.35-1.64,.56,.18,.1,.27,.23,.29,.4s.03,.33,.04,.5l-1.12,1.62,.17,.07c.1-.12,.22-.19,.36-.2s.29-.03,.46-.04c.18,.1,.31,.21,.41,.34,.1,.13,.13,.31,.09,.54l.25-.02,1.16-.27-.03-.33c-.25-.32-.44-.67-.56-1.05-.12-.38-.2-.8-.24-1.24l.15-.27,.91-.25c.37,.36,.63,.77,.78,1.24,.15,.47,.33,.91,.54,1.35l.5-.04c.22-.08,.42-.18,.61-.31s.42-.18,.7-.15l.62,.37,.15,.75c-.25,.3-.55,.51-.87,.62-.33,.11-.69,.19-1.08,.22v.17s.45,1.06,.45,1.06h.17c.26-.26,.53-.5,.82-.72,.29-.22,.63-.32,1.03-.3,.23,.09,.39,.23,.46,.42,.07,.19,.09,.4,.06,.63-.26,.25-.53,.48-.82,.71-.29,.22-.53,.48-.73,.78l1.12,1.25,.26-.87,.91-.25c.29,.14,.45,.34,.47,.59s.04,.52,.07,.79c-.2,.3-.34,.61-.42,.92-.08,.32-.23,.62-.43,.92l-.99,.26Zm-7.74-6.57v-.17s.05-.17,.05-.17l-.09-.08-.31,.36,.34,.05Zm.26-.87l-.09-.08-.08,.09,.09,.08,.08-.09Zm.08-.09l-.09-.08-.08,.09h.17Zm7.77-.86l-.99-.76c-.18-.15-.33-.35-.43-.6-.11-.24-.14-.51-.11-.79l.15-.27,.91-.25c.26,.37,.58,.7,.97,.97,.39,.28,.58,.67,.57,1.17-.09,.23-.23,.39-.42,.46s-.4,.09-.63,.05Z"/><path class="cls-4" d="M163.65,222.38l-.09-.08-5.27,.46-.95-.25c-.23-.66-.41-1.35-.56-2.1-.15-.75-.26-1.48-.32-2.21l.21-.44,.91-.25,.45,.3,2.33-.37,1.26-.03,.08-.09,3.35-.29,.51,.04,2.34-.29c.17,.04,.34,.08,.52,.12s.32,.14,.45,.3c.12,.1,.19,.25,.21,.45,.02,.2,.03,.38,.05,.54-.29,.59-.5,1.21-.64,1.87-.14,.66-.41,1.26-.81,1.8l-4,.52Zm-4.78,14.75l-.27-.15-.25-.91,.15-.27,1.89-1.51-.43-.05-1.08,.18-.27-.15c-.14-.32-.28-.65-.42-.97-.14-.32-.23-.68-.26-1.07l-.04-2.44-.49-3.67v-.93s-.15-.83-.15-.83l.15-.27c.38-.15,.78-.25,1.2-.32,.42-.06,.85-.12,1.29-.16,.85,.04,1.72,.03,2.61-.02s1.79-.09,2.69-.11l3.51-.31,.62,.37c.19,.21,.28,.45,.28,.73,0,.28,0,.56,.03,.84l-.04,2.45,.3,3.43c-.04,.23-.04,.47-.02,.72s-.1,.44-.37,.58c-1.2,.39-2.41,.7-3.63,.95-1.22,.25-2.46,.48-3.73,.71l.15,.75c-.52,.44-1.04,.91-1.56,1.4-.52,.5-1.14,.83-1.85,1.01Zm7.72-16.78c.2-.3,.33-.62,.38-.96,.05-.34,.12-.66,.21-.95l-1.34,.12-.75,.15-3.19,.19-1.5,.22-.59-.03-1.58,.22,.07,.84,.33,.9,.09,.08,4.77-.42,1.93-.08,1.16-.27Zm1.5,6.53l-.15-1.76,.06-.26c-1.51,.13-3,.23-4.48,.31s-2.98,.12-4.5,.14l.03,1.35,1.92-.17,4.92-.68c.29,.09,.61,.09,.97,0,.36-.09,.66,0,.91,.26l.25,.91,.08-.09Zm.12,4.21l-.03-.33-.16-3.78-.09-.08c-.19,.36-.49,.53-.88,.54-.39,0-.76,.02-1.09,.05l-1.6,.06-5.08,.7,.08,.92h.93s.08-.09,.08-.09l3.43-.3,.34,.05,1.5-.22c.23,.09,.39,.23,.46,.42,.07,.19,.09,.4,.06,.63-.25,.36-.6,.56-1.04,.6-.45,.04-.86,.1-1.25,.19l-3.27,.2-.75,.15-.26-.06-.02,1.69,.11,.24,1-.09c1.27-.22,2.55-.45,3.82-.67,1.27-.22,2.51-.5,3.72-.83Zm3.27,5.53l-1.13-.41-.82-.69-1.49-.63-.25-.91,.15-.27,.91-.25c.58,.23,1.14,.52,1.68,.86,.54,.35,1.1,.66,1.69,.95l.15,.75c-.1,.18-.23,.3-.39,.37-.16,.07-.32,.14-.49,.21Z"/><path class="cls-4" d="M177.87,235.3l-.27-.15-.42-.98c.09-.29,.13-.59,.13-.9,0-.31,.01-.63,.04-.97l-.81-5.41,.06-.26-.92,.08-1.32,.37-.27-.15-.25-.91,2.48-3.42c-.41-.19-.82-.39-1.23-.61-.41-.22-.85-.36-1.3-.43l-.25-.91,.44-.8,2.18-3.06c.16-.12,.33-.24,.52-.34,.19-.1,.4-.13,.62-.1,.23,.09,.39,.23,.46,.42,.07,.19,.09,.4,.05,.63l-2.17,3.14c.29,.09,.58,.2,.87,.34,.29,.14,.59,.29,.88,.43l.83-1.08,.67-.06c.23,.09,.39,.23,.46,.42,.07,.19,.09,.4,.05,.63l-.9,1.26c.17,.04,.33,.07,.47,.09s.28,.1,.4,.26c.16,.55,.48,1.03,.97,1.43,.48,.41,.75,.92,.81,1.53-.09,.23-.23,.39-.42,.46-.19,.07-.4,.09-.63,.05l-.99-.76-1.29,.62c.37,.98,.61,2.04,.74,3.18,.13,1.14,.27,2.27,.42,3.38-.08,.4-.1,.81-.06,1.23,.04,.42-.07,.81-.32,1.17l-.75,.15Zm-3.64-2.04l-.27-.15-.32-.81c.16-.75,.36-1.47,.61-2.16,.25-.7,.45-1.42,.61-2.16l.91-.25c.23,.09,.37,.25,.42,.47,.05,.22,.08,.44,.1,.67-.16,.75-.34,1.46-.53,2.16-.19,.69-.46,1.39-.79,2.09l-.75,.15Zm3.86-8.94l.07-.17-.23-.74,.07-.17-.09-.08-1.21,1.62,.26,.06,1.14-.52Zm13.54,9.19l-.96-.42-.25-.91,.15-.27,.82-.24,.09,.08,.05-2.37-.42,.04-1.32,.29v1.94s.16,.83,.16,.83c-.09,.23-.23,.39-.42,.46-.19,.07-.4,.09-.63,.06l-.27-.15c-.13-.16-.23-.36-.31-.61-.08-.25-.13-.48-.15-.7l.04-1.44-.59-.03c-.02,.45,.02,.91,.12,1.38,.1,.47,.02,.88-.23,1.24l-.75,.15-.27-.15c-.25-.32-.38-.7-.4-1.15-.01-.45-.04-.9-.08-1.34l-.67,.06-.75,.15c-.06,.57-.05,1.16,.03,1.77,.08,.61,0,1.18-.23,1.71l-.91,.25-.27-.15-.25-.91,.04-2.45-.33-1.83c-.18,.47-.38,.91-.6,1.32-.22,.41-.51,.8-.87,1.17l-.49,.21-.61-.2-.25-.91,.15-.27,.23-.27,.31-.28c-.17-.04-.36-.05-.55-.04s-.38-.05-.57-.2c-.25-.31-.48-.63-.67-.95-.2-.32-.29-.71-.27-1.16l.15-.27,.91-.25c.3,.25,.53,.54,.67,.87,.14,.33,.39,.61,.75,.86,.44-1.44,.84-2.91,1.22-4.41,.38-1.49,.47-3.02,.27-4.58l-.6-.12-.25-.91,.15-.27,.24-.19,4.02-.35,4-.6c.17,.04,.37,.05,.59,.03,.22-.02,.4,.08,.53,.29l.18,1.08-.37,1.55c-.12,.52-.31,1.01-.54,1.48l-.91,.25-.27-.15c-.82,.24-1.68,.44-2.56,.6s-1.74,.36-2.56,.6c-.02,.4-.1,.8-.23,1.2-.13,.41-.21,.81-.23,1.2l.5-.04c.88-.19,1.78-.37,2.69-.53,.91-.16,1.81-.31,2.7-.45,.51,.01,1.04,0,1.6-.06s1.07,.07,1.55,.37l.22,1.58,.02,1.18,.23,1.67c-.05,.74-.05,1.49-.01,2.28,.04,.78-.14,1.47-.54,2.07l-.99,.25Zm-2-17.11c-.4-.08-.81-.1-1.23-.06-.42,.04-.83,.04-1.22,.02l-.75,.15c-.9,.02-1.81,.06-2.73,.11-.92,.05-1.84,.03-2.75-.05l-.25-.91,.15-.27c.43-.21,.91-.32,1.45-.34,.53-.02,1.05-.05,1.55-.09l3.11-.1,.75-.15c.62,0,1.22,0,1.81,0,.59,0,1.15,.1,1.67,.28l.15,.75c-.14,.35-.37,.54-.71,.57s-.67,.06-1,.09Zm-.37,3.49l.32-1.12-.51-.04-5,.69,.06,1.6,.67-.06c.78-.12,1.54-.27,2.28-.45,.74-.18,1.47-.38,2.18-.61Zm-3.37,8.73l-.11-1.25-.13-.58,.05-.34-.75,.07-.82,.24,.06,.67,.21,1.42,.67-.06,.83-.16Zm2.34-.21l-.15-1.76,.12-.6-.68-.02-.24,.1v.84s.21,1.5,.21,1.5l.75-.07Zm3.15-.61l-.15-1.76,.06-.26-1.6,.06,.11,2.27,.59-.05,.99-.26Z"/></g></g></g></svg>