<?xml version="1.0" encoding="UTF-8"?><svg id="_レイヤー_2" xmlns="http://www.w3.org/2000/svg" viewBox="0 0 255 251.33"><defs><style>.cls-1{fill:#fff;stroke-miterlimit:10;stroke-width:1.23px;}.cls-1,.cls-2{stroke:#231815;}.cls-3{fill:#fff000;}.cls-4{fill:#231815;}.cls-2{fill:none;stroke-linecap:round;stroke-linejoin:round;stroke-width:.6px;}</style></defs><g id="_レイヤー_1-2"><g><path class="cls-3" d="M255,125.66c0,7.17-13.51,13.07-14.71,19.9-1.23,7.02,9.43,17.17,7.05,23.72-2.43,6.66-17.14,7.58-20.65,13.64-3.54,6.12,3,19.32-1.52,24.7-4.53,5.39-18.67,1.24-24.07,5.77-5.38,4.52-3.73,19.17-9.84,22.71-6.06,3.51-17.92-5.22-24.59-2.8-6.55,2.38-10.02,16.72-17.04,17.95-6.83,1.2-14.97-11.07-22.14-11.07s-15.31,12.27-22.14,11.07c-7.02-1.23-10.49-15.56-17.04-17.95-6.66-2.43-18.53,6.3-24.59,2.8-6.12-3.54-4.46-18.19-9.84-22.71-5.39-4.53-19.54-.37-24.07-5.77-4.52-5.38,2.02-18.58-1.52-24.7-3.51-6.06-18.22-6.98-20.65-13.64-2.38-6.55,8.28-16.7,7.05-23.72-1.2-6.83-14.71-12.73-14.71-19.9s13.51-13.07,14.71-19.9c1.23-7.02-9.43-17.17-7.05-23.72,2.43-6.66,17.14-7.58,20.65-13.64,3.54-6.12-3-19.32,1.52-24.7,4.53-5.39,18.67-1.24,24.07-5.77,5.38-4.52,3.73-19.17,9.84-22.71,6.06-3.51,17.92,5.22,24.59,2.8C94.87,15.64,98.34,1.31,105.36,.08c6.83-1.2,14.97,11.07,22.14,11.07S142.81-1.11,149.64,.08c7.02,1.23,10.49,15.56,17.04,17.95,6.66,2.43,18.53-6.3,24.59-2.8,6.12,3.54,4.46,18.19,9.84,22.71,5.39,4.53,19.54,.37,24.07,5.77,4.52,5.38-2.02,18.58,1.52,24.7,3.51,6.06,18.22,6.98,20.65,13.64,2.38,6.55-8.28,16.7-7.05,23.72,1.2,6.83,14.71,12.73,14.71,19.9Z"/><g><path class="cls-4" d="M60.21,55.04c.45-.2,1.05-.4,1.83-.4,1.05,0,3.06,.9,3.06,1.58,0,.6-.58,.9-.88,1.6-.23,.58-.58,1.43-1,2.43,.68-.1,1.43-.2,1.98-.2,1.9,0,3.05,1.08,3.05,4.13s-.88,6.61-2.45,8.54c-.75,.9-1.83,1.53-3.1,1.53-.88,0-1.08-.35-1.4-1.23-.15-.43-.35-.7-1.68-1.93l.25-.38c1.33,.78,2.4,1.38,3,1.38,.78,0,1.3-.28,1.9-1.18,.93-1.33,1.8-4.53,1.8-7.29,0-1.68-.43-2.45-1.75-2.45-.55,0-1.33,.15-2.15,.35-.7,1.68-1.53,3.58-2.28,5.16-1.33,2.7-2.65,5.38-3.68,6.94-.43,.7-.75,.9-1.2,.9-.43,0-.88-.43-.88-1.13,0-.5,.08-.8,.45-1.28,1.33-1.7,2.5-3.51,3.88-6.16,.58-1.15,1.18-2.5,1.73-3.83-.85,.3-1.63,.6-2.13,.8-1.03,.43-1.4,.7-2.03,.7-.68,0-1.68-1.05-1.88-1.93-.1-.48-.02-1.05,.13-1.53l.45-.08c.33,.73,.55,1.45,1.25,1.45,.8,0,2.9-.55,4.81-.95,.73-1.88,1.23-3.48,1.23-3.96,0-.3-.08-.53-.4-.7-.4-.2-1.25-.35-1.9-.43v-.48Zm9.74,4.98c1.93,.25,3.33,.88,4.38,2,1.08,1.1,1.7,2.78,1.7,4.71,0,1.15-.4,2.05-1.25,2.05-.75,0-.73-.73-1.48-.9-.55-.13-2.03-.1-2.9-.03l-.12-.55c.98-.23,2.35-.5,3-.75,.53-.2,.65-.45,.63-1.1-.03-.68-.25-1.8-.98-2.85-.7-1-1.68-1.7-3.23-2.03l.25-.55Z"/><path class="cls-4" d="M78.93,55.69v-.5c.65-.15,1.2-.28,1.73-.25,1.33,.05,3.23,1.5,3.23,2.3,0,.58-.53,.8-.75,2-.45,2.38-.93,6.23-.93,9.49,0,3.08,.9,4.26,3.73,4.26,4.11,0,7.69-2.58,9.52-5.26l.53,.38c-1.8,3.96-5.53,6.91-10.17,6.91-3.43,0-5.26-1.68-5.26-6.08,0-3.81,.58-9.44,.58-11.02,0-1-.15-1.33-.58-1.6-.4-.28-.93-.48-1.63-.63Zm10.72,5.83c-.58-.78-1.25-1.6-2.5-2.55l.3-.4c1.4,.48,2.5,1.13,3.21,1.75,.68,.58,1,1.13,.98,1.68-.02,.43-.3,.68-.73,.68s-.73-.48-1.25-1.15Zm2.48-2.2c-.55-.73-1.38-1.6-2.65-2.45l.3-.4c1.5,.43,2.55,.98,3.21,1.53,.73,.58,1.1,1.18,1.1,1.78,0,.43-.25,.7-.68,.7s-.7-.45-1.28-1.15Z"/><path class="cls-4" d="M105.76,62.8c2.3-1.4,4.61-2.43,7.29-2.43,3.33,0,6.33,2.33,6.33,5.78,0,3.66-2.58,6.86-9.54,8.41l-.25-.55c6.31-2.4,7.61-5.63,7.61-8.44,0-2.35-1.73-4.31-4.51-4.31-2.53,0-5.21,1.35-7.06,2.93-.15,2.63,.12,5.48,.25,6.89,.05,.75,.13,1.23,.13,1.83,0,1.03-.45,2.25-1.2,2.25-.6,0-.88-.33-.98-.93-.12-.63-.23-1.13-.48-1.73-.25-.63-.98-1.85-1.65-2.83-.48,.7-.93,1.35-1.35,1.95-.35,.5-.63,.9-1.05,.9-.43,.02-.8-.4-.8-1,0-.55,.13-.9,.6-1.43,1.05-1.13,3.66-4.31,5.38-6.96,.05-.6,.1-1.2,.18-1.78-.8,.43-1.63,.9-2.18,1.23-.53,.35-.75,.88-1.2,.88-.83,0-1.93-1.03-2.2-1.9-.1-.4-.1-.78-.1-1.13l.43-.15c.4,.7,.75,1.1,1.23,1.1,.63,0,2.93-1.03,4.21-1.65,.2-1.65,.38-3,.38-3.73,0-.55-.18-.7-.6-.88-.33-.15-.83-.28-1.43-.4v-.5c.5-.18,1.05-.33,1.65-.33,1.18,0,2.53,1.18,2.53,1.98,0,.48-.3,.8-.55,1.75-.1,.35-.28,.95-.43,1.7l.05,.02c.45,.23,1,.75,1,1.08,0,.3-.25,.55-.6,.93-.3,.33-.7,.8-1.05,1.28l-.02,.15Zm-1.45,8.26c0-1.1-.05-3.15,.02-5.23-.7,1.05-1.48,2.2-2.25,3.31,.68,.83,1.5,1.73,1.83,2.13,.23,.25,.38,.23,.4-.2Z"/><path class="cls-4" d="M126.65,54.91l.12-.5c2.38,.1,3.76,.65,4.66,1.25,1.2,.78,1.68,1.6,1.68,2.63,0,.65-.3,1.03-.93,1.03-.7,0-1-.23-2.1-.23-1.35,0-3.05,.35-3.68,.5-.43,.08-.53,.25-.53,.5,0,.3,.3,.98,.33,1.53,.03,.65-.2,1.28-.38,2.13-.23,1.1-.55,2.33-.55,3.43,.02,.28,.15,.3,.35,.15,2.5-2,5.51-3.51,8.36-3.51,3.81,0,5.68,2.53,5.68,5.11,0,4.61-6.86,6.49-12.75,6.06l-.08-.58c1.83-.15,3.68-.48,4.83-.83,4.56-1.35,5.88-3.38,5.88-5.26,0-2.1-1.6-3.58-3.76-3.58-2.8,0-5.78,2.45-7.59,4.56-.45,.58-.75,1.4-1.33,1.4-.35,0-.68-.2-1.03-.6-.35-.38-.55-.9-.55-1.28,0-.45,.18-1,.28-1.73,.18-1.4,.63-3.66,.8-4.88,.13-.95,.05-1.55,.05-2.13s.25-1.08,1.08-1.28c1.23-.3,3.66-.85,4.61-1.23,.35-.15,.38-.38,.05-.78-.65-.85-2-1.43-3.53-1.9Z"/><path class="cls-4" d="M142.65,56.54l-.18-.73h6.54v-2.98l2.85,.28c-.05,.35-.25,.6-.88,.68v2.03h5.83v-2.98l2.88,.28c-.03,.35-.25,.6-.88,.68v2.03h3.08l1.25-1.68s1.5,1.18,2.33,2c-.08,.28-.33,.4-.65,.4h-6.01v1.95c0,.2-.73,.53-1.65,.53h-.35v-2.48h-5.83v2.08c0,.23-.83,.5-1.65,.5h-.33v-2.58h-6.36Zm12.62,11.52c1.83,3.46,5.71,5.08,10.44,5.78v.28c-.83,.2-1.4,.85-1.65,1.83-4.68-1.28-7.79-3.48-9.34-7.89h-.53c-1.13,3.51-4.13,6.36-11.52,7.84l-.12-.43c6.06-1.73,8.64-4.28,9.67-7.41h-9.54l-.2-.7h3.86v-6.76l2.18,.93h4.28v-3.73l2.85,.3c-.08,.33-.25,.58-.85,.68v2.75h4.43l.98-1.28,2.45,1.75c-.2,.25-.5,.4-1.15,.48v4.88h.58l1.23-1.7s1.48,1.2,2.3,2c-.08,.28-.33,.4-.65,.4h-9.69Zm-2.85-.7c.28-1.13,.38-2.35,.38-3.61v-1.5h-4.56v5.11h4.18Zm2.38-3.58c-.03,1.25-.13,2.45-.4,3.58h5.13v-5.11h-4.73v1.53Z"/><path class="cls-4" d="M171.7,61.35c4.28,2.3,2.73,5.41,1.28,4.11-.08-1.08-.65-2.43-1.28-3.46v13.17c0,.25-.8,.7-1.48,.7h-.38v-10.59c-.75,1.75-1.68,3.38-2.83,4.86l-.4-.3c1.55-2.93,2.45-6.69,2.98-10.32h-2.6l-.2-.73h3.05v-5.93l2.73,.3c-.08,.38-.28,.6-.88,.7v4.93h.48l1.05-1.55s1.23,1.1,1.9,1.88c-.08,.28-.3,.4-.63,.4h-2.8v1.83Zm11.92,10.34c-2,.8-4.81,1.88-8.69,3.21-.1,.3-.33,.5-.58,.58l-1.18-2.35c1.1-.12,3.1-.45,5.48-.88,.33-1.38,.7-3.18,.93-4.51l2.58,.73c-.08,.3-.38,.53-.93,.5-.45,.9-1.13,2.08-1.8,3.13,1.33-.25,2.7-.5,4.13-.78l.05,.38Zm5.01-14.25s1.13,1.15,1.73,1.95c-.05,.28-.3,.4-.63,.4h-2.03v13.37c0,1.48-.3,2.35-2.73,2.6-.05-.58-.17-1.05-.48-1.38-.35-.3-.9-.53-1.95-.7v-.38s2.28,.17,2.75,.17c.43,0,.55-.15,.55-.5v-13.2h-3.23l.17,.18c-.07,.25-.33,.38-.65,.38h-7.89l-.2-.73h3.21v-2.68h-3.36l-.2-.73h3.56v-3.18l2.63,.28c-.03,.33-.23,.55-.8,.63v2.28h1.3l1.1-1.4s1.23,.98,1.98,1.73c-.05,.28-.3,.4-.63,.4h-3.76v2.68h.83l1-1.3s.85,.68,1.53,1.33l-.15-.6h3.56v-5.76l2.78,.3c-.08,.35-.33,.6-.93,.68v4.66l.93-1.48Zm-8.66,10.12v-.65h-3.51v.45c0,.15-.75,.5-1.45,.5h-.25v-6.46l1.83,.8h3.18l.88-.93,1.85,1.4c-.1,.18-.38,.33-.75,.4v3.96c-.03,.15-.93,.53-1.5,.53h-.28Zm-4.48,.33c4.03,2.35,1.95,5.43,.53,3.91,.07-1.25-.38-2.78-.83-3.78l.3-.12Zm4.48-1.7v-3.28h-3.51v3.28h3.51Zm3.08-4.36c3.86,3.61,1.88,7.19,.35,5.48,.12-1.75-.28-3.91-.7-5.38l.35-.1Z"/></g><path class="cls-4" d="M97.44,126.69v25.07c0,4.37-2.91,6.7-8.65,7-.97,0-1.36-.49-1.65-1.36-.39-1.17-1.17-1.94-2.43-2.62-1.26-.58-3.59-1.26-7.09-1.85-.97-.19-1.46-.78-1.46-1.65,0-.68,.58-.97,1.65-.88,4.47,.39,8.06,.58,11.08,.58,1.85,0,2.82-.97,2.82-2.82v-21.47H52.65c-.87,0-1.36-.39-1.75-1.17-.29-.78,.29-1.26,1.36-1.26h17.58v-21.86c0-.97,.58-1.55,1.75-1.46,5.25,.29,7.87,1.07,7.87,2.23,0,.78-1.36,1.65-3.98,2.62v18.46h16.22v-30.89c0-.97,.49-1.46,1.55-1.46,5.73,.19,8.55,1.07,8.55,2.43,0,.87-1.46,1.85-4.37,2.72v10.59h17.78l3.79-5.25c.68-.87,1.36-.97,2.14-.19,1.94,1.94,3.5,3.59,4.66,4.96,.49,.68,.49,1.36,.1,2.14-.39,.49-.87,.78-1.65,.78h-26.81v14.18h28.47l4.08-5.34c.58-.88,1.36-.97,2.14-.19,1.75,1.55,3.4,3.21,4.95,5.05,.58,.68,.58,1.36,.19,2.04-.39,.58-.87,.87-1.75,.87h-38.08Zm-44.4,31.09c7.09-6.22,13.21-14.57,18.07-24.87,.39-.87,1.07-1.17,2.04-.78,4.66,2.14,7,3.79,7,4.96,0,.87-1.55,1.36-4.76,1.46-5.34,9.04-12.24,16.13-20.79,21.28-.87,.49-1.46,.39-1.94-.19-.58-.58-.39-1.26,.39-1.85Zm.68,18.65c26.62-5.05,46.34-15.64,59.07-31.57,.58-.68,1.26-.88,2.14-.39,4.08,2.33,6.12,4.08,6.12,5.34,0,.78-.87,1.36-2.72,1.17l-2.23-.19c-10.1,10.3-21.57,17.68-34.2,22.05-7.38,2.53-16.52,4.66-27.3,6.22-.97,.19-1.55-.19-1.94-.97-.49-.78,0-1.46,1.07-1.65Zm58.97-45.37c7.58,3.3,13.41,7,17.2,10.98,2.91,3.01,4.37,5.63,4.37,7.97,0,2.53-1.17,3.79-3.4,3.79-1.36,0-2.62-1.17-3.69-3.59-2.82-5.83-8.06-11.46-15.74-17-.78-.58-1.07-1.26-.58-1.75,.39-.68,1.07-.78,1.85-.39Z"/><path class="cls-4" d="M197.89,173.43h-11.55c-.22,0-.37,.15-.37,.3-1.04,10.58-4.62,19.6-12.07,27.05-1.19,1.34-3.06-.45-2.01-1.86l.07-.08c6.71-6.71,9.32-16.69,9.69-25.11,0-.15-.15-.3-.3-.3h-18.41c-.15,0-.37,.15-.37,.3-2.68,6.33-6.04,13.04-11.92,16.84-1.57,.97-3.58,1.94-6.04,1.71-2.61-.3-4.77-2.01-5.51-4.32-.75-2.38-.3-4.55,.37-6.41,2.09-5.66,7.6-9.02,13.12-10.36,1.79-.45,3.65-.67,5.81-.75,.15,0,.3-.15,.37-.3,1.49-5.37,2.31-10.36,2.31-15.8,0-1.27-.97-2.24-2.24-2.24h-13.04c-2.01,0-1.86-3.05,.07-3.05h13.71c4.02,0,6.26,2.53,6.26,6.71,0,4.55-.82,9.39-2.24,14.46-.07,.15,.07,.3,.22,.3l17.59-.08c.15,0,.3-.07,.37-.3,0-3.06,.08-5.59,0-8.35,0,0,0-4.32-.07-7.38-.07-1.42,1.12-2.68,2.53-2.68,1.27,0,2.46,.97,2.83,2.09,2.98,8.2,9.99,15.13,11.48,16.77,.45,.3,.75,.89,.75,1.34,.07,.82-.6,1.49-1.42,1.49Zm-40.54,0c-1.34,.15-2.68,.37-4.02,.75-4.69,1.27-8.94,4.1-10.51,8.57-1.56,4.84,1.64,7.15,5.51,4.32,4.62-3.43,7.3-8.57,9.24-13.34,.07-.15,0-.3-.22-.3Zm37.04-2.83c.3,0,.6-.45,.22-.82-2.31-2.46-4.84-5.44-7.23-9.46-.52-.89-1.04-.6-1.04,.15,0,3.73,.15,6.56-.07,9.84,0,.15,.07,.3,.3,.3h7.83Z"/><path class="cls-4" d="M200.17,75.21c4.71-.92,6.85-3.38,6.85-6.81s-2.44-5.61-5.59-5.61c-.23,0-.46,.02-.71,.04,.5,.61,.95,1.35,.95,2.14,0,.93-.21,2.06-.61,3.17-.8,2.33-2.99,5.97-5.05,5.97-1.35,0-2.71-2.12-2.71-4.52,0-1.87,.92-3.95,2.63-5.44,1.54-1.37,3.51-2.04,5.63-2.04,4.06,0,7.11,2.71,7.11,6.68,0,3.28-2.16,6.48-8.43,6.85l-.08-.42Zm-.19-12.25c-1.3,.29-2.58,.95-3.53,1.93-1.18,1.2-1.89,2.67-1.89,4.31,0,1.74,.78,3.13,1.56,3.13,1.2,0,2.94-2.9,3.68-4.56,.4-.97,.72-2.17,.72-3.09,0-.67-.23-1.2-.55-1.72Z"/><path class="cls-4" d="M161.55,140.56h-5.02c-.17,0-.33-.08-.43-.22l-5.6-7.89-.86,2.45c2.74,1.27,4.01,4.46,2.87,7.26-1.14,2.8-4.27,4.21-7.12,3.21-2.85-1-4.41-4.07-3.54-6.96,.87-2.89,3.86-4.59,6.79-3.86l.39-1.12-4.85-1.11c-.27-.06-.45-.33-.41-.6l.8-4.89c.02-.15,.11-.27,.23-.36,.12-.08,.27-.11,.42-.07l5.8,1.38,.71-2.01c.07-.19,.24-.33,.44-.35,.2-.02,.4,.07,.51,.24,.1,.14,1.03,1.41,2.93,.62,.27-.11,.58,.02,.69,.29,.11,.27-.01,.58-.28,.69-1.58,.66-2.81,.24-3.56-.33l-1.52,4.31,5.59,7.87,3.6-6.87-1.59-.56c-.49-.17-.78-.67-.7-1.18,.09-.51,.53-.88,1.05-.88h4.39c.4,0,.77,.23,.95,.58,.18,.36,.14,.79-.09,1.11l-.9,1.22c-.28,.37-.76,.52-1.2,.37l-.88-.31-.88,1.69,2.75,2c1.09-1.21,2.64-1.9,4.27-1.89,3.17,0,5.73,2.54,5.73,5.68s-2.57,5.68-5.73,5.68c-2.99,0-5.45-2.27-5.71-5.17h0Zm5.71,4.11c2.58,0,4.67-2.07,4.67-4.62s-2.1-4.62-4.67-4.62c-1.29,0-2.52,.53-3.41,1.46l3.72,2.7c.19,.14,.26,.38,.19,.59-.07,.22-.28,.37-.5,.37h-4.64c.26,2.31,2.24,4.11,4.64,4.11h0Zm-24.63-4.62c0,1.68,.91,3.23,2.38,4.04,1.47,.81,3.26,.77,4.69-.12,1.42-.89,2.25-2.48,2.16-4.16-.09-1.68-1.08-3.17-2.59-3.91l-1.52,4.33c-.1,.28-.4,.42-.68,.32-.28-.1-.42-.4-.32-.68l1.52-4.33c-1.37-.31-2.81,.02-3.9,.9-1.1,.88-1.74,2.2-1.74,3.61h0Zm23-.55l-2.41-1.76c-.32,.54-.52,1.14-.59,1.76h3.01Zm-4.07,0c.08-.84,.35-1.66,.8-2.38l-2.61-1.9-2.24,4.28h4.06Zm-16.66-8.11l4.48,1.02,1.28-3.64-5.13-1.22-.63,3.83Zm17.46,.49l.9-1.22h-4.39l3.48,1.22Zm2.89,1.64c-.14,0-.28-.06-.38-.16-.1-.1-.16-.23-.16-.38s.06-.28,.16-.38c.1-.1,.23-.16,.38-.16h4.03c.29,0,.53,.24,.53,.53s-.24,.53-.53,.53h-4.03Z"/><g><path class="cls-4" d="M140.54,119.99c3.36-.59,8.75-6.05,9.11-9.49-.25-.15-.58-.1-.86-.05-2.75,.49-7.76,4.26-8.42,4.38-.94,.17-1.76-.34-2.36-1,1.05-5.97,9.18-15.01,15.03-16.58,.57,.16,1.42,.46,1.54,1.15,.52,2.97-4.8,8.51-7.49,8.98-1.1,.19-1.97-.25-2.17-1.38,.21,.36,.68,.33,1.01,.28,2.2-.39,8.42-5.49,8.01-7.83-.04-.25-.42-.15-.56-.13-4.9,.86-13.26,10.56-14.29,15.31l.28-.02c2.92-.51,5.59-3.54,8.4-4.03,.94-.17,2.21,.32,2.58,1.25-.85,3.87-5.14,9.81-9.29,10.55-1.29,.23-1.95-.93-2.57-1.84,.57,.52,1.32,.59,2.07,.46Z"/><path class="cls-4" d="M157.02,100.83c-.67,1.2-1.18,2.5-1.75,3.74,.46-.11,.92-.25,1.39-.33,.39-.07,.77,.2,.99,.48v.03s-.63,.08-.63,.08c-.69,.12-1.39,.3-2.08,.45-.75,1.69-3.46,7.42-3.16,9.1,.05,.28,.22,.61,.55,.56,.94-.17,3.05-3.32,3.55-4.14-.53,1.34-2.05,4.62-3.62,4.89-.77,.14-1.61-.91-1.73-1.6-.19-1.07,2.75-7.24,3.29-8.55-.46,.11-.9,.21-1.37,.3-.58,.1-1.07,.05-1.16-.62,.51,.02,1.04-.04,1.54-.13l1.26-.25c.46-1.24,1.53-3.87,1.47-5.17,.64,.11,1.33,.45,1.45,1.16Z"/><path class="cls-4" d="M159.54,112.05c1.15-.38,2.33-1.77,3.08-2.67-.52,1.25-1.7,3.37-3.36,3.15-.49,.77-1.51,2.2-2.48,2.37-.94,.17-1.78-.59-1.94-1.5-.25-1.4,1.63-4.74,2.52-5.83,.25-.81,.92-2.52,1.88-2.69,1.1-.19,1.77,.74,1.94,1.7,.25,1.43-.92,4.25-1.64,5.48Zm-3.43,2.28c.77-.14,1.74-1.55,2.12-2.16-.7-.44-1.04-1.23-1.18-2.03-.42,.81-1.49,2.96-1.33,3.89,.04,.22,.15,.34,.39,.3Zm1.78-3.72c.08,.44,.24,.89,.53,1.24,.87-1.49,1.95-4.23,1.64-5.96-.03-.19-.09-.5-.36-.45-.58,.1-1.08,1.1-1.29,1.56,.21,.05,.39,.1,.58,.21-1.04,1.18-1.39,1.78-1.1,3.4Z"/><path class="cls-4" d="M164.61,106.16c.07,.1,.22,.1,.35,.08,.63-.11,1.52-.89,1.68-.92,.36-.06,.84,.42,1.05,.67-.83,1.06-3.3,4.95-3.06,6.27,.04,.22,.17,.34,.39,.3,1.16-.2,3.85-3.74,4.53-4.71-.48,.99-2.91,5.22-4.15,5.44-.72,.13-1.73-.66-1.85-1.35-.2-1.16,1.5-4.21,2.11-5.25-.1,.05-.21,.09-.32,.11-.33,.06-.68-.02-.99-.17-1.03,1.71-1.93,3.72-3.42,5.08,1.3-1.62,2.16-3.53,2.93-5.42-.17-.14-.26-.35-.3-.57-.13-.74,.63-1.87,1.26-2.21,.34,0,.78,.23,.87,.58-.27,.7-.65,1.45-1.08,2.06Z"/><path class="cls-4" d="M176.43,102.8c.02,.11-.01,.26-.02,.37-1.78,2.16-8.3,15.54-6.78,17.71-.52-.08-1.58-.57-1.68-1.15-.29-1.65,4.09-10.42,4.95-12.16l-3.28,4.41c-.13,.05-.29,.14-.43,.16-.8,.14-1.48-.5-1.64-1.24,1.35-2.62,3.08-5.05,4.09-7.84,.47,.11,.9,.44,1.09,.88-.77,1.1-4.03,5.79-3.9,6.87l.2,.19c1.59-.34,6.03-7.48,6.65-9.12,.35,.19,.66,.54,.73,.92Z"/><path class="cls-4" d="M186.26,107.34c1.15-.38,2.33-1.77,3.08-2.67-.52,1.25-1.7,3.36-3.36,3.15-.49,.77-1.51,2.2-2.48,2.37-.94,.17-1.78-.59-1.94-1.5-.25-1.4,1.63-4.74,2.52-5.83,.25-.81,.92-2.52,1.88-2.69,1.1-.19,1.78,.74,1.94,1.7,.25,1.43-.92,4.25-1.64,5.48Zm-3.43,2.28c.77-.14,1.74-1.55,2.12-2.16-.7-.44-1.04-1.23-1.18-2.03-.42,.81-1.49,2.96-1.33,3.89,.04,.22,.14,.34,.39,.3Zm1.78-3.72c.08,.44,.24,.89,.53,1.24,.87-1.49,1.95-4.23,1.64-5.96-.03-.19-.09-.5-.36-.45-.58,.1-1.08,1.1-1.29,1.56,.21,.05,.39,.1,.58,.21-1.04,1.18-1.39,1.78-1.1,3.4Z"/><path class="cls-4" d="M190.24,100.59c.45-1.01,3.01-7.23,4.03-7.4,.47-.08,1.16,.28,1.4,.69-.43,2.2-2.27,4.68-3.6,6.45,.42-.04,.8-.11,1.22-.19,2.23-.39,8.34-1.92,9.9-3.53,.06,.16,.15,.34,.18,.54,.06,.36-.1,.73-.27,1.04-2.85,1.35-8.4,2.42-11.56,2.83l-.47,.54c.78,1.03,1.24,2.22,1.46,3.49,.26,1.49,.19,3-.04,4.46-.29,1.75-2.2,8.1-4.32,8.48-.94,.17-2.07-1.14-2.22-1.96-.6-3.38,2.53-11.25,3.88-14.5l-.66-.22c-.06-.67,.63-.62,1.07-.7Zm-2.85,16.19c.02,.14,.08,.27,.16,.4,3.1-1.88,4.75-9.29,4.16-12.62-.16-.91-.45-1.91-1.14-2.58-1.09,2.8-3.67,12-3.18,14.8Zm4.02-16.46c1.45-1.9,2.95-3.89,3.46-6.28-1.54,1.86-2.52,4.07-3.46,6.28Z"/></g><g><path class="cls-4" d="M178.87,123.75l-1.64,3.2,1.74,5.37h-1.64l-1.19-3.83-.56,1.09v2.74s-1.53,0-1.53,0v-.87s.01-6.82,.01-6.82v-.87s1.53,0,1.53,0v.87s-.01,1.45-.01,1.45c0,.29-.01,.71-.02,.97h.05c.14-.26,.31-.61,.46-.89l1.16-2.41h1.65Z"/><path class="cls-4" d="M181.71,125.85c1.45,0,1.86,.9,1.86,2.01v3.58c0,.28,.05,.65,.08,.87h-1.37c-.04-.19-.05-.3-.07-.63h-.06c-.53,.47-.91,.71-1.5,.71-.68,0-1.19-.58-1.19-1.46,0-1.02,.41-1.74,1.68-2.34,.38-.18,.79-.33,1.04-.43v-.43c0-.35-.1-.73-.53-.73-.47,0-.57,.42-.6,.89h-1.39c.07-1.23,.7-2.04,2.04-2.04Zm.48,4.84v-1.63c-.62,.3-1.27,.67-1.27,1.5,0,.37,.16,.56,.46,.56,.23,0,.5-.11,.81-.43Z"/><path class="cls-4" d="M183.54,132.96c.13,.01,.3,.04,.46,.04,.42,0,.59-.19,.59-.71v-6.32s1.39,0,1.39,0v.88s-.01,5.67-.01,5.67c0,1.17-.63,1.77-1.67,1.77-.26,0-.56-.04-.75-.08v-1.23Zm1.04-9.21h1.38v1.2h-1.38v-1.2Z"/><path class="cls-4" d="M188.39,125.97v.88s-.01,4.6-.01,4.6v.87s-1.39,0-1.39,0v-.87s.01-4.6,.01-4.6v-.88s1.39,0,1.39,0Zm-1.39-2.22h1.38v1.2h-1.38v-1.2Z"/><path class="cls-4" d="M189.07,125.97h1.31l.54,2.91c.05,.24,.1,.6,.13,.83h.05c.04-.24,.08-.62,.14-.89l.59-2.85h1.04l.6,2.85c.06,.26,.11,.65,.14,.89h.05c.02-.23,.07-.59,.12-.83l.54-2.91h1.29l-1.34,6.35h-1.31l-.47-2.44c-.05-.26-.11-.66-.13-.9h-.05c-.04,.24-.08,.63-.13,.9l-.47,2.44h-1.31l-1.34-6.35Z"/><path class="cls-4" d="M198.12,125.85c1.45,0,1.86,.9,1.86,2.01v3.58c0,.28,.05,.65,.08,.87h-1.37c-.04-.19-.05-.3-.07-.63h-.06c-.53,.47-.91,.71-1.5,.71-.68,0-1.19-.58-1.19-1.46,0-1.02,.41-1.74,1.68-2.34,.38-.18,.79-.33,1.04-.43v-.43c0-.35-.1-.73-.53-.73-.47,0-.57,.42-.6,.89h-1.39c.07-1.23,.7-2.04,2.04-2.04Zm.48,4.84v-1.63c-.62,.3-1.27,.67-1.27,1.5,0,.37,.16,.56,.46,.56,.23,0,.5-.11,.81-.43Z"/><path class="cls-4" d="M203.84,125.9v1.52c-.13-.02-.28-.04-.42-.04-.68,0-1.07,.28-1.07,.99v3.94s-1.39,0-1.39,0v-.87s.01-4.62,.01-4.62v-.85s1.28,0,1.28,0v.91h.06c.38-.62,.9-1.01,1.33-1.01,.07,0,.14,.01,.19,.02Z"/><path class="cls-4" d="M206.5,125.85c1.45,0,1.86,.9,1.86,2.01v3.58c0,.28,.05,.65,.08,.87h-1.37c-.04-.19-.05-.3-.07-.63h-.06c-.53,.47-.91,.71-1.5,.71-.68,0-1.19-.58-1.19-1.46,0-1.02,.41-1.74,1.68-2.34,.38-.18,.79-.33,1.04-.43v-.43c0-.35-.1-.73-.53-.73-.47,0-.57,.42-.6,.89h-1.39c.07-1.23,.7-2.04,2.04-2.04Zm.48,4.84v-1.63c-.62,.3-1.27,.67-1.27,1.5,0,.37,.16,.56,.46,.56,.23,0,.5-.11,.81-.43Z"/><path class="cls-4" d="M189.04,137.06v.87s-.01,6.82-.01,6.82v.87s-1.52,0-1.52,0v-.87s.01-2.91,.01-2.91h-1.49v3.79s-1.53,0-1.53,0v-.87s.01-6.82,.01-6.82v-.87s1.53,0,1.53,0v.87s-.01,2.54-.01,2.54h1.49v-3.41s1.52,0,1.52,0Z"/><path class="cls-4" d="M191.59,139.28v.88s-.01,4.6-.01,4.6v.87s-1.39,0-1.39,0v-.87s.01-4.6,.01-4.6v-.88s1.39,0,1.39,0Zm-1.39-2.22h1.38v1.2h-1.38v-1.2Z"/><path class="cls-4" d="M196.45,137.06v.87s-.01,6.82-.01,6.82v.87s-1.31,0-1.31,0v-.51h-.06c-.55,.43-.88,.61-1.32,.61-1.23,0-1.23-1.29-1.23-2.41v-1.53c0-1.08,0-2.6,1.29-2.6,.43,0,.75,.17,1.25,.55v-2.67s1.39,0,1.39,0Zm-2.55,4.46v2c0,.43,.02,1.03,.54,1.03,.23,0,.42-.11,.62-.22v-3.83c-.23-.1-.39-.14-.55-.14-.61,0-.61,.78-.61,1.16Z"/><path class="cls-4" d="M198.72,142.73v.41c0,.91,0,1.41,.59,1.41s.6-.66,.6-1.1v-.02h1.34v.02c0,.78-.18,1.47-.65,1.89-.29,.26-.7,.41-1.32,.41-.67,0-1.04-.17-1.31-.41-.53-.48-.63-1.29-.63-2.47v-.84c0-1.16,.11-1.98,.63-2.46,.31-.29,.73-.42,1.32-.42,.62,0,1.01,.14,1.31,.42,.53,.48,.65,1.27,.65,2.46v.7h-2.53Zm0-1.02h1.15v-.04c0-.74,0-1.32-.59-1.32s-.56,.55-.56,1.32v.04Z"/><path class="cls-4" d="M206.15,139.28l-1.26,2.26,1.32,4.08h-1.45l-.85-2.78-.41,.72v2.06s-1.39,0-1.39,0v-.87s.01-6.82,.01-6.82v-.87s1.39,0,1.39,0v.87s-.01,2.41-.01,2.41c0,.36,0,.75-.02,1.09h.06c.14-.32,.25-.51,.43-.86l.68-1.29h1.5Z"/><path class="cls-4" d="M208.31,139.28v.88s-.01,4.6-.01,4.6v.87s-1.39,0-1.39,0v-.87s.01-4.6,.01-4.6v-.88s1.39,0,1.39,0Zm-1.39-2.22h1.38v1.2h-1.38v-1.2Z"/></g><line class="cls-2" x1="49.44" y1="82.76" x2="211.64" y2="82.76"/><rect class="cls-1" x="74.14" y="211.77" width="117.52" height="30.15" transform="translate(-19.27 12.45) rotate(-5)"/><g><path class="cls-4" d="M88.49,240.31l-.26-.14-.25-.9,.14-.26c.8-.35,1.67-.56,2.61-.64,.94-.08,1.85-.19,2.72-.32l.5,.04,.41-.12-.04-.5-.59-3.87c-.6,.11-1.19,.26-1.75,.45-.57,.19-1.15,.34-1.75,.45l-.26-.14-.25-.9,.14-.26c.58-.33,1.2-.56,1.86-.7,.65-.14,1.31-.32,1.95-.55l-.15-3.57-.83,.07c-.65,.17-1.33,.31-2.05,.43-.71,.12-1.39,.26-2.05,.43-.02,.45-.1,.88-.26,1.32-.16,.43-.38,.85-.68,1.27l-.74,.15-.26-.14-.31-.64c.5-1.32,.82-2.66,.98-4,.16-1.35,.43-2.68,.82-3.99l.9-.24c.23,.09,.37,.25,.42,.46,.05,.22,.08,.44,.1,.66-.17,.57-.29,1.14-.35,1.7-.06,.56-.15,1.13-.27,1.69l1.24-.11,3.2-.61c-.02-.89-.07-1.8-.16-2.74-.08-.94-.08-1.83,.02-2.67l.9-.25c.38,.47,.56,1.03,.57,1.7,0,.67,.06,1.3,.17,1.9l.07,1.75,.33-.03c.93-.19,1.84-.4,2.74-.62,.9-.22,1.85-.34,2.84-.37,.23,.09,.38,.23,.45,.42,.07,.19,.09,.4,.05,.62-.96,.42-1.98,.72-3.05,.89-1.07,.18-2.15,.4-3.24,.66l.23,3.57,.66-.06c.49-.15,.96-.28,1.43-.38,.46-.1,.97-.17,1.52-.22l.62,.45,.06,.66c-.63,.39-1.32,.63-2.06,.72-.74,.09-1.47,.23-2.17,.4l.2,2.32,.36,2.22,.83-.07,.08-.09,4.39-.38,1.17,.06,.74-.15c.23,.09,.38,.23,.45,.42,.07,.19,.09,.39,.05,.62-.2,.29-.43,.48-.7,.56-.27,.08-.57,.13-.9,.16l-.84-.09-4.14,.36c-.33,.03-.66,.11-.98,.25-.32,.14-.65,.22-.98,.25-.12-.1-.25-.14-.39-.13-.14,.01-.29,.02-.45,.04l-.74,.15h-1s-4.03,.61-4.03,.61Z"/><path class="cls-4" d="M108.33,235.66l-.26-.14c-.74-1.44-1.27-2.95-1.61-4.53-.33-1.58-.57-3.2-.72-4.86l.26-.86,.9-.25c.23,.09,.37,.25,.42,.46,.05,.22,.08,.44,.1,.66l-.08,.09c.11,1.21,.28,2.42,.53,3.62,.24,1.2,.55,2.37,.93,3.5l.67-.89c.21-.18,.43-.36,.66-.52s.52-.23,.86-.2c.23,.09,.38,.23,.45,.42,.07,.19,.09,.39,.05,.62l-2.51,2.8-.66,.06Zm12.46-4.34l-.64-.61-.14-.66,.05-.42c-.24-.81-.51-1.58-.83-2.3-.31-.72-.64-1.46-.99-2.21l.14-.26,.9-.24,.71,.52c.47,.9,.85,1.83,1.16,2.78,.3,.95,.53,1.91,.67,2.9-.09,.23-.23,.38-.42,.45-.19,.07-.4,.09-.62,.05Z"/><path class="cls-4" d="M125.86,236.3l-.6-.2-.25-.89,.14-.26c1.09-.26,2.19-.51,3.31-.75,1.12-.24,2.25-.46,3.4-.67,.99-1.42,1.8-2.95,2.43-4.59s.99-3.33,1.06-5.05l-.83,.07-4.27,.71-5.63,.49-.6-.2-.25-.9,.14-.26,.23-.19,5.88-.51,1.15-.18-.03-.33c-.23-.76-.56-1.48-.98-2.17-.42-.69-.75-1.41-.98-2.16l.14-.26,.9-.25c.62,.72,1.16,1.5,1.62,2.32,.46,.82,.76,1.7,.9,2.63l.66-.06,5.33-.97c.23,.09,.38,.23,.45,.42,.07,.19,.09,.39,.05,.62-.36,.36-.81,.58-1.36,.66-.55,.08-1.06,.22-1.55,.43,.29,.2,.44,.46,.44,.79s.02,.67,.05,1c-.16,1.35-.5,2.66-1.03,3.92s-1.13,2.49-1.81,3.66l1.17-.02,.08-.09,3.81-.33c.45,.07,.91,.06,1.37-.04,.46-.1,.88,0,1.24,.31l.15,.74c-.09,.23-.23,.38-.42,.45-.19,.07-.39,.12-.61,.14h-1.92s-3.39,.3-3.39,.3c-1.65,.14-3.27,.38-4.86,.72-1.58,.33-3.17,.65-4.75,.96Zm4.54-3.4l-.64-.61c-.25-.98-.62-1.9-1.12-2.78-.49-.87-.89-1.77-1.19-2.69l.14-.26,.9-.24c.74,.82,1.35,1.76,1.83,2.8,.48,1.04,.85,2.14,1.12,3.28-.09,.23-.23,.38-.42,.46-.19,.07-.4,.09-.62,.05Z"/><path class="cls-4" d="M153.35,234.22l-.77-.27-.25-.9,.14-.26c.38-.09,.76-.23,1.13-.43,.37-.2,.71-.45,1.02-.76l.07-.17c.21-.13,.38-.31,.49-.54,.12-.23,.22-.46,.31-.7l.11-1.59c-.07-.21-.14-.45-.19-.69-.05-.25-.22-.44-.51-.58-.35-.19-.73-.27-1.15-.23-.41,.04-.84,.07-1.28,.11-1.09,.26-2.14,.65-3.15,1.15-1.01,.51-1.99,1.05-2.94,1.63l-.26-.14c-.12-.16-.2-.33-.21-.52-.02-.19-.03-.37-.05-.54l.82-5.82-1.17,.02-1.4,.21-.6-.2-.25-.9,.14-.26c.54-.16,1.11-.28,1.72-.36,.6-.08,1.18-.17,1.73-.28,.15-.79,.26-1.59,.33-2.41,.07-.81,.18-1.61,.33-2.41l.9-.25c.23,.09,.37,.25,.42,.46,.05,.22,.08,.44,.1,.66l-.34,3.7,2.15-.19c1.2-.27,2.42-.48,3.66-.61,1.24-.14,2.45-.37,3.65-.7,.23,.09,.38,.23,.45,.42,.07,.19,.09,.39,.05,.62-1.55,.75-3.2,1.21-4.96,1.39-1.76,.18-3.52,.41-5.28,.67l-.66,4.81,.09,.08c1.01-.53,2.04-.98,3.09-1.35,1.05-.37,2.16-.58,3.32-.62,.45,.02,.86,.12,1.24,.31,.38,.19,.75,.46,1.11,.82,.3,.31,.48,.68,.51,1.12,.04,.44,.1,.88,.2,1.32,0,.72-.11,1.4-.36,2.03-.25,.63-.66,1.22-1.22,1.77-.37,.25-.73,.52-1.1,.81-.36,.28-.76,.47-1.2,.56Z"/><path class="cls-4" d="M165.89,234.04l-.26-.14-.42-.96c.09-.29,.13-.58,.13-.89,0-.31,.01-.63,.04-.96l-.8-5.35,.06-.25-.91,.08-1.3,.36-.26-.14-.24-.9,2.45-3.38c-.41-.19-.81-.39-1.22-.6s-.84-.36-1.29-.43l-.25-.9,.43-.79,2.15-3.02c.16-.12,.33-.24,.51-.34,.19-.1,.39-.13,.62-.1,.23,.09,.38,.23,.45,.42,.07,.19,.09,.4,.05,.62l-2.15,3.11c.29,.09,.57,.2,.86,.34,.29,.14,.58,.28,.87,.42l.82-1.07,.66-.06c.23,.09,.38,.23,.45,.42,.07,.19,.09,.39,.05,.62l-.89,1.25c.17,.04,.33,.07,.47,.08,.14,.02,.27,.1,.4,.26,.16,.54,.48,1.01,.96,1.42s.75,.91,.8,1.51c-.09,.23-.23,.38-.42,.45-.19,.07-.4,.09-.62,.05l-.98-.75-1.28,.61c.36,.97,.61,2.02,.73,3.15,.13,1.13,.27,2.24,.42,3.34-.08,.4-.1,.8-.06,1.21,.04,.41-.07,.8-.32,1.15l-.74,.15Zm-3.6-2.02l-.26-.14-.32-.81c.16-.74,.36-1.45,.6-2.14,.25-.69,.45-1.4,.61-2.14l.9-.25c.23,.09,.37,.25,.42,.46,.05,.22,.08,.44,.1,.66-.16,.74-.33,1.45-.52,2.13-.19,.68-.45,1.37-.78,2.07l-.74,.15Zm3.81-8.84l.07-.17-.23-.73,.07-.17-.09-.08-1.19,1.61,.26,.06,1.12-.51Zm13.38,9.08l-.95-.42-.25-.9,.14-.26,.81-.24,.09,.07,.05-2.34-.41,.04-1.31,.28v1.92s.16,.82,.16,.82c-.09,.23-.23,.38-.42,.45-.19,.07-.4,.09-.62,.05l-.26-.14c-.12-.16-.23-.36-.3-.6-.08-.24-.12-.48-.14-.7l.04-1.42-.59-.03c-.02,.45,.02,.9,.12,1.37,.1,.46,.02,.87-.23,1.23l-.74,.15-.26-.14c-.25-.31-.38-.69-.39-1.13-.01-.44-.04-.89-.07-1.33l-.66,.06-.74,.15c-.06,.56-.05,1.14,.03,1.75s0,1.17-.23,1.69l-.9,.25-.26-.14-.25-.9,.04-2.42-.32-1.81c-.18,.46-.38,.9-.6,1.3-.21,.41-.5,.79-.86,1.16l-.48,.21-.6-.2-.25-.9,.14-.26,.23-.27,.31-.28c-.17-.04-.35-.05-.54-.04-.19,.02-.38-.05-.56-.2-.25-.31-.47-.63-.67-.94-.19-.32-.28-.7-.27-1.14l.14-.26,.9-.25c.3,.25,.52,.54,.66,.86,.14,.32,.39,.61,.74,.85,.43-1.43,.83-2.88,1.2-4.36,.37-1.48,.46-2.99,.27-4.53l-.59-.11-.25-.9,.14-.26,.23-.19,3.97-.35,3.95-.6c.17,.04,.37,.05,.59,.03,.22-.02,.4,.08,.53,.29l.18,1.07c-.12,.51-.24,1.02-.37,1.53-.12,.51-.3,1-.54,1.46l-.9,.25-.26-.14c-.81,.24-1.66,.44-2.53,.6-.88,.16-1.72,.36-2.53,.6-.02,.39-.1,.79-.23,1.19-.13,.4-.21,.8-.23,1.19l.5-.04c.87-.19,1.76-.36,2.66-.52,.9-.16,1.79-.31,2.67-.44,.5,.01,1.03,0,1.58-.05,.55-.05,1.06,.07,1.53,.37l.22,1.57,.02,1.16,.23,1.65c-.05,.73-.05,1.48-.01,2.25s-.14,1.46-.53,2.05l-.98,.25Zm-1.98-16.92c-.4-.08-.8-.1-1.21-.06s-.82,.04-1.21,.02l-.74,.15c-.89,.02-1.79,.06-2.7,.11s-1.82,.03-2.71-.05l-.25-.9,.14-.26c.43-.2,.9-.31,1.43-.33,.53-.02,1.04-.05,1.53-.09l3.08-.1,.74-.15c.61,0,1.21,0,1.79,0,.58,0,1.13,.1,1.65,.27l.15,.74c-.14,.34-.37,.53-.7,.56-.33,.03-.66,.06-.99,.09Zm-.37,3.45l.32-1.11-.5-.04-4.94,.68,.05,1.58,.66-.06c.77-.12,1.52-.27,2.25-.45,.73-.18,1.45-.38,2.16-.6Zm-3.33,8.63l-.11-1.24-.13-.57,.05-.34-.74,.07-.81,.24,.06,.66,.21,1.4,.66-.06,.82-.16Zm2.32-.2l-.15-1.74,.11-.59-.67-.02-.24,.1v.84s.2,1.48,.2,1.48l.74-.06Zm3.12-.61l-.15-1.74,.06-.25-1.58,.05,.11,2.24,.58-.05,.98-.25Z"/></g></g></g></svg>