<?xml version="1.0" encoding="UTF-8"?><svg id="_レイヤー_2" xmlns="http://www.w3.org/2000/svg" viewBox="0 0 178.2 85.7"><defs><style>.cls-1{fill:#0068b6;}</style></defs><g id="_レイヤー_1-2"><g><path class="cls-1" d="M0,22.27V13.57C9.39,9.74,16.24,4.29,17.98,.93h8.81l-.12,8.47V75.84l.12,8.47H11.83l.12-8.47V22.27H0Z"/><path class="cls-1" d="M63.79,57.29v-9.04c-3.83,3.01-7.89,4.64-12.41,4.64-3.71,0-7.07-1.04-10.09-3.83-3.83-3.59-5.91-8.35-6.03-21.34,0-9.28,1.04-17.86,6.96-22.96,3.48-3.02,8.7-4.75,14.73-4.75,6.61,0,11.36,2.09,14.5,4.75,4.41,3.83,7.19,9.62,7.19,26.79v22.61c0,16.12-2.32,22.96-7.19,27.02-3.59,3.01-8.23,4.52-13.92,4.52-6.26,0-11.02-1.86-14.26-4.75-3.71-3.36-6.49-8.81-6.49-19.83v-.23h14.15v.23c0,4.75,0,11.6,6.49,11.6s6.38-6.84,6.38-15.42Zm0-20.99v-7.89c0-8.35,0-15.42-7.19-15.42-6.61,0-6.61,6.03-6.61,14.73,0,7.77,.35,12.18,6.49,12.18,2.55,0,5.33-.93,7.31-3.59Z"/><path class="cls-1" d="M93.29,80.71c-4.17-3.71-6.73-9.63-6.73-20.53v-.35c0-9.74,3.13-15.77,9.97-19.37v-.46c-5.57-3.71-8.7-8.81-8.7-17.86v-.58c0-8.58,2.67-13.92,6.26-17.05,3.36-3.02,8-4.52,13.57-4.52s10.32,1.51,13.68,4.52c3.59,3.13,6.26,8.47,6.26,17.05v.58c0,9.04-3.25,14.15-8.7,17.86v.46c6.84,3.6,9.97,9.63,9.97,19.37v.35c0,10.9-2.67,16.82-6.73,20.53-3.25,3.01-7.77,4.99-14.5,4.99s-11.13-1.97-14.38-4.99Zm21.22-20.53v-.23c0-3.48,.35-12.41-6.84-12.41s-6.73,8.93-6.73,12.41v.23c0,4.99,.35,12.52,6.73,12.52s6.84-7.54,6.84-12.52Zm-.81-37.11v-.23c0-4.17-.7-10.21-6.03-10.21s-5.91,6.03-5.91,10.21v.23c0,3.59-.23,10.9,5.91,10.9s6.03-7.31,6.03-10.9Z"/><path class="cls-1" d="M150.02,59.72v.23c0,6.49,0,12.76,6.73,12.76s6.96-5.91,6.96-11.6c0-10.55-2.78-13.45-10.44-13.45h-2.67v-13.22h2.67c7.19,0,9.39-2.2,9.39-12.18,0-3.94-.35-9.28-5.91-9.28-6.26,0-6.26,6.61-6.26,11.6v.23h-13.92v-.23c0-11.71,3.71-16.93,7.19-19.95,3.71-3.25,8-4.64,13.1-4.64,5.8,0,10.44,1.86,13.8,4.87,3.71,3.36,6.15,8.23,6.26,17.4,0,11.02-3.36,14.96-9.51,17.97v.58c7.31,2.67,10.55,8.81,10.79,19.37,0,11.13-2.9,16.93-6.84,20.53-3.48,3.13-8.47,4.99-14.61,4.99s-11.13-1.86-14.38-4.75c-3.71-3.36-6.49-8.81-6.49-20.99v-.23h14.15Z"/></g></g></svg>