<?xml version="1.0" encoding="UTF-8"?><svg id="_レイヤー_2" xmlns="http://www.w3.org/2000/svg" viewBox="0 0 181.68 87.56"><defs><style>.cls-1{fill:#0068b6;}</style></defs><g id="_レイヤー_1-2"><g><path class="cls-1" d="M43.6,22.63c0,11.97-6.16,21.8-15.88,35.31l-11.14,14.93h26.3v13.27H0v-12.08l15.64-21.92c8.53-11.85,13.27-20.14,13.27-29.27v-.24c0-6.75-2.25-9.36-6.52-9.36-5.33,0-7.46,4.5-7.46,13.63v.24H.59v-.24C.59,8.29,9.36,0,22.75,0c14.22,0,20.85,9.24,20.85,22.39v.24Z"/><path class="cls-1" d="M58.59,82.7c-4.86-4.15-7.11-11.02-7.11-27.96v-21.92c0-16.94,2.25-23.7,7.11-27.96,3.32-2.96,8.29-4.86,14.81-4.86s11.49,1.9,14.81,4.86c4.74,4.26,7.11,11.02,7.11,27.96v21.92c0,16.94-2.37,23.82-7.11,27.96-3.32,2.96-8.29,4.86-14.81,4.86s-11.49-1.9-14.81-4.86Zm21.92-24.05V28.91c0-9.24,0-15.4-7.11-15.4s-7.11,6.16-7.11,15.4v29.74c0,9.24,0,15.4,7.11,15.4s7.11-6.16,7.11-15.4Z"/><path class="cls-1" d="M102.23,22.75V13.86c9.6-3.91,16.59-9.48,18.37-12.92h9l-.12,8.65V77.49l.12,8.65h-15.28l.12-8.65V22.75h-12.2Z"/><path class="cls-1" d="M145.3,82.47c-4.27-3.79-6.87-9.83-6.87-20.97v-.36c0-9.95,3.2-16.11,10.19-19.79v-.47c-5.69-3.79-8.89-9-8.89-18.25v-.59c0-8.77,2.73-14.22,6.4-17.42,3.44-3.08,8.18-4.62,13.86-4.62s10.54,1.54,13.98,4.62c3.67,3.2,6.4,8.65,6.4,17.42v.59c0,9.24-3.32,14.46-8.89,18.25v.47c6.99,3.67,10.19,9.83,10.19,19.79v.36c0,11.14-2.73,17.18-6.87,20.97-3.32,3.08-7.94,5.09-14.81,5.09s-11.37-2.01-14.69-5.09Zm21.68-20.97v-.24c0-3.55,.36-12.68-6.99-12.68s-6.87,9.12-6.87,12.68v.24c0,5.09,.36,12.8,6.87,12.8s6.99-7.7,6.99-12.8Zm-.83-37.92v-.24c0-4.27-.71-10.43-6.16-10.43s-6.04,6.16-6.04,10.43v.24c0,3.67-.24,11.14,6.04,11.14s6.16-7.46,6.16-11.14Z"/></g></g></svg>