<?xml version="1.0" encoding="UTF-8"?><svg id="_レイヤー_2" xmlns="http://www.w3.org/2000/svg" viewBox="0 0 197.36 84.57"><defs><style>.cls-1{fill:#0068b6;}</style></defs><g id="_レイヤー_1-2"><g><path class="cls-1" d="M42.11,21.86c0,11.56-5.95,21.06-15.34,34.1l-10.75,14.42h25.4v12.82H0v-11.67l15.11-21.17c8.24-11.44,12.82-19.45,12.82-28.26v-.23c0-6.52-2.18-9.04-6.29-9.04-5.15,0-7.21,4.35-7.21,13.16v.23H.57v-.23C.57,8.01,9.04,0,21.97,0c13.73,0,20.14,8.93,20.14,21.63v.23Z"/><path class="cls-1" d="M58.31,79.87c-4.69-4-6.87-10.64-6.87-27.01V31.7c0-16.37,2.17-22.89,6.87-27.01,3.2-2.86,8.01-4.69,14.3-4.69s11.1,1.83,14.3,4.69c4.58,4.12,6.87,10.64,6.87,27.01v21.17c0,16.37-2.29,23-6.87,27.01-3.2,2.86-8.01,4.69-14.3,4.69s-11.1-1.83-14.3-4.69Zm21.17-23.23V27.92c0-8.93,0-14.88-6.87-14.88s-6.87,5.95-6.87,14.88v28.72c0,8.93,0,14.88,6.87,14.88s6.87-5.95,6.87-14.88Z"/><path class="cls-1" d="M110.89,79.87c-4.69-4-6.87-10.64-6.87-27.01V31.7c0-16.37,2.17-22.89,6.87-27.01,3.2-2.86,8.01-4.69,14.3-4.69s11.1,1.83,14.3,4.69c4.58,4.12,6.87,10.64,6.87,27.01v21.17c0,16.37-2.29,23-6.87,27.01-3.2,2.86-8.01,4.69-14.3,4.69s-11.1-1.83-14.3-4.69Zm21.17-23.23V27.92c0-8.93,0-14.88-6.87-14.88s-6.87,5.95-6.87,14.88v28.72c0,8.93,0,14.88,6.87,14.88s6.87-5.95,6.87-14.88Z"/><path class="cls-1" d="M197.36,21.86c0,11.56-5.95,21.06-15.34,34.1l-10.75,14.42h25.4v12.82h-41.42v-11.67l15.11-21.17c8.24-11.44,12.82-19.45,12.82-28.26v-.23c0-6.52-2.18-9.04-6.29-9.04-5.15,0-7.21,4.35-7.21,13.16v.23h-13.85v-.23c0-17.97,8.47-25.98,21.4-25.98,13.73,0,20.14,8.93,20.14,21.63v.23Z"/></g></g></svg>