<?xml version="1.0" encoding="UTF-8"?><svg id="_レイヤー_2" xmlns="http://www.w3.org/2000/svg" viewBox="0 0 185.1 247"><defs><style>.cls-1{fill:#0068b6;}</style></defs><g id="_レイヤー_1-2"><g><g><path class="cls-1" d="M0,22.26V13.56C9.39,9.74,16.23,4.29,17.97,.93h8.81l-.12,8.46V75.82l.12,8.46H11.82l.12-8.46V22.26H0Z"/><path class="cls-1" d="M65.6,57.27v-9.04c-3.83,3.01-7.88,4.64-12.4,4.64-3.71,0-7.07-1.04-10.09-3.83-3.83-3.59-5.91-8.35-6.03-21.33,0-9.27,1.04-17.85,6.96-22.95,3.48-3.02,8.69-4.75,14.72-4.75,6.61,0,11.36,2.09,14.49,4.75,4.4,3.83,7.18,9.62,7.18,26.78v22.61c0,16.11-2.31,22.95-7.18,27.01-3.59,3.02-8.23,4.52-13.91,4.52-6.26,0-11.01-1.85-14.26-4.75-3.71-3.36-6.49-8.81-6.49-19.82v-.23h14.14v.23c0,4.75,0,11.59,6.49,11.59s6.38-6.84,6.38-15.42Zm0-20.98v-7.88c0-8.35,0-15.42-7.18-15.42-6.61,0-6.61,6.03-6.61,14.72,0,7.77,.35,12.17,6.49,12.17,2.55,0,5.33-.93,7.3-3.59Z"/><path class="cls-1" d="M96.84,80.69c-4.17-3.71-6.72-9.62-6.72-20.52v-.35c0-9.74,3.13-15.77,9.97-19.36v-.47c-5.57-3.71-8.69-8.81-8.69-17.85v-.58c0-8.58,2.66-13.91,6.26-17.04,3.36-3.02,8-4.52,13.56-4.52s10.32,1.51,13.68,4.52c3.59,3.13,6.26,8.46,6.26,17.04v.58c0,9.04-3.24,14.14-8.69,17.85v.47c6.84,3.59,9.97,9.62,9.97,19.36v.35c0,10.9-2.66,16.81-6.73,20.52-3.24,3.02-7.76,4.98-14.49,4.98s-11.13-1.97-14.38-4.98Zm21.21-20.52v-.23c0-3.48,.35-12.4-6.84-12.4s-6.73,8.93-6.73,12.4v.23c0,4.99,.35,12.52,6.73,12.52s6.84-7.54,6.84-12.52Zm-.81-37.1v-.23c0-4.17-.7-10.2-6.03-10.2s-5.91,6.03-5.91,10.2v.23c0,3.59-.23,10.9,5.91,10.9s6.03-7.3,6.03-10.9Z"/><path class="cls-1" d="M169.07,57.27v-9.04c-3.83,3.01-7.88,4.64-12.4,4.64-3.71,0-7.07-1.04-10.09-3.83-3.83-3.59-5.91-8.35-6.03-21.33,0-9.27,1.04-17.85,6.96-22.95,3.48-3.02,8.69-4.75,14.72-4.75,6.61,0,11.36,2.09,14.49,4.75,4.4,3.83,7.18,9.62,7.18,26.78v22.61c0,16.11-2.31,22.95-7.18,27.01-3.59,3.02-8.23,4.52-13.91,4.52-6.26,0-11.01-1.85-14.26-4.75-3.71-3.36-6.49-8.81-6.49-19.82v-.23h14.14v.23c0,4.75,0,11.59,6.49,11.59s6.38-6.84,6.38-15.42Zm0-20.98v-7.88c0-8.35,0-15.42-7.18-15.42-6.61,0-6.61,6.03-6.61,14.72,0,7.77,.35,12.17,6.49,12.17,2.55,0,5.33-.93,7.3-3.59Z"/><path class="cls-1" d="M44.29,183.47c0,11.71-6.03,21.33-15.54,34.55l-10.9,14.61h25.73v12.98H1.62v-11.83l15.31-21.45c8.35-11.59,12.98-19.71,12.98-28.63v-.23c0-6.61-2.21-9.16-6.38-9.16-5.22,0-7.31,4.41-7.31,13.33v.23H2.2v-.23c0-18.2,8.58-26.32,21.68-26.32,13.91,0,20.41,9.04,20.41,21.91v.23Z"/><path class="cls-1" d="M60.7,242.25c-4.76-4.06-6.96-10.78-6.96-27.36v-21.45c0-16.58,2.2-23.19,6.96-27.36,3.24-2.9,8.11-4.75,14.49-4.75s11.24,1.85,14.49,4.75c4.64,4.17,6.96,10.78,6.96,27.36v21.45c0,16.58-2.32,23.3-6.96,27.36-3.24,2.9-8.11,4.75-14.49,4.75s-11.24-1.85-14.49-4.75Zm21.45-23.53v-29.1c0-9.04,0-15.07-6.96-15.07s-6.96,6.03-6.96,15.07v29.1c0,9.04,0,15.07,6.96,15.07s6.96-6.03,6.96-15.07Z"/><path class="cls-1" d="M113.96,242.25c-4.76-4.06-6.96-10.78-6.96-27.36v-21.45c0-16.58,2.2-23.19,6.96-27.36,3.24-2.9,8.11-4.75,14.49-4.75s11.24,1.85,14.49,4.75c4.64,4.17,6.96,10.78,6.96,27.36v21.45c0,16.58-2.32,23.3-6.96,27.36-3.24,2.9-8.11,4.75-14.49,4.75s-11.24-1.85-14.49-4.75Zm21.45-23.53v-29.1c0-9.04,0-15.07-6.96-15.07s-6.96,6.03-6.96,15.07v29.1c0,9.04,0,15.07,6.96,15.07s6.96-6.03,6.96-15.07Z"/><path class="cls-1" d="M158.33,183.59v-8.69c9.39-3.83,16.23-9.28,17.97-12.64h8.81l-.12,8.46v66.43l.12,8.46h-14.96l.12-8.46v-53.56h-11.94Z"/></g><path class="cls-1" d="M102.67,103.92v36.89h-13.68v-36.89h13.68Z"/></g></g></svg>