<?xml version="1.0" encoding="UTF-8"?><svg id="_レイヤー_2" xmlns="http://www.w3.org/2000/svg" viewBox="0 0 166.7 79.94"><defs><style>.cls-1{fill:#0068b6;}</style></defs><g id="_レイヤー_1-2"><g><path class="cls-1" d="M39.81,20.66c0,10.92-5.62,19.9-14.49,32.23l-10.17,13.63h24.01v12.12H0v-11.03l14.28-20.01c7.79-10.82,12.12-18.39,12.12-26.72v-.22c0-6.17-2.05-8.55-5.95-8.55-4.87,0-6.81,4.11-6.81,12.44v.22H.54v-.22C.54,7.57,8.55,0,20.77,0c12.98,0,19.04,8.44,19.04,20.44v.22Z"/><path class="cls-1" d="M53.49,75.5c-4.43-3.79-6.49-10.06-6.49-25.53V29.96c0-15.47,2.06-21.63,6.49-25.53,3.03-2.7,7.57-4.43,13.52-4.43s10.49,1.73,13.52,4.43c4.33,3.89,6.49,10.06,6.49,25.53v20.01c0,15.47-2.16,21.74-6.49,25.53-3.03,2.7-7.57,4.43-13.52,4.43s-10.49-1.73-13.52-4.43Zm20.01-21.96V26.39c0-8.44,0-14.06-6.49-14.06s-6.49,5.62-6.49,14.06v27.15c0,8.44,0,14.06,6.49,14.06s6.49-5.62,6.49-14.06Z"/><path class="cls-1" d="M93.35,20.77V12.66c8.76-3.57,15.14-8.65,16.77-11.79h8.22l-.11,7.9v61.98l.11,7.9h-13.95l.11-7.9V20.77h-11.14Z"/><path class="cls-1" d="M152.85,53.44v-8.44c-3.57,2.81-7.36,4.33-11.57,4.33-3.46,0-6.6-.97-9.41-3.57-3.57-3.35-5.52-7.79-5.62-19.9,0-8.65,.97-16.66,6.49-21.42,3.25-2.81,8.11-4.43,13.74-4.43,6.17,0,10.6,1.95,13.52,4.43,4.11,3.57,6.71,8.98,6.71,24.99v21.09c0,15.04-2.16,21.42-6.71,25.2-3.35,2.81-7.68,4.22-12.98,4.22-5.84,0-10.28-1.73-13.3-4.43-3.46-3.14-6.06-8.22-6.06-18.5v-.22h13.2v.22c0,4.43,0,10.82,6.06,10.82s5.95-6.38,5.95-14.39Zm0-19.58v-7.36c0-7.79,0-14.39-6.71-14.39-6.17,0-6.17,5.62-6.17,13.74,0,7.25,.32,11.36,6.06,11.36,2.38,0,4.98-.87,6.81-3.35Z"/></g></g></svg>