<svg xmlns="http://www.w3.org/2000/svg" width="124.857" height="48.241" viewBox="0 0 124.857 48.241">
  <g id="グループ_2823" data-name="グループ 2823" transform="translate(-736.117 -4804.556)">
    <path id="パス_3042" data-name="パス 3042" d="M7.048,2.41H124.857l-7.048,33.314H0Z" transform="translate(736.117 4817.072)" fill="#faec00"/>
    <g id="グループ_2702" data-name="グループ 2702" transform="translate(1232.292 4208.235)">
      <g id="グループ_2160" data-name="グループ 2160" transform="translate(-482.292 596.574)">
        <path id="パス_2289" data-name="パス 2289" d="M-464.572,615.975l-3,11.753,6.629-2.056-1.092,4.279-20.257,6.33,1.106-4.331,1.476-.444,4.963-19.444,4.207-.037-4.619,18.091,3.214-1.055,6.6-25.833-8.3.069,1.051-4.116,19.5-.165-1.051,4.116-7.154.062-2.227,8.717,5.135-.044-1.037,4.063Zm23.979,21.577-4.7.041-2.559-10.9-9.278,10.509-4.807.039,13.1-15.026-2.371-9.708-2.035,4.34-4.043.035,8.937-19.208,4.207-.034-2.545,5.48,14.856-.126-1.037,4.061-2.346.019-9.019,15.048Zm-4.919-20.659,5.821-9.775-7.975.068Z" transform="translate(482.292 -595.744)" fill="#0068b7" stroke="#0068b7" stroke-width="0.5"/>
        <path id="パス_2290" data-name="パス 2290" d="M-424.929,607.942l-.817,3.193,17.152-.146-.966,3.791-17.153.146-.815,3.2,13.165-.112-2.557,10.019-4.043.035,1.548-6.066-9.122.078-.8,3.141,13.483,11.018-6.826.057-7.833-6.471-2.433,9.532-3.823.032,2.379-9.315-10.033,6.407-6.444.055,17.707-11.283.8-3.143-9.122.078-1.55,6.066-4.041.035,2.557-10.02,13.167-.112.815-3.2-17.153.146.968-3.791,17.153-.146.815-3.195Zm-16.1-5.054-2.8,3.7-4.26.035,7.309-9.844,4.37-.036-1.728,2.284,12.235-.1-.98,3.846-6.281.052.655,4.265-4.37.037-.6-4.267Zm22.885-4.031,14.474-.122-.982,3.844-8.41.071.357,3.729-4.152.034-.467-3.725-3.55.028-1.5,2.23-4.152.035,5.679-8.371,4.26-.037Z" transform="translate(506.667 -596.574)" fill="#0068b7" stroke="#0068b7" stroke-width="0.5"/>
      </g>
    </g>
  </g>
</svg>
