<svg xmlns="http://www.w3.org/2000/svg" width="274.844" height="50.083" viewBox="0 0 274.844 50.083">
  <g id="グループ_2824" data-name="グループ 2824" transform="translate(-659.354 -6913.714)">
    <path id="パス_3040" data-name="パス 3040" d="M1.128,2.41H265.081L254.19,35.725H-9.763Z" transform="translate(669.117 6928.072)" fill="#faec00"/>
    <g id="グループ_2703" data-name="グループ 2703" transform="translate(1157.676 6318.825)">
      <g id="グループ_2162" data-name="グループ 2162" transform="translate(-477.676 595.139)">
        <path id="パス_2291" data-name="パス 2291" d="M-476.649,601.644l33.761-.285-28.474,35.113-4.752.042,25.172-31.072-26.733.228Zm37.557.515a2.61,2.61,0,0,1-2.723-3.455,4.92,4.92,0,0,1,4.516-3.565,2.629,2.629,0,0,1,2.662,3.5A4.85,4.85,0,0,1-439.092,602.159Zm1.328-5.2a2.49,2.49,0,0,0-2.218,1.733,1.321,1.321,0,0,0,1.342,1.7,2.431,2.431,0,0,0,2.169-1.733A1.294,1.294,0,0,0-437.764,596.956Z" transform="translate(477.676 -595.139)" fill="#0068b7" stroke="#0068b7" stroke-width="0.5"/>
        <path id="パス_2292" data-name="パス 2292" d="M-444.471,600.245l31.088-.262-11.23,29.678-27.427.232Zm17.147,25.52,8.236-21.815-22.276.188-5.563,21.793Z" transform="translate(493.296 -592.187)" fill="#0068b7" stroke="#0068b7" stroke-width="0.5"/>
        <path id="パス_2293" data-name="パス 2293" d="M-420.639,598.815l33.761-.286-28.474,35.114-4.752.04,25.171-31.072-26.732.229Z" transform="translate(511.801 -593.073)" fill="#0068b7" stroke="#0068b7" stroke-width="0.5"/>
        <path id="パス_2294" data-name="パス 2294" d="M-371.992,603.1l-9.9,8.409-4.862,19.046-3.664.032,3.859-15.119-10.361,8.856-5.1.042,24.929-21.221Z" transform="translate(523.772 -590.285)" fill="#0068b7" stroke="#0068b7" stroke-width="0.5"/>
        <path id="パス_2295" data-name="パス 2295" d="M-344.388,610.869l-34.453.291,1.052-4.123,34.453-.293Z" transform="translate(537.894 -588.068)" fill="#0068b7" stroke="#0068b7" stroke-width="0.5"/>
        <path id="パス_2296" data-name="パス 2296" d="M-354.178,631.815l9.665-27.216,4.105-.035-9.662,27.216Zm15.921-2.192,7.958-31.17,4.207-.035-5.966,23.365,11.717-6.811,7.425-.063Z" transform="translate(552.92 -593.141)" fill="#0068b7" stroke="#0068b7" stroke-width="0.5"/>
      </g>
    </g>
  </g>
</svg>
