<svg xmlns="http://www.w3.org/2000/svg" viewBox="0 0 269.49 71.98"><defs><style>.cls-1{fill:#faec00;}.cls-2{fill:#005ca7;stroke:#005ca7;stroke-width:0.64px;}</style></defs><g id="レイヤー_2" data-name="レイヤー 2"><g id="文字"><path id="パス_2995" data-name="パス 2995" class="cls-1" d="M263.34,72H0L6.14,29H269.49Z"/><path class="cls-2" d="M30.08,24.75l-.37,4,9.35,0L38.58,34l-5.24,0L37.19,42l-5.95,0L28.92,37.2,27.19,55.76l-5.11,0,1.66-17.79L17.48,48.1l-5.74,0,8.63-14.23-6.81,0L14,28.67l10.56.06.38-4ZM37.84,10,36,18.17l5.81,0-.46,5L14.21,23l.47-5,5.74,0-.3-8.16-3.26,0,.45-4.85,9.43,0L27.18.32l5.11,0-.45,4.78,9.5.06L40.89,10ZM25.08,10l.23,8.16,5.67,0L33,10Zm45.81,9.83-.5,5.41-6.1,0L61.41,56.1l-5.53,0,2.89-30.93-8.44-.05-4.6,29.59-5.46,0,5.18-33.46L46.81,6.56l22.08-4.8-.52,5.55L51.94,10.88l-.82,8.79Z"/><path class="cls-2" d="M130.48,26.45,98,26.27l-2.09,3.36,29.77.17-2.29,24.54L90,54.15,91.63,37l-5.25,8.42-5.39,0L92.42,26.24l-10.7-.07.46-4.92,21.9.13.29-3.17-14.53-.08.46-4.85,14.53.08.3-3.23L84.36,10l.46-4.92,12.05.07L94.09.78l6.16,0,2.86,4.38,10,.06L116.55.91l6.17,0-3.53,4.35,12.2.06-.46,4.93-20.84-.12-.3,3.23,14.6.09-.45,4.85-14.6-.09-.3,3.17,21.9.12ZM94.37,50.24l25.23.14.23-2.53L94.6,47.7Zm.89-9.64L95,43.13l25.23.15.24-2.53Zm25.89-6.88-25.23-.15-.24,2.53,25.24.15Z"/><path class="cls-2" d="M140.26,28.9l2.23-15.6,5.1,0-2.3,15.6Zm5.11,28,5.2-55.69,4.74,0L150.12,57ZM156.3,11.27l5,0,.05,8.51-5,0Zm6.53,45.48,3.65-29.24,25.94.15-2.73,29.25-4.32,0,.79-8.44-17.93-.1-1.07,8.44Zm19.63-37.1,14.6.08-.44,4.71-33.73-.19.44-4.71,14.6.08.26-2.88-10.56-.06.44-4.64,10.56.06.27-2.88-12.41-.07.44-4.65,12.4.08.32-3.45,4.54,0-.32,3.44,12.4.07-.43,4.64-12.41-.07-.27,2.89,10.49.06-.43,4.64-10.49-.06Zm-13.65,24,17.79.1.32-3.51-17.64-.1ZM187.7,31.92l-17.44-.1-.39,3.51,17.5.11Z"/><path class="cls-2" d="M228.56,21.88,225.4,30l5.53,0-.46,4.85-10.06-.06-.62,6.68,7.65,0L227,46.36l-7.66,0-1,10.76-4.89,0,1-10.75-7.65,0,.45-4.85,7.66,0,.62-6.68-10.07,0,.46-4.86,14.81.09,3-8.07Zm-6-10.16-.4,4.29,10.49.06L232.19,21l-25.87-.15.46-4.92,10.49.06.4-4.29-9,0,.45-4.85,9,0,.44-4.64,4.89,0L223,6.87l8.93,0-.45,4.85ZM214,21.8l1,7.32-4.75,0-1-7.33Zm45.69,34-6,0-4-6.43L245,55.75l-5.74,0,7.9-10.92L242.27,27H240.5l-2.81,30.16-4.75,0,5-53.64,23.67.13L258.84,15l-4.67,0,1.55-6.82L242.26,8.1,241,22.1l18.78.1L252.86,45ZM253.19,27l-5.67,0,2.76,9.86Z"/></g></g></svg>