<svg xmlns="http://www.w3.org/2000/svg" width="111.937" height="43.55" viewBox="0 0 111.937 43.55">
  <g id="グループ_2819" data-name="グループ 2819" transform="translate(-742.198 -1637.804)">
    <path id="パス_3038" data-name="パス 3038" d="M3.888,2.41H107.937l-7.888,31.781H-4Z" transform="translate(746.198 1647.163)" fill="#faec00"/>
    <g id="グループ_2700" data-name="グループ 2700" transform="translate(753.529 1638.057)">
      <g id="グループ_2154" data-name="グループ 2154" transform="translate(0)">
        <path id="パス_2280" data-name="パス 2280" d="M-432.106,599.5l1.088-4.266,17.379-.147,3.883-15.213-16.984.143,4.7-18.408,21.8-.184-1.075,4.209-17.267.145-2.536,9.934,16.982-.144-6.06,23.745Z" transform="translate(432.106 -560.922)" fill="#0068b7" stroke="#0068b7" stroke-width="0.5"/>
        <path id="パス_2281" data-name="パス 2281" d="M-407.066,561.492l6.566-.055,10.418,13.184,3.393-13.3,4.586-.039-9.671,37.887-4.586.039,4.672-18.3-11.98-15.243-8.6,33.679-4.472.037Z" transform="translate(445.02 -561.043)" fill="#0068b7" stroke="#0068b7" stroke-width="0.5"/>
        <path id="パス_2282" data-name="パス 2282" d="M-400,599.229l1.089-4.268,17.379-.147,3.883-15.212-16.984.143,4.7-18.408,21.794-.186-1.075,4.209-17.265.149-2.536,9.934,16.984-.144-6.062,23.743Z" transform="translate(459.087 -561.152)" fill="#0068b7" stroke="#0068b7" stroke-width="0.5"/>
      </g>
    </g>
  </g>
</svg>
