<svg xmlns="http://www.w3.org/2000/svg" width="182.737" height="123.093" viewBox="0 0 182.737 123.093">
  <g id="グループ_2830" data-name="グループ 2830" transform="translate(-2198.945 426.503)">
    <path id="パス_3232" data-name="パス 3232" d="M-169.02-37.53c-.225,2.835-.315,4.23-.675,7.965h-7.425v6.84l6.345-.045C-171.72-17.73-173.79-8.6-178.2-1.125l6.93,3.51c4.005-6.795,6.525-19.08,7.785-25.2l3.915-.045c3.06-.045,4.05,1.4,4.05,5.535,0,.4-.18,7.335-1.53,10.8a3,3,0,0,1-3.15,1.98,42.472,42.472,0,0,1-6.075-.72l.495,7.065a53.452,53.452,0,0,0,7.065.72,8.406,8.406,0,0,0,6.93-3.15c2.43-3.015,3.24-11.25,3.24-15.3,0-8.73-2.34-13.635-9.945-13.635H-162.4c.45-3.195.675-5.535.855-7.6Zm32.67,24.975c-.585-8.685-2.43-14.715-6.84-20.745l-6.21,3.015c2.475,3.465,5.265,8.325,5.535,18.99Zm35.01-13.23a34.936,34.936,0,0,0-4.23-7.11l-3.915,1.935c2.835,4.59,3.42,5.985,4.005,7.56Zm6.3-3.285a24.422,24.422,0,0,0-4.32-6.84l-3.825,1.89A41.526,41.526,0,0,1-99-26.91Zm-32.04-7.65c.045,2.925-.135,17.19-.135,20.43,0,9.18.18,18.72,14.625,18.72,3.915,0,15.525,0,19.3-17.91l-6.66-2.97C-101.97-5.715-108.63-4.725-112.41-4.725c-5.625,0-7.515-2.385-7.515-8.595,0-3.825.405-20.16.585-23.31Zm58.32,38.7A39.247,39.247,0,0,0-57.645-.045,15.735,15.735,0,0,0-47.25-15.3c0-7.335-4.545-14.76-13.9-14.76a20.19,20.19,0,0,0-12.06,4.365,11.473,11.473,0,0,1,.81-1.26V-30.78h-.99l.315-6.075h-7.2v6.12h-6.57v6.84l6.48-.135v3.915c-3.96,5.58-5.94,7.29-7.83,8.82l3.33,7.56A24.628,24.628,0,0,0-80.5-9.72L-80.6,2.565h7.2l-.09-20.835c1.8-1.665,5.85-5.175,11.115-5.175,2.43,0,7.695.765,7.695,7.875,0,9.585-8.1,10.44-15.975,10.98Zm59-36.63a82.888,82.888,0,0,0-20.61-2.835L-31.59-30.87c4.455.18,14.67,1.44,20.16,3.645ZM-37.08-29.475c-.315,2.07-1.035,6.75-1.08,18.81l7.11.225v-1.305a18.475,18.475,0,0,1,12.735-5.04c1.08,0,6.39.27,6.39,5.13,0,4.455-3.33,7.515-16.155,7.515-2.43,0-5.805-.09-10.395-.54l1.35,7.065c1.8.09,2.745.135,6.885.135,13.23,0,16.83-1.575,18.99-2.655a11.916,11.916,0,0,0,7.02-11.34c0-6.3-4.5-11.61-12.735-11.61a27.7,27.7,0,0,0-13.95,3.87A61.392,61.392,0,0,1-29.79-28.98ZM-85.455,56.59C-75.1,53.71-69.84,49.03-67.41,45.34a21.929,21.929,0,0,0,7.155,6.885,27.332,27.332,0,0,0,11.07,4.005l3.6-7.02c-10.44-.81-13.545-3.735-15.21-5.31h14.49V37.555H-50.85V26.35H-64.17V23.92h-6.66v2.43H-84.15v11.2h-4.545V43.9H-74.52c-1.935,1.8-6.435,4.5-14.715,5.58ZM-64.17,32.245h6.66v5.31h-6.93A17.711,17.711,0,0,0-64.17,34ZM-70.83,34.9a13.29,13.29,0,0,1-.27,2.655h-6.48v-5.31h6.75Zm-9.45-18.54h-8.415V22.8h8.415v2.43h6.57V22.8h12.285v2.43h6.705V22.8h8.415V16.36H-54.72V13.525h-6.705V16.36H-73.71V13.525h-6.57ZM-25.6,21.535V23.47h-4.5v5.085H-15.12V23.47h-4.59V21.535h5.625v-5.31H-19.71v-2.7H-25.6v2.7h-5.67v4.68H-33.75v-7.38h-6.075v7.38h-4.05V27.25h3.825a26.8,26.8,0,0,1-4.5,11.385l2.295,9.99a43.689,43.689,0,0,0,2.43-6.66V56.23h6.075V37.96c.72,1.665,1.08,2.25,1.53,3.15l2.115-4.1v5.31H-15.12v-8.28A47.691,47.691,0,0,1-12.6,43l3.465-1.26v5.67c0,1.8,0,1.845-1.53,1.845h-3.15l.945,6.975h6.03c4,0,4.05-3.195,4.05-4.815V28.2h1.665V21.67H-2.79V13.525H-9.135V21.67h-5.04V28.2h5.04v6.7a26.045,26.045,0,0,0-2.07-4.77l-3.915,1.485V30H-30.1v4.86A26.181,26.181,0,0,1-33.75,28.6V27.25H-31.1V21.535Zm4.86,13.275v2.655H-24.7V34.81ZM-31.68,56.1c3.69-.315,13.365-1.575,17.73-2.385l-.225-5.67a19.339,19.339,0,0,1-2.025.36,48.383,48.383,0,0,0,1.53-4.725l-5.715-.72a25.61,25.61,0,0,1-1.53,6.21c-.945.09-1.035.09-1.305.135a34.827,34.827,0,0,0-2.025-6.21l-5.22.855A42.091,42.091,0,0,1-28.71,49.75c-1.89.18-2.7.18-3.825.225Z" transform="translate(2380 -360)" fill="#1a1a1a"/>
    <rect id="長方形_52" data-name="長方形 52" width="28.586" height="24.414" rx="3.011" transform="translate(2198.945 -426.503)" fill="#c01"/>
    <rect id="長方形_54" data-name="長方形 54" width="29.195" height="24.184" rx="3.011" transform="translate(2229.213 -426.503)" fill="#c01"/>
    <g id="グループ_1768" data-name="グループ 1768" transform="translate(2222.885 -405.429) rotate(180)">
      <path id="パス_2" data-name="パス 2" d="M0,14.762H18.086V6.327s.122-4.286,1.3-6.327" transform="translate(0 0.68)" fill="none" stroke="#fff" stroke-miterlimit="10" stroke-width="2.5"/>
      <line id="線_1" data-name="線 1" y1="2.041" transform="translate(8.912 16.054)" fill="none" stroke="#fff" stroke-miterlimit="10" stroke-width="2.5"/>
      <path id="パス_3" data-name="パス 3" d="M0,6.579S.731,2.451,3.182,0" transform="translate(12.834 6.866)" fill="none" stroke="#fff" stroke-miterlimit="10" stroke-width="2.5"/>
      <line id="線_2" data-name="線 2" y1="9.319" transform="translate(13.561)" fill="none" stroke="#fff" stroke-miterlimit="10" stroke-width="2.5"/>
      <line id="線_3" data-name="線 3" x1="11.007" transform="translate(0.452 9.319)" fill="none" stroke="#fff" stroke-miterlimit="10" stroke-width="2.5"/>
      <path id="パス_4" data-name="パス 4" d="M0,12.585V1.966S-.068,0,1.544,0H3.576" transform="translate(3.36 1.02)" fill="none" stroke="#fff" stroke-miterlimit="10" stroke-width="2.5"/>
      <line id="線_4" data-name="線 4" x1="2.18" transform="translate(7.761 4.934)" fill="none" stroke="#fff" stroke-miterlimit="10" stroke-width="2.5"/>
    </g>
    <path id="パス_3233" data-name="パス 3233" d="M16.345-10.541v1.477H4.655v-1.477Q3.158-9.6,1.7-8.859L.636-11.115a37.794,37.794,0,0,0,8.121-5.763h3.486a37.794,37.794,0,0,0,8.121,5.763L19.3-8.859Q17.842-9.6,16.345-10.541Zm-1.107-.718A36.524,36.524,0,0,1,10.5-15.135a36.524,36.524,0,0,1-4.737,3.876Zm1.251,6.4Q18.4-1.333,19.544,1.107l-2.4.9q-.164-.287-.461-.9T16.242.164q-6.952.882-13.9,1.107L2.215-.964q1.866-.082,2.892-.144Q6.255-3.261,7.055-5.086H1.661V-7.342H19.339v2.256H9.946q-.82,1.969-1.764,3.794,3.773-.287,6.993-.656-.513-1.046-1.025-2.01Z" transform="translate(2233 -407)" fill="#fff"/>
    <path id="パス_3234" data-name="パス 3234" d="M10.34-8.261H6.16V-9.317H4.774v1.056H.649v1.243H10.34ZM2.2-2.31A6.715,6.715,0,0,1,.341-.2,9.509,9.509,0,0,1,1.408.561,9.971,9.971,0,0,0,3.542-1.881ZM3.212-5.126H7.788v1.265H3.212ZM9.174-2.739V-6.248H1.9v3.509H4.8V-.462c0,.143-.044.176-.242.187-.176.011-.869,0-1.43-.022A5.253,5.253,0,0,1,3.542.957a5.991,5.991,0,0,0,2.013-.2C6.039.572,6.16.242,6.16-.418V-2.739Zm-1.815,1a16.547,16.547,0,0,1,1.9,2.4L10.549.011A17.417,17.417,0,0,0,8.558-2.31Zm6.93-4.389v-.9h.825c-.2.319-.4.616-.6.9Zm.858,3.685H13.376v-.7h1.771ZM13.376-.682v-.781h1.771v.781Zm7.106-8.074-.2.044H17.116V-8.5l-1.155-.319a10.412,10.412,0,0,1-.539,1.232v-.561H14.289V-9.218h-1.21v1.067H11.638v1.122h1.441v.9H11.165v1.144h2.343a10.188,10.188,0,0,1-2.629,1.815,6.723,6.723,0,0,1,.759,1.089c.176-.1.363-.209.55-.33V.924h1.188V.363h1.771V.781H16.39V-4.18H14.41c.242-.264.473-.517.7-.8h1.639V-6.127h-.814A13.333,13.333,0,0,0,17.116-8.47V.946H18.4V-7.48h1.4c-.275.847-.649,1.958-.968,2.75a3.165,3.165,0,0,1,1.133,2.255c0,.363-.077.627-.286.748a.9.9,0,0,1-.44.1,5.166,5.166,0,0,1-.693-.022,3.18,3.18,0,0,1,.33,1.265A5.437,5.437,0,0,0,19.833-.4a1.664,1.664,0,0,0,.77-.3c.44-.286.616-.825.616-1.65A3.524,3.524,0,0,0,20.1-4.895c.451-.968.935-2.211,1.331-3.267Zm5.225,1.815a7.893,7.893,0,0,1-1.826,2.882c.011-.407.022-.792.022-1.133V-6.985h8.063v-1.21H27.973V-9.306H26.609v1.111H22.627V-5.2A12.274,12.274,0,0,1,21.692.275,5.026,5.026,0,0,1,22.814,1a11.016,11.016,0,0,0,1.023-4.257c.165.2.319.4.429.539a6.381,6.381,0,0,0,.693-.649v4.3h1.232v-5.94a12.61,12.61,0,0,0,.8-1.584ZM26.862-3.3a9.614,9.614,0,0,1,1.045,2.112l1.1-.495a8.943,8.943,0,0,0-1.1-2.046Zm5.159-2.112H30.91V-6.776H29.645v1.364H26.807V-4.2h2.838V-.473c0,.165-.066.22-.242.22-.2,0-.814,0-1.4-.022A4.722,4.722,0,0,1,28.4.979a4.845,4.845,0,0,0,1.947-.22c.429-.209.561-.539.561-1.221V-4.2h1.111ZM38.8-7.029H36.839V-6.2H38.8v.44H36.146v.935H42.7v-.935H40.051V-6.2h2.09v-.825h-2.09v-.407h2.431v-.869H41.294c.154-.22.33-.473.517-.737l-1.144-.275a6.1,6.1,0,0,1-.5,1.012H38.819a4.875,4.875,0,0,0-.627-1.012L37.268-9a7.234,7.234,0,0,1,.418.693h-1.2v.869H38.8ZM35.871-8.976H33.055v.99h2.816Zm.3,1.474h-3.63v1.034h3.63ZM34.837-1.925V-.66h-.869V-1.925Zm1.045-1.023H32.956V.8h1.012V.363h1.914Zm-2.893-.539H35.9v-.979H32.989Zm0-1.485H35.9v-1H32.989Zm5.643,1.837v-.627c.33-.066.649-.132.935-.209.011.286.022.572.044.836Zm2.805,1.078a3.905,3.905,0,0,1-.528.682c-.055-.242-.11-.506-.154-.814h1.936v-.946H41.91l.715-.517A5.093,5.093,0,0,0,41.5-4.664l-.748.517A4.836,4.836,0,0,1,41.8-3.135H40.667c-.022-.44-.033-.935-.033-1.463H39.545c0,.209.011.418.022.627l-.671-.77a14.73,14.73,0,0,1-2.673.462,3.24,3.24,0,0,1,.253.759c.33-.022.671-.044,1.023-.088v.473H36.124v.946H37.5v.528c-.539.044-1.023.088-1.441.121l.121,1c.4-.044.847-.088,1.32-.154v.572c0,.121-.044.154-.176.165s-.539,0-.913-.011a3.686,3.686,0,0,1,.319.924A4.178,4.178,0,0,0,38.2.8c.33-.154.429-.385.429-.891V-.825l.9-.11-.022-.924-.88.088v-.418H39.7a9.151,9.151,0,0,0,.33,1.573,7.073,7.073,0,0,1-1.375.759,4.007,4.007,0,0,1,.627.682A8,8,0,0,0,40.4.22,1.5,1.5,0,0,0,41.7,1c.682,0,1.023-.385,1.177-1.441a2.825,2.825,0,0,1-.748-.451c-.033.594-.143.88-.308.88a.711.711,0,0,1-.572-.418,6.052,6.052,0,0,0,1.067-1.2Zm4.939-3.96a10,10,0,0,0,2.013-2.035A10.706,10.706,0,0,0,50.5-6.017Zm-.539,1.2h5.137v-.869A13.292,13.292,0,0,0,52.822-4.62a6.78,6.78,0,0,1,.847-1.2,10.062,10.062,0,0,1-4.653-3.487H47.652a10.85,10.85,0,0,1-4.444,3.685,5.11,5.11,0,0,1,.77,1.1,12.7,12.7,0,0,0,1.859-1.1ZM43.89-2.7h2.552A21.124,21.124,0,0,1,45.606-.7l-1.661.055L44.121.627c1.87-.088,4.587-.2,7.172-.341a5.831,5.831,0,0,1,.44.682L52.954.231A14.794,14.794,0,0,0,50.435-2.6l-1.155.605A13.111,13.111,0,0,1,50.358-.869c-1.122.044-2.255.088-3.311.121.33-.616.693-1.3,1.012-1.947h4.928V-3.9h-9.1ZM60.247-7.029H58.289V-6.2h1.958v.44H57.6v.935h6.556v-.935H61.5V-6.2h2.09v-.825H61.5v-.407h2.431v-.869H62.744c.154-.22.33-.473.517-.737l-1.144-.275a6.1,6.1,0,0,1-.495,1.012H60.269a4.875,4.875,0,0,0-.627-1.012L58.718-9a7.234,7.234,0,0,1,.418.693h-1.2v.869h2.31ZM57.321-8.976H54.505v.99h2.816Zm.3,1.474h-3.63v1.034h3.63ZM56.287-1.925V-.66h-.869V-1.925Zm1.045-1.023H54.406V.8h1.012V.363h1.914Zm-2.893-.539h2.915v-.979H54.439Zm0-1.485h2.915v-1H54.439Zm5.643,1.837v-.627c.33-.066.649-.132.935-.209.011.286.022.572.044.836Zm2.805,1.078a3.905,3.905,0,0,1-.528.682c-.055-.242-.11-.506-.154-.814h1.936v-.946H63.36l.715-.517a5.093,5.093,0,0,0-1.122-1.012l-.748.517A4.836,4.836,0,0,1,63.25-3.135H62.117c-.022-.44-.033-.935-.033-1.463H60.995c0,.209.011.418.022.627l-.671-.77a14.73,14.73,0,0,1-2.673.462,3.24,3.24,0,0,1,.253.759c.33-.022.671-.044,1.023-.088v.473H57.574v.946h1.375v.528c-.539.044-1.023.088-1.441.121l.121,1c.4-.044.847-.088,1.32-.154v.572c0,.121-.044.154-.176.165s-.539,0-.913-.011a3.686,3.686,0,0,1,.319.924A4.178,4.178,0,0,0,59.653.8c.33-.154.429-.385.429-.891V-.825l.9-.11-.022-.924-.88.088v-.418h1.067a9.15,9.15,0,0,0,.33,1.573A7.073,7.073,0,0,1,60.1.143a4.007,4.007,0,0,1,.627.682A8,8,0,0,0,61.853.22a1.5,1.5,0,0,0,1.3.781c.682,0,1.023-.385,1.177-1.441a2.824,2.824,0,0,1-.748-.451c-.033.594-.143.88-.308.88A.711.711,0,0,1,62.7-.429a6.051,6.051,0,0,0,1.067-1.2Zm9.207-5.181H67.65v-.715h4.444Zm1.4-1.738H66.33v2.75h7.161ZM67.133-2.321h5.39v.484h-5.39Zm0-1.309h5.39v.473h-5.39Zm0-1.3h5.39v.473h-5.39ZM73.876-.946V-5.819H65.835V-.946H67.54a13.436,13.436,0,0,1-2.816.968,11.506,11.506,0,0,1,.99.935,14.657,14.657,0,0,0,3.41-1.32l-.836-.583h2.981L70.356-.3A29.279,29.279,0,0,1,73.887.979L75.042.055c-.759-.3-1.881-.693-2.9-1ZM84.535,1.1,85.58.638A6.834,6.834,0,0,1,83.611-4.18,6.834,6.834,0,0,1,85.58-9L84.535-9.46a7.249,7.249,0,0,0-2.167,5.28A7.249,7.249,0,0,0,84.535,1.1Zm9.9-7.777v5.423h-2.5V-9.02H90.574v7.766H88.187v-5.4H86.845V.825h1.342V.1h6.248V.792H95.8V-6.677Zm9.933-.4a8.783,8.783,0,0,0-1.694-1.584l-.858.748a8.252,8.252,0,0,1,1.639,1.65Zm-.308,2.882a9.692,9.692,0,0,0-1.8-1.6l-.836.748a9.909,9.909,0,0,1,1.749,1.683Zm-2.783.858c-.209-.253-1.111-1.287-1.43-1.6v-.088H101.3V-6.237H99.847V-7.744a9.808,9.808,0,0,0,1.419-.407l-.737-1.067a16.774,16.774,0,0,1-3.542.9A3.958,3.958,0,0,1,97.339-7.3c.407-.044.814-.11,1.243-.176v1.243H96.921v1.221h1.485a10.317,10.317,0,0,1-1.628,2.948,7.216,7.216,0,0,1,.605,1.243A10.238,10.238,0,0,0,98.582-3V.957h1.265V-3.509a11.919,11.919,0,0,1,.66,1.21Zm5.951,1.276-.209-1.221-1.089.187V-9.317h-1.287v6.446l-3.531.605.209,1.243,3.322-.572V.946h1.287V-1.826Zm10.56,1.243h-8.316V-7.48h8.063V-8.734h-9.372V.957h1.309V.44h8.316Zm-1.276-1.529a14.209,14.209,0,0,0-2.09-2A15.384,15.384,0,0,0,116.039-6.9l-1.287-.429a12.06,12.06,0,0,1-1.364,2.178c-.737-.55-1.507-1.067-2.211-1.5l-.913.825a24.784,24.784,0,0,1,2.288,1.65,11.552,11.552,0,0,1-2.684,2.09,10.053,10.053,0,0,1,1.023,1.034,14.219,14.219,0,0,0,2.662-2.288,14.379,14.379,0,0,1,1.925,1.969Zm3-7.117L118.47-9a6.834,6.834,0,0,1,1.969,4.818A6.834,6.834,0,0,1,118.47.638l1.045.462a7.249,7.249,0,0,0,2.167-5.28A7.249,7.249,0,0,0,119.515-9.46Z" transform="translate(2260 -405)" fill="#1a1a1a"/>
  </g>
</svg>
