<?xml version="1.0" encoding="utf-8"?>
<!-- Generator: Adobe Illustrator 27.9.1, SVG Export Plug-In . SVG Version: 6.00 Build 0)  -->
<svg version="1.1" id="レイヤー_1" xmlns="http://www.w3.org/2000/svg" xmlns:xlink="http://www.w3.org/1999/xlink" x="0px"
	 y="0px" viewBox="0 0 134.7 48.3" style="enable-background:new 0 0 134.7 48.3;" xml:space="preserve">
<style type="text/css">
	.st0{fill:#0081CC;stroke:#0081CC;stroke-width:0.5;stroke-linecap:round;stroke-linejoin:round;}
</style>
<path class="st0" d="M3,18.1h5.6v-17c2,0,3,0.3,3,0.9c0,0.3-0.3,0.6-1,0.9v15.3h5.6V5.2c2,0.2,3,0.5,3,1s-0.3,0.6-0.9,0.8v14.3h-2
	v-2.1H3v2.4H1V5.4c2,0.1,3,0.4,3,0.9c0,0.3-0.3,0.6-1,0.8V18.1z"/>
<path class="st0" d="M25.9,12.4c-0.8,2.1-2,4-3.6,5.6l-1.1-0.6c2.1-2.7,3.6-5.9,4.5-9.2h-3.6L21.7,7h4.2V3.7
	c-1.1,0.2-2.2,0.4-3.4,0.5l-0.5-1c2.7-0.5,5.3-1.4,7.6-2.7c1.3,0.8,1.9,1.3,1.9,1.7s-0.3,0.5-0.8,0.5c-0.2,0-0.4,0-0.6-0.1
	c-0.7,0.3-1.4,0.5-2.1,0.7V7h1l1.1-1.8c0.7,0.7,1.3,1.4,1.9,2.2l-0.5,0.7H28v1.8c0,0,0,0,0.1,0.1c1.1,0.5,2.1,1.3,2.8,2.3
	c0.3,0.4,0.6,0.9,0.6,1.4c0,0.8-0.4,1.2-1.1,1.2c-0.4,0-0.8-0.4-1.1-1.1c-0.3-0.8-0.7-1.6-1.3-2.3v10.5h-2.1V12.4z M37.7,13.9V0.6
	c2.1,0.2,3.2,0.5,3.2,1c0,0.4-0.3,0.6-1.1,0.8v11.2l0.6-0.2l1-2.1c0.7,0.8,1.3,1.5,1.8,2.1l-0.3,0.8l-3,0.7v7.1h-2.1v-6.6l-8,1.8
	L29,15.8L37.7,13.9z M31.8,7.7c1.3,0.5,2.6,1.2,3.6,2.3c0.5,0.5,0.8,1.1,0.9,1.8c0,0.8-0.4,1.2-1.1,1.2c-0.5,0-0.9-0.3-1.2-1
	c-0.5-1.3-1.5-2.5-2.7-3.2L31.8,7.7z M32.6,2.6C33.9,2.9,35,3.6,36,4.4c0.6,0.5,0.9,1.1,1,1.9c0,0.8-0.4,1.2-1.1,1.2
	c-0.5,0-0.9-0.3-1.2-1c-0.5-1.3-1.5-2.3-2.7-3L32.6,2.6z"/>
<path class="st0" d="M53.5,19.5c-0.8,0-1.1-0.1-1.1-0.4s0.1-0.2,0.3-0.3c0.2-0.1,0.5-0.1,0.8-0.1c0.3,0,0.7-0.1,1-0.2
	c0.5-0.1,1-0.3,1.5-0.5c0.7-0.2,1.3-0.5,1.9-0.9c0.6-0.4,1.2-0.9,1.7-1.4c0.6-0.6,1-1.2,1.3-2c0.3-0.9,0.5-1.8,0.5-2.7
	c0-1-0.1-1.9-0.4-2.9c-0.3-0.8-0.7-1.4-1.3-2c-1.3-1.2-2.9-1.8-4.6-1.9c0.2,1.3,0.2,2.6,0.2,3.9c-0.1,1.5-0.5,2.9-1.2,4.1
	c-0.7,1.3-1.5,2.6-2.5,3.7c-0.8,0.8-1.9,1.2-3,1.3c-0.4,0-0.8-0.2-1-0.5c-0.3-0.4-0.6-0.8-0.7-1.3c-0.5-1.2-0.8-2.5-0.7-3.8
	c0-0.7,0.1-1.5,0.4-2.2c0.3-1,0.7-1.9,1.3-2.7c0.4-0.6,0.9-1.1,1.4-1.6c0.5-0.4,1.1-0.8,1.8-1.1c1.4-0.6,2.8-0.9,4.3-0.8
	c0.9,0,1.9,0.2,2.8,0.5c0.9,0.2,1.7,0.7,2.4,1.2c2.8,2.2,3.7,6.1,2.1,9.4c-0.4,0.9-1.1,1.8-1.9,2.5c-0.8,0.6-1.6,1.1-2.5,1.5
	c-0.8,0.4-1.7,0.6-2.6,0.8C54.9,19.4,54.2,19.5,53.5,19.5z M54,8.2c0.2-1.3,0.3-2.5,0.3-3.8c-0.9,0-1.8,0.3-2.7,0.7
	c-1.3,0.7-2.4,1.7-3.1,3c-0.4,0.6-0.6,1.3-0.7,2c-0.1,0.6-0.2,1.2-0.2,1.8c0,0.7,0.1,1.4,0.3,2.1c0.2,0.9,0.4,1.3,0.7,1.3
	c0.7,0,1.6-0.6,2.7-1.7C52.5,11.8,53.4,10.1,54,8.2z"/>
<path class="st0" d="M75.8,10V6.2h-7.2L68,5.1h7.8V0.6c2.1,0.2,3.1,0.5,3.1,0.9s-0.3,0.6-1,0.9v2.7h4.3l1.2-1.8
	c0.6,0.5,1.1,1.1,1.6,1.7l0.3,0.3L85,6.2h-7.1V10h5.8l1.4-1.8c0.8,0.6,1.5,1.4,2.1,2.2l-0.5,0.8h-8.3c2.5,3.1,5.7,5.6,9.4,7.1
	c-0.7,0.5-1.3,1.1-1.7,1.8c-3.4-1.7-6.2-4.4-8.2-7.6v9.4h-2.1v-8.5c-2.2,3.2-5.2,5.8-8.8,7.5l-0.8-0.9c3.6-2.1,6.5-5.1,8.6-8.7h-7.7
	L66.5,10H75.8z"/>
<path class="st0" d="M98.9,11.4v-6H91l-0.5-1.2h8.4v-4c2.1,0.1,3.1,0.4,3.1,0.9c0,0.4-0.3,0.6-1,0.9v2.2h5.5l1.3-1.7
	c0.7,0.6,1.4,1.3,2,2.1l-0.5,0.8H101v6h6.7l1.3-1.7c0.8,0.6,1.5,1.3,2.1,2l-0.5,0.8h-8.8l-0.5-0.3c2.8,2.7,6.2,4.8,10,6
	c-0.7,0.5-1.3,1.2-1.7,2c-3.3-1.4-6.3-3.6-8.6-6.4v8.2h-2.1v-7.5c-2.4,2.8-5.5,4.9-9,6.1l-0.7-1c3.5-1.5,6.5-3.9,8.7-7h-8.2
	l-0.5-1.1H98.9z M93.3,5.6c2.4,1.4,3.6,2.8,3.6,4.2c0.1,0.6-0.3,1.1-0.9,1.2c-0.1,0-0.2,0-0.3,0c-0.5,0-0.9-0.4-1.1-1.1
	c-0.4-1.3-1.1-2.6-2-3.6L93.3,5.6z M102.1,10.8c0.9-1.8,1.7-3.7,2.2-5.6c1.8,0.7,2.7,1.2,2.7,1.6s-0.4,0.6-1.2,0.7
	c-0.8,1.4-1.7,2.7-2.8,3.9L102.1,10.8z"/>
<path class="st0" d="M113.4,10.8c0-0.2,0.1-0.3,0.2-0.5c0.1-0.1,0.2-0.2,0.4-0.2c0.3,0,0.6,0.1,0.9,0.2l0.5,0.2
	c0.3-0.1,0.6-0.2,0.9-0.4c0.4-0.3,0.8-0.6,1.2-0.9l1.3-1.1c0.5-0.4,0.7-0.6,0.8-0.6C120,7.2,120.5,7,121,7c0.6,0,1.1,0.2,1.5,0.6
	c0.6,0.4,1.1,0.9,1.6,1.4c0.6,0.6,1.2,1.2,1.8,1.8c0.8,0.7,1.6,1.3,2.5,1.8c1,0.6,2.1,1,3.2,1.4l0.2,0.1c0.1,0.1,0.2,0.1,0.3,0.2
	c0.1,0.1,0.2,0.3,0.2,0.5c0,0.8-0.4,1.2-1.2,1.2c-0.8-0.1-1.6-0.4-2.2-0.9c-0.9-0.6-1.7-1.3-2.5-2c-0.8-0.8-1.6-1.6-2.3-2.4
	s-1.4-1.4-2-2s-1-0.8-1.2-0.8c-0.4,0.3-0.8,0.6-1.2,1c-0.7,0.7-1.4,1.4-2,2.1s-1,1-1,1c-0.4,0.3-0.9,0.5-1.4,0.5
	c-0.4,0-0.9-0.2-1.2-0.4C113.7,11.7,113.5,11.3,113.4,10.8z"/>
<path class="st0" d="M3.8,35.4h4.7v-8.6c2.1,0,3.1,0.3,3.1,0.9c0,0.4-0.3,0.7-1,0.9v6.8h4.8v-5.9c2,0.1,3,0.4,3,0.9
	c0,0.3-0.3,0.6-0.9,0.8v6.8h-2.1v-1.5h-4.8V45h6v-5.8c2,0.1,3,0.4,3,0.9c0,0.3-0.3,0.6-0.9,0.8v6.9h-2.1v-1.8H2.7v1.8H0.6v-8.5
	c2,0,3,0.3,3,0.9c0,0.3-0.3,0.6-0.9,0.8V45h5.8v-8.5H3.8v1.7H1.7v-8.5c2,0.1,3,0.4,3,0.9c0,0.4-0.3,0.6-1,0.8L3.8,35.4z"/>
<path class="st0" d="M33.4,29.1c0.5,0.7,1,1.4,1.6,2c1-1.1,1.9-2.2,2.6-3.5c1.4,0.8,2.2,1.3,2.2,1.7s-0.3,0.5-0.9,0.5h-0.4
	c-0.8,0.8-1.6,1.5-2.6,2.2c0.5,0.5,1,1,1.5,1.3c1.1-1,2.1-2.1,2.9-3.3c1.3,0.8,2,1.4,2,1.8c0,0.4-0.3,0.5-0.8,0.5
	c-0.1,0-0.3,0-0.4,0c-0.8,0.6-1.6,1.2-2.4,1.7c1.5,0.9,3.1,1.6,4.8,2.1c-0.6,0.5-1.1,1.1-1.5,1.8c-3.9-1.6-7.2-4.3-9.5-7.8
	c-1,1.9-2.2,3.6-3.8,5.1h6l1.1-1.3c0.7,0.5,1.4,1.1,2,1.7l-0.5,0.7h-1.8v3.6h3.5l1.3-1.6c0.8,0.6,1.5,1.3,2.1,2L42,41h-6.5v4.4
	c0,0.2,0,0.4,0.1,0.4c0.5,0.1,1.1,0.2,1.6,0.1c0.7,0.1,1.5,0,2.2-0.3c0.3-0.2,0.5-1.5,0.6-3.7l1.3,0.5c0,0.9,0,1.9,0.2,2.8
	c0.1,0.2,0.3,0.3,0.9,0.3c0,1-0.4,1.7-1.1,1.9c-1.2,0.1-2.5,0.2-3.7,0.2c-1.1,0.1-2.3,0-3.3-0.3c-0.5-0.4-0.8-1-0.7-1.7V41h-2.9
	c-0.2,2-1.2,3.9-2.8,5.1c-1.6,1.1-3.4,1.9-5.3,2.2l-0.7-1c2.6-0.8,4.4-1.8,5.3-3c0.7-1,1.2-2.1,1.3-3.4h-5.6l-0.6-1.2h6.4V40
	c0-0.5,0-0.9,0-1.2v-2.5h-1.6c-1.5,1.1-3,2-4.7,2.7l-0.7-1c3.9-1.9,7-5,9-8.8h-5.4L24.6,28h6.5l1.1-1.3c1.2,0.9,1.7,1.5,1.7,1.8
	s-0.1,0.4-0.4,0.5L33.4,29.1z M23.6,29.3c1.2,0.3,2.4,0.9,3.4,1.8c0.5,0.4,0.8,1,0.9,1.6c0.1,0.5-0.3,1-0.9,1.1c-0.1,0-0.2,0-0.3,0
	c-0.4,0-0.8-0.3-1.1-0.9c-0.6-1.1-1.6-2.1-2.7-2.7L23.6,29.3z M33.5,36.3h-2.7v2.6c0,0.3,0,0.7,0,1h2.8L33.5,36.3z"/>
<path class="st0" d="M50.6,43.2c0.7,1,1.7,1.7,2.9,2c2.1,0.5,4.3,0.8,6.5,0.7c1.9,0,4.2-0.1,7-0.4c-0.6,0.6-1,1.3-1.2,2.2h-5.5
	c-3.6,0-6.2-0.3-7.7-0.9c-1.3-0.4-2.3-1.2-3-2.3c-0.6,1-1.2,1.9-2,2.8c0,0.7-0.2,1.1-0.7,1.1s-1.1-0.7-1.9-2.2
	c1.2-0.6,2.3-1.4,3.4-2.3v-5.9h-2.8l-0.5-1.2h3.5l1-1.2c1.2,0.9,1.7,1.5,1.7,1.8s-0.1,0.5-0.4,0.5l-0.3,0.3L50.6,43.2z M46.8,27.6
	c2.7,1.2,4.1,2.5,4.1,3.9c0.1,0.5-0.2,1.1-0.8,1.2c-0.1,0-0.3,0-0.4,0c-0.5,0-0.9-0.3-1.2-1c-0.5-1.3-1.3-2.4-2.4-3.2L46.8,27.6z
	 M53.1,34.8c-0.5,0.8-1.2,1.6-1.9,2.2l-0.9-0.7c2.1-2.8,3.6-6,4.5-9.4c1.8,0.5,2.7,1,2.7,1.5s-0.4,0.6-1.1,0.6
	c-0.3,0.8-0.6,1.5-0.9,2.2h3c0.6-1.4,1.1-2.8,1.5-4.3c1.7,0.6,2.6,1.2,2.6,1.6S62.2,29,61.5,29c-0.5,0.8-0.9,1.5-1.3,2.1h2.2
	l1.2-1.5c0.8,0.6,1.5,1.2,2.1,1.9l-0.4,0.8H60v2.5h1.9l1.2-1.5c0.8,0.7,1.4,1.3,1.9,1.9L64.7,36H60v2.6h1.9l1.2-1.4
	c0.7,0.5,1.4,1.2,2,1.8l-0.4,0.8H60v2.9h2.6l1.3-1.6c0.7,0.6,1.4,1.3,2,2l-0.5,0.7H55.1V45h-2L53.1,34.8z M55.1,32.3v2.5H58v-2.5
	H55.1z M55.1,36v2.6H58V36L55.1,36z M55.1,39.7v2.9H58v-2.9H55.1z"/>
<path class="st0" d="M73.6,36.4c0.6,0.1,0.9,0.4,0.9,0.8s-0.3,0.5-0.9,0.8v10.3h-2.1v-9.5c-0.9,1.2-2,2.2-3.2,3.1L67.4,41
	c2.8-2.7,5-5.9,6.5-9.4c1.6,0.6,2.3,1.2,2.3,1.6s-0.4,0.7-1.2,0.7C74.4,35,73.9,35.9,73.6,36.4z M67.6,33.7c2.4-1.8,4.5-4.1,6.1-6.8
	c1.5,0.7,2.2,1.2,2.2,1.6s-0.4,0.6-1.3,0.6c-1.6,2.3-3.7,4.1-6.2,5.4L67.6,33.7z M84.7,36.3v9.6c0,1.5-1,2.2-3.1,2.2
	c0.1-0.4-0.2-0.8-0.5-1c-0.4-0.1-1.3-0.3-2.8-0.6v-1.1c1.5,0.1,2.8,0.2,3.9,0.2c0.4,0,0.6-0.1,0.6-0.4v-8.8h-7.4l-0.5-1.1h10.8
	l1.4-1.7c0.8,0.6,1.5,1.4,2.2,2.1l-0.5,0.7H84.7z M84.5,29.2l1.4-1.7c0.8,0.6,1.5,1.3,2.2,2l-0.5,0.8H76.3l-0.5-1.1L84.5,29.2z"/>
<path class="st0" d="M96.8,43.7c0.3,0,0.7,0.1,0.9,0.3c0.5,0.4,0.8,1,0.8,1.6c0,0.5-0.2,1-0.5,1.4c-0.3,0.4-0.8,0.6-1.2,0.6
	c-0.3,0-0.5-0.1-0.8-0.2c-0.6-0.3-1-1-0.9-1.7c0-0.5,0.2-1,0.5-1.4C96,44,96.4,43.7,96.8,43.7z M96.4,42.1
	c-0.6-7.3-0.9-11.7-0.9-13.1c0-1.2,0.5-1.8,1.4-1.8s1.4,0.6,1.4,1.8c0,1-0.2,4.5-0.7,10.4l-0.2,2.8L96.4,42.1z"/>
</svg>
