<svg xmlns="http://www.w3.org/2000/svg" viewBox="0 0 847.31 251.82"><defs><style>.cls-1{fill:#1a1a1a;}.cls-2{fill:#c01;}.cls-3{fill:none;stroke:#fff;stroke-miterlimit:10;stroke-width:7.8px;}.cls-4{fill:#fff;}</style></defs><g id="レイヤー_2" data-name="レイヤー 2"><g id="レイヤー_1-2" data-name="レイヤー 1"><path id="パス_3223" data-name="パス 3223" class="cls-1" d="M30.56,111.62c-.75,9.44-1,14.08-2.25,26.51H3.59V160.9l21.12-.16c-3.14,16.79-10,47.19-24.71,72l23.07,11.69C36.4,221.85,44.78,181,49,160.6l13-.16c10.18-.15,13.48,4.65,13.48,18.43,0,1.34-.6,24.41-5.09,35.94-2.7,6.59-7.94,6.59-10.49,6.59A141.74,141.74,0,0,1,39.69,219l1.65,23.52a178.35,178.35,0,0,0,23.52,2.4c11.83,0,18.87-5.25,23.06-10.49,8.09-10,10.79-37.44,10.79-50.92,0-29.06-7.79-45.39-33.11-45.39h-13c1.5-10.63,2.25-18.42,2.85-25.31ZM139.3,194.75c-2-28.91-8.09-49-22.77-69l-20.67,10c8.24,11.53,17.52,27.71,18.42,63.2Zm106.2-44c-2.55-6.74-10.34-19.17-14.08-23.66l-13,6.44c9.43,15.28,11.39,19.92,13.33,25.16Zm21-10.93A81.55,81.55,0,0,0,252.09,117l-12.73,6.29c6.59,8.24,12.88,21.42,13.93,23.67ZM159.82,114.32c.16,9.73-.45,57.21-.45,68,0,30.55.6,62.31,48.68,62.31,13,0,51.68,0,64.26-59.62l-22.18-9.88c-6.74,42.39-28.9,45.68-41.48,45.68-18.73,0-25-7.94-25-28.61,0-12.73,1.35-67.1,2-77.58ZM343.6,243.13a130.55,130.55,0,0,0,37-6.75c17.38-6.29,34.6-23.21,34.6-50.77,0-24.42-15.13-49.13-46.28-49.13-19.77,0-34.15,10-40.14,14.53a38.46,38.46,0,0,1,2.7-4.2V134.08h-3.3l1.05-20.22h-24v20.37H283.39V157l21.56-.45v13c-13.18,18.57-19.77,24.27-26.05,29.36L290,224.1c3.9-4,8.08-8.39,14.53-19.92l-.3,40.89h24l-.3-69.35c6-5.54,19.47-17.22,37-17.22,8.09,0,25.61,2.54,25.61,26.21,0,31.9-27,34.75-53.17,36.55ZM529.48,121.21c-30.41-8.69-60.22-9.29-68.6-9.44l-4.05,22c14.83.6,48.84,4.79,67.11,12.13Zm-90.92,17.22c-1.05,6.89-3.45,22.47-3.59,62.61l23.67.75v-4.34c10.48-10.79,27.41-16.78,42.38-16.78,3.59,0,21.27.9,21.27,17.08,0,14.82-11.07,25-53.77,25-8.09,0-19.32-.3-34.6-1.8l4.5,23.52c6,.3,9.13.45,22.91.45,44,0,56-5.25,63.21-8.84,12.73-6.44,23.37-17.67,23.37-37.75,0-21-15-38.64-42.39-38.64-2.55,0-26.21,0-46.43,12.88a204.15,204.15,0,0,1,3.74-32.5ZM566.62,251.82c34.45-9.59,52-25.17,60.07-37.45a73,73,0,0,0,23.81,22.92,91,91,0,0,0,36.85,13.33l12-23.37c-34.75-2.69-45.09-12.43-50.63-17.67h48.23V188.46H681.8V151.17H637.47v-8.09H615.3v8.09H571v37.29H555.83v21.12H603c-6.44,6-21.42,15-49,18.56Zm70.85-81h22.17v17.68H636.57a58.64,58.64,0,0,0,.9-11.83Zm-22.17,8.84a43.76,43.76,0,0,1-.9,8.84H592.83V170.78H615.3Zm-31.45-61.71h-28v21.43h28v8.09h21.87v-8.09h40.89v8.09h22.31v-8.09h28V117.91h-28v-9.43H646.61v9.43H605.72v-9.43H583.85Zm182,17.23v6.44h-15V158.5h49.88V141.58H785.45v-6.44h18.73V117.46H785.45v-9H765.83v9H747V133h-8.23V108.48H718.49V133H705v21.12h12.74c-2.4,13.18-6.59,26.66-15,37.89l7.64,33.26a145.88,145.88,0,0,0,8.09-22.17v47.48h20.22V189.81c2.4,5.54,3.59,7.49,5.09,10.48l7-13.63v17.68h49.88V176.78a159,159,0,0,1,8.39,29.8l11.53-4.19v18.88c0,6,0,6.14-5.09,6.14H805.07l3.15,23.21h20.07c13.33,0,13.48-10.63,13.48-16V157.3h5.54V135.59h-5.54V108.48H820.65v27.11H803.88v21.72h16.77v22.31a86.27,86.27,0,0,0-6.89-15.87l-13,4.94V163.3H750.85v16.17a87,87,0,0,1-12.13-20.82v-4.49h8.84v-19ZM782,179.32v8.84H768.83v-8.84Zm-36.4,70.85c12.28-1,44.49-5.24,59-7.94l-.75-18.88a64.72,64.72,0,0,1-6.74,1.2,162.9,162.9,0,0,0,5.09-15.73l-19-2.39c-.45,3.59-.9,8.53-5.1,20.67-3.14.3-3.44.3-4.34.45A115.33,115.33,0,0,0,767,206.88l-17.37,2.85a141.38,141.38,0,0,1,5.84,19.32c-6.29.6-9,.6-12.73.75Z"/><path id="パス_3225" data-name="パス 3225" class="cls-2" d="M14.59,0h88.22a4.69,4.69,0,0,1,4.7,4.7h0v74a4.69,4.69,0,0,1-4.7,4.7H14.59a4.7,4.7,0,0,1-4.7-4.7h0V4.7A4.7,4.7,0,0,1,14.59,0Z"/><path id="パス_3226" data-name="パス 3226" class="cls-2" d="M118.91,0h88.22a4.7,4.7,0,0,1,4.7,4.7h0v74a4.7,4.7,0,0,1-4.7,4.7H118.91a4.69,4.69,0,0,1-4.7-4.7h0V4.7a4.69,4.69,0,0,1,4.7-4.7Z"/><g id="グループ_1817" data-name="グループ 1817"><path id="パス_2" data-name="パス 2" class="cls-3" d="M91.64,19.23H29.88V48s-.41,14.63-4.44,21.6"/><line id="線_1" data-name="線 1" class="cls-3" x1="61.21" y1="10.17" x2="61.21" y2="17.14"/><path id="パス_3" data-name="パス 3" class="cls-3" d="M47.82,26.05S45.32,40.15,37,48.52"/><line id="線_2" data-name="線 2" class="cls-3" x1="45.34" y1="40.14" x2="45.34" y2="71.96"/><line id="線_3" data-name="線 3" class="cls-3" x1="52.52" y1="40.14" x2="90.1" y2="40.14"/><path id="パス_4" data-name="パス 4" class="cls-3" d="M80.17,25.5V61.77s.23,6.71-5.27,6.71H68"/><line id="線_4" data-name="線 4" class="cls-3" x1="57.7" y1="55.12" x2="65.14" y2="55.12"/></g><path id="パス_3227" data-name="パス 3227" class="cls-4" d="M181.62,32v4.82H143.41V32c-3.27,2-6.48,3.88-9.66,5.49l-3.48-7.37A123.61,123.61,0,0,0,156.81,11.3H168.2a124,124,0,0,0,26.56,18.84l-3.49,7.37Q186.52,35.1,181.62,32ZM178,29.68A120,120,0,0,1,162.51,17,119.67,119.67,0,0,1,147,29.67Zm4.09,20.91q6.24,11.53,10,19.5l-7.84,3c-.35-.62-.86-1.6-1.5-3s-1.13-2.37-1.45-3.08q-22.72,2.88-45.45,3.62l-.4-7.31q6.1-.27,9.45-.46,3.75-7.05,6.37-13H133.62V42.47h57.79v7.38H160.7q-2.69,6.43-5.77,12.4,12.33-.93,22.86-2.14c-1.12-2.28-2.23-4.47-3.35-6.57Z"/><path id="パス_3228" data-name="パス 3228" class="cls-1" d="M256,57.87H245.33v-2.7h-3.54v2.7H231.26V61H256ZM235.22,73.06a17,17,0,0,1-4.75,5.39,23.56,23.56,0,0,1,2.72,1.94,25.37,25.37,0,0,0,5.45-6.24Zm2.58-7.19h11.69V69.1H237.8ZM253,72V63H234.46v9h7.39v5.82c0,.36-.12.45-.63.47s-2.22,0-3.65,0a13,13,0,0,1,1.08,3.2,15.3,15.3,0,0,0,5.13-.51c1.24-.47,1.55-1.32,1.55-3V72Zm-4.63,2.56a42.69,42.69,0,0,1,4.86,6.12L256.53,79a44.09,44.09,0,0,0-5.08-5.92Zm17.69-11.21V61h2.11c-.51.82-1,1.58-1.54,2.31Zm2.19,9.41h-4.52v-1.8h4.52Zm-4.52,4.49v-2h4.52v2ZM281.89,56.6l-.5.11H273.3v.54l-2.95-.82A27.5,27.5,0,0,1,269,59.58V58.15h-2.9V55.42H263v2.73h-3.67V61H263v2.31h-4.88v2.92h6a25.84,25.84,0,0,1-6.71,4.63,17.35,17.35,0,0,1,1.95,2.78c.44-.25.92-.53,1.4-.84v8.51h3V79.88h4.53V81h3.17V68.28h-5.06c.63-.67,1.21-1.32,1.8-2h4.18V63.31H270.3a34.13,34.13,0,0,0,3-6v24h3.29V59.86h3.56c-.7,2.16-1.65,5-2.47,7a8.07,8.07,0,0,1,2.89,5.76c0,.92-.19,1.6-.73,1.91a2.27,2.27,0,0,1-1.12.25,13.09,13.09,0,0,1-1.77-.06,8.1,8.1,0,0,1,.84,3.23,13.36,13.36,0,0,0,2.45,0,4.33,4.33,0,0,0,2-.76c1.13-.73,1.58-2.11,1.58-4.22a9,9,0,0,0-2.87-6.51c1.15-2.47,2.39-5.65,3.4-8.34Zm13.34,4.64a20,20,0,0,1-4.66,7.35c0-1,.06-2,.06-2.89V61.12h20.58V58H301V55.2h-3.48V58H287.37v7.65c0,4.1-.2,9.94-2.39,14a13,13,0,0,1,2.87,1.86,28,28,0,0,0,2.61-10.87c.42.51.81,1,1.09,1.38a17.38,17.38,0,0,0,1.77-1.66v11h3.15V66.18a33.42,33.42,0,0,0,2-4.05Zm2.95,9.29a24.17,24.17,0,0,1,2.67,5.39l2.81-1.26a22.86,22.86,0,0,0-2.81-5.22Zm13.18-5.39h-2.84V61.66h-3.23v3.48H298v3.09h7.25v9.52c0,.42-.17.56-.63.56s-2.07,0-3.56-.06a12.44,12.44,0,0,1,1,3.2,12.17,12.17,0,0,0,5-.56c1.09-.53,1.43-1.37,1.43-3.12V68.22h2.84ZM328.65,61h-5v2.11h5v1.12h-6.76v2.39h16.73V64.24h-6.76V63.12h5.33V61h-5.33V60h6.2V57.75h-3l1.32-1.88-2.92-.7a15.4,15.4,0,0,1-1.26,2.58h-3.46a12.44,12.44,0,0,0-1.59-2.58l-2.36.81a17.62,17.62,0,0,1,1.06,1.77h-3.06V60h5.89Zm-7.46-5H314v2.53h7.2ZM322,59.8h-9.27v2.64H322ZM318.54,74v3.23h-2.21V74Zm2.67-2.61h-7.47V81h2.59V79.88h4.88Zm-7.38-1.38h7.44V67.56h-7.44Zm0-3.79h7.44V63.71h-7.44ZM328.23,71v-1.6c.85-.17,1.66-.34,2.39-.53,0,.73.06,1.46.11,2.13Zm7.16,2.75a9.9,9.9,0,0,1-1.34,1.75c-.14-.63-.28-1.3-.4-2.08h5V71h-2l1.83-1.32a12.82,12.82,0,0,0-2.87-2.58l-1.91,1.32A12.11,12.11,0,0,1,336.32,71h-2.89c-.06-1.12-.09-2.38-.09-3.73h-2.78c0,.53,0,1.06.06,1.6l-1.72-2A37.45,37.45,0,0,1,322.08,68a8.13,8.13,0,0,1,.65,1.93c.84,0,1.72-.11,2.61-.22V71h-3.51v2.41h3.51v1.35l-3.68.31.31,2.56c1-.12,2.17-.23,3.37-.4v1.45c0,.32-.11.4-.45.43s-1.37,0-2.33,0a9,9,0,0,1,.81,2.36,10.84,10.84,0,0,0,3.76-.39c.85-.4,1.1-1,1.1-2.28V76.85l2.3-.28-.06-2.36-2.24.23V73.37H331a23.82,23.82,0,0,0,.84,4,17.34,17.34,0,0,1-3.5,1.94,10.14,10.14,0,0,1,1.6,1.74,19.7,19.7,0,0,0,2.86-1.54,3.83,3.83,0,0,0,3.32,2c1.74,0,2.61-1,3-3.68a7.31,7.31,0,0,1-1.91-1.15c-.08,1.52-.36,2.25-.78,2.25a1.8,1.8,0,0,1-1.46-1.07,15.26,15.26,0,0,0,2.72-3.06ZM348,63.59a25,25,0,0,0,5.14-5.19,27.11,27.11,0,0,0,5.4,5.19Zm-1.37,3.07h13.11V64.44a34.58,34.58,0,0,0,4.72,2.72,17.61,17.61,0,0,1,2.16-3.06,25.68,25.68,0,0,1-11.88-8.9h-3.48a27.68,27.68,0,0,1-11.35,9.4,13,13,0,0,1,2,2.81,32.84,32.84,0,0,0,4.74-2.81Zm-5,5.42h6.52q-.94,2.6-2.14,5.08l-4.24.14.45,3.26c4.77-.23,11.7-.51,18.31-.87a14.33,14.33,0,0,1,1.12,1.74l3.12-1.88a37.45,37.45,0,0,0-6.43-7.22l-2.95,1.54a32.28,32.28,0,0,1,2.74,2.87l-8.45.31c.84-1.57,1.77-3.31,2.59-5h12.58V69H341.66ZM383.42,61h-5v2.11h5v1.12h-6.77v2.39h16.74V64.24h-6.77V63.12H392V61h-5.34V60h6.21V57.75h-3c.4-.56.85-1.2,1.32-1.88l-2.92-.7a15.4,15.4,0,0,1-1.26,2.58h-3.46a12.44,12.44,0,0,0-1.59-2.58l-2.36.81a17.71,17.71,0,0,1,1.07,1.77h-3.07V60h5.9ZM376,56h-7.19v2.53H376Zm.76,3.76h-9.27v2.64h9.27ZM373.31,74v3.23h-2.22V74ZM376,71.43h-7.47V81h2.58V79.88H376Zm-7.39-1.38H376V67.56h-7.44Zm0-3.79H376V63.71h-7.44ZM383,71v-1.6c.84-.17,1.65-.34,2.38-.53,0,.73.06,1.46.12,2.13Zm7.16,2.75a10.46,10.46,0,0,1-1.35,1.75c-.14-.63-.28-1.3-.39-2.08h4.94V71h-2l1.82-1.32a13,13,0,0,0-2.86-2.58l-1.91,1.32A12.56,12.56,0,0,1,391.09,71h-2.9c-.05-1.12-.08-2.38-.08-3.73h-2.78c0,.53,0,1.06.05,1.6l-1.71-2A37.6,37.6,0,0,1,376.85,68a8.1,8.1,0,0,1,.64,1.93c.85,0,1.72-.11,2.61-.22V71h-3.51v2.41h3.51v1.35l-3.67.31.31,2.56c1-.12,2.16-.23,3.37-.4v1.45c0,.32-.11.4-.45.43s-1.38,0-2.33,0a9.83,9.83,0,0,1,.81,2.36A10.86,10.86,0,0,0,381.9,81c.84-.4,1.09-1,1.09-2.28V76.85l2.3-.28-.05-2.36-2.25.23V73.37h2.72a23.84,23.84,0,0,0,.85,4,17.69,17.69,0,0,1-3.51,1.94,10.14,10.14,0,0,1,1.6,1.74,19.3,19.3,0,0,0,2.87-1.54,3.82,3.82,0,0,0,3.31,2c1.74,0,2.61-1,3-3.68a7.15,7.15,0,0,1-1.91-1.15c-.09,1.52-.37,2.25-.78,2.25a1.81,1.81,0,0,1-1.47-1.07,15.31,15.31,0,0,0,2.73-3.06Zm23.5-13.22H402.32V58.65h11.34ZM417.23,56H399v7h18.28ZM401,73h13.76v1.23H401Zm0-3.34h13.76v1.2H401Zm0-3.32h13.76v1.21H401Zm17.21,10.17V64.1H397.68V76.54H402A34,34,0,0,1,394.85,79a30,30,0,0,1,2.53,2.39,37.7,37.7,0,0,0,8.7-3.37L404,76.54h7.61l-2.33,1.66a75.59,75.59,0,0,1,9,3.25l3-2.35c-1.94-.76-4.8-1.77-7.42-2.56Zm27.22,5.22,2.67-1.17a17.57,17.57,0,0,1,0-24.61l-2.67-1.18a19.19,19.19,0,0,0,0,27ZM470.7,61.91V75.75h-6.37V55.93h-3.48V75.75h-6.1V62h-3.43V81.06h3.43V79.21H470.7V81h3.49V61.91Zm25.36-1a22.74,22.74,0,0,0-4.32-4l-2.19,1.91A20.94,20.94,0,0,1,493.74,63Zm-.78,7.36a24.81,24.81,0,0,0-4.6-4.08l-2.14,1.91a25.23,25.23,0,0,1,4.46,4.3Zm-7.1,2.18c-.54-.65-2.84-3.28-3.65-4.07v-.23h3.7V63h-3.7V59.18a26.72,26.72,0,0,0,3.62-1l-1.89-2.72a42.8,42.8,0,0,1-9.05,2.31,10.13,10.13,0,0,1,.9,2.58c1-.11,2.08-.28,3.17-.45V63h-4.23v3.12h3.79a26.14,26.14,0,0,1-4.15,7.53,18.93,18.93,0,0,1,1.54,3.17,25.74,25.74,0,0,0,3.06-5.56V81.4h3.23V70a29.8,29.8,0,0,1,1.69,3.09Zm15.19,3.26-.53-3.12-2.78.48V55.17h-3.29V71.62l-9,1.55.53,3.17,8.48-1.46v6.49h3.29V74.29Zm27,3.17H509.09v-17h20.59v-3.2H505.75V81.4h3.34V80.08h21.24ZM527.07,73a36.29,36.29,0,0,0-5.33-5.11,39.44,39.44,0,0,0,4.13-6.52l-3.29-1.09a31,31,0,0,1-3.48,5.56c-1.88-1.4-3.85-2.72-5.65-3.82l-2.33,2.11A62.23,62.23,0,0,1,517,68.31a29.12,29.12,0,0,1-6.85,5.34,25,25,0,0,1,2.61,2.64,36.45,36.45,0,0,0,6.8-5.84,37,37,0,0,1,4.91,5Zm7.66-18.17L532.07,56a17.59,17.59,0,0,1,0,24.61l2.66,1.17a19.17,19.17,0,0,0,0-27Z"/></g></g></svg>