<?xml version="1.0" encoding="utf-8"?>
<!-- Generator: Adobe Illustrator 27.8.1, SVG Export Plug-In . SVG Version: 6.00 Build 0)  -->
<svg version="1.1" id="レイヤー_1" xmlns="http://www.w3.org/2000/svg" xmlns:xlink="http://www.w3.org/1999/xlink" x="0px"
	 y="0px" viewBox="0 0 168.6 42" style="enable-background:new 0 0 168.6 42;" xml:space="preserve">
<style type="text/css">
	.st0{fill:#FFFFFF;}
	.st1{fill:none;stroke:#FFFFFF;stroke-width:0.5;}
</style>
<g>
	<path class="st0" d="M26.3,9.7h3.9l-8.6,9.8l10.1,13.4h-7.9l-6.2-8.1l-7.1,8.1H6.6l9.2-10.5L6.1,9.7h8.1l5.6,7.4L26.3,9.7z
		 M24.9,30.6h2.2L13,11.9h-2.3L24.9,30.6z"/>
	<g>
		<g>
			<path class="st0" d="M63.4,19.1l5.2,12.3H66l-4.7-11.1h-1l-4.4,11.1h-2.6l4.9-12.2l-4.4-7.4h2.7l3.7,6.1h1.1l3.5-6.1h2.8
				L63.4,19.1z"/>
			<path class="st0" d="M73.6,28.2l3.7,4.6h-3l-2.7-3.4l-1.4-4.5v-7.3l1.4-4.5l2.7-3.4h3l-3.7,4.6l-1.2,3.7v6.4L73.6,28.2z"/>
			<path class="st0" d="M90.6,11.8V14h-4.5v17.3h-2.4V14h-4.5v-2.2H90.6z"/>
			<path class="st0" d="M94.7,17.1v12.1h4.4V17.5h2.1v11.6h4.6V17.1h2.2v14.3H95c-1.4,0-2.6-1.2-2.6-2.6V17.1H94.7z"/>
			<path class="st0" d="M113.6,13.5v2.2h-2.3v-2.2H113.6z M113.6,17.1v14.3h-2.3V17.1H113.6z"/>
			<path class="st0" d="M117.3,19.2h-1.5v-2.1h1.5v-4.9h2.3v4.9h3.1v2.1h-3.1v10.1h3.5v2.1h-3.2c-1.4,0-2.6-1.2-2.6-2.6V19.2z"/>
			<path class="st0" d="M125.2,19.2h-1.5v-2.1h1.5v-4.9h2.3v4.9h3.1v2.1h-3.1v10.1h3.5v2.1h-3.2c-1.4,0-2.6-1.2-2.6-2.6V19.2z"/>
			<path class="st0" d="M135.2,31.3c-1.4,0-2.6-1.2-2.6-2.6V17.1h9.6v7.1H135v5.1h7.4v2.1H135.2z M135,19.2v2.9h5v-2.9H135z"/>
			<path class="st0" d="M145.1,31.3V17.1h7.6v2.1h-5.3v12.2H145.1z"/>
			<path class="st0" d="M158,14.3l-3.7-4.6h3l2.7,3.4l1.4,4.5v7.3l-1.4,4.5l-2.7,3.4h-3l3.7-4.6l1.2-3.7V18L158,14.3z"/>
		</g>
		<g>
			<path class="st1" d="M63.4,19.1l5.2,12.3H66l-4.7-11.1h-1l-4.4,11.1h-2.6l4.9-12.2l-4.4-7.4h2.7l3.7,6.1h1.1l3.5-6.1h2.8
				L63.4,19.1z"/>
			<path class="st1" d="M73.6,28.2l3.7,4.6h-3l-2.7-3.4l-1.4-4.5v-7.3l1.4-4.5l2.7-3.4h3l-3.7,4.6l-1.2,3.7v6.4L73.6,28.2z"/>
			<path class="st1" d="M90.6,11.8V14h-4.5v17.3h-2.4V14h-4.5v-2.2H90.6z"/>
			<path class="st1" d="M94.7,17.1v12.1h4.4V17.5h2.1v11.6h4.6V17.1h2.2v14.3H95c-1.4,0-2.6-1.2-2.6-2.6V17.1H94.7z"/>
			<path class="st1" d="M113.6,13.5v2.2h-2.3v-2.2H113.6z M113.6,17.1v14.3h-2.3V17.1H113.6z"/>
			<path class="st1" d="M117.3,19.2h-1.5v-2.1h1.5v-4.9h2.3v4.9h3.1v2.1h-3.1v10.1h3.5v2.1h-3.2c-1.4,0-2.6-1.2-2.6-2.6V19.2z"/>
			<path class="st1" d="M125.2,19.2h-1.5v-2.1h1.5v-4.9h2.3v4.9h3.1v2.1h-3.1v10.1h3.5v2.1h-3.2c-1.4,0-2.6-1.2-2.6-2.6V19.2z"/>
			<path class="st1" d="M135.2,31.3c-1.4,0-2.6-1.2-2.6-2.6V17.1h9.6v7.1H135v5.1h7.4v2.1H135.2z M135,19.2v2.9h5v-2.9H135z"/>
			<path class="st1" d="M145.1,31.3V17.1h7.6v2.1h-5.3v12.2H145.1z"/>
			<path class="st1" d="M158,14.3l-3.7-4.6h3l2.7,3.4l1.4,4.5v7.3l-1.4,4.5l-2.7,3.4h-3l3.7-4.6l1.2-3.7V18L158,14.3z"/>
		</g>
	</g>
</g>
</svg>
